# Created by Open3D 
# object name: bottom_watertight_tiny_part1
# number of vertices: 60
# number of triangles: 116
v 0.183376 0.161918 0.0907894 0.437442 0.568056 0.259393
vn -0.593126 -0.805106 0.00256499
v 0.189919 0.168047 0.133465 0.437442 0.568056 0.259393
vn 0.678705 -0.734407 0.00253398
v 0.18988 0.168125 0.162604 0.437442 0.568056 0.259393
vn 0.672629 -0.739974 0.00313071
v 0.183511 0.16258 0.217917 0.437442 0.568056 0.259393
vn -0.518611 -0.821322 0.237639
v 0.183421 0.162288 0.162604 0.437442 0.568056 0.259393
vn -0.749099 -0.662443 0.00449705
v 0.133067 0.218491 0.0512584 0.437442 0.568056 0.259393
vn -0.753263 -0.65771 0.00365375
v 0.133073 0.218349 -0.0193284 0.437442 0.568056 0.259393
vn -0.748059 -0.663632 -0.0010102
v 0.183004 0.162197 0.011338 0.437442 0.568056 0.259393
vn -0.745838 -0.666127 -0.00065159
v 0.183421 0.162015 -0.0603269 0.437442 0.568056 0.259393
vn -0.734305 -0.67881 -0.00359722
v 0.183771 0.161957 -0.0225029 0.437442 0.568056 0.259393
vn 0.656672 -0.754176 -0.000401335
v 0.189998 0.167671 -0.00070094 0.437442 0.568056 0.259393
vn 0.727679 -0.685917 0.00134963
v 0.189919 0.168404 0.217917 0.437442 0.568056 0.259393
vn 0.831363 0.551214 0.0707009
v 0.133073 0.21984 0.217917 0.437442 0.568056 0.259393
vn -0.976322 -0.203979 0.0720269
v 0.133073 0.219555 0.201746 0.437442 0.568056 0.259393
vn -0.757389 -0.652944 0.00514814
v 0.132909 0.218958 -0.0854829 0.437442 0.568056 0.259393
vn -0.776647 -0.629902 -0.00657085
v 0.183399 0.162074 -0.0632018 0.437442 0.568056 0.259393
vn -0.746277 -0.66559 -0.00780559
v 0.183404 0.162074 -0.0632018 0.437442 0.568056 0.259393
vn 0.49048 -0.871141 -0.0233125
v 0.185965 0.164181 -0.0879686 0.437442 0.568056 0.259393
vn 0.231729 -0.287798 -0.929233
v 0.189372 0.167262 -0.0854829 0.437442 0.568056 0.259393
vn 0.673183 -0.739453 -0.00581462
v 0.190066 0.167891 -0.0849738 0.437442 0.568056 0.259393
vn 0.749088 -0.66247 -0.0013118
v 0.190528 0.169415 0.0846201 0.437442 0.568056 0.259393
vn 0.748492 0.663143 -0.000747181
v 0.162376 0.199476 0.217917 0.437442 0.568056 0.259393
vn 0.746186 0.661699 0.0732137
v 0.133073 0.225249 0.217917 0.437442 0.568056 0.259393
vn -0.907757 0.403446 0.114925
v 0.132909 0.219211 -0.0632018 0.437442 0.568056 0.259393
vn -0.999992 -0.00383401 0.000550299
v 0.132909 0.224075 -0.0854829 0.437442 0.568056 0.259393
vn -0.999454 0.0301343 -0.0135409
v 0.133095 0.219075 -0.0879686 0.437442 0.568056 0.259393
vn -0.100226 -0.0519896 -0.993605
v 0.139672 0.211558 -0.0879686 0.437442 0.568056 0.259393
vn -0.446748 -0.396317 -0.80209
v 0.183179 0.162618 -0.0879686 0.437442 0.568056 0.259393
vn -0.51671 -0.69741 -0.496618
v 0.183083 0.16269 -0.0854829 0.437442 0.568056 0.259393
vn -0.746312 -0.665548 -0.00801065
v 0.186467 0.164674 -0.0879686 0.437442 0.568056 0.259393
vn 0.69915 -0.710775 -0.0773847
v 0.189908 0.16806 -0.0879686 0.437442 0.568056 0.259393
vn 0.757066 0.652123 -0.0398375
v 0.190038 0.167917 -0.0854829 0.437442 0.568056 0.259393
vn 0.699855 -0.710134 -0.0768933
v 0.190043 0.167924 -0.0854829 0.437442 0.568056 0.259393
vn 0.79397 0.607909 -0.00764467
v 0.159939 0.202044 -0.0462215 0.437442 0.568056 0.259393
vn 0.740498 0.672033 -0.00580823
v 0.136965 0.227565 0.0254434 0.437442 0.568056 0.259393
vn 0.736454 0.676481 -0.00310854
v 0.136829 0.227882 0.105194 0.437442 0.568056 0.259393
vn 0.734678 0.678415 -0.00129807
v 0.136671 0.228174 0.178057 0.437442 0.568056 0.259393
vn 0.73149 0.681852 0.00051151
v 0.144929 0.219036 0.188 0.437442 0.568056 0.259393
vn 0.739899 0.672707 0.00378281
v 0.15396 0.209042 0.198841 0.437442 0.568056 0.259393
vn 0.740479 0.672066 0.00425285
v 0.156171 0.206461 0.217917 0.437442 0.568056 0.259393
vn 0.741192 0.665737 0.0861822
v 0.185271 0.173307 -0.0879686 0.437442 0.568056 0.259393
vn 0.744939 0.666576 -0.0272438
v 0.132909 0.224192 -0.0632018 0.437442 0.568056 0.259393
vn -1 0.00059248 0.000547884
v 0.13353 0.225651 0.217917 0.437442 0.568056 0.259393
vn -0.640053 0.732362 0.232333
v 0.136248 0.227098 -0.0879686 0.437442 0.568056 0.259393
vn -0.614241 0.738155 -0.278991
v 0.132909 0.22416 -0.0744023 0.437442 0.568056 0.259393
vn -0.709461 0.704741 -0.00237189
v 0.133095 0.224244 -0.0874595 0.437442 0.568056 0.259393
vn -0.673069 0.739563 -0.00499226
v 0.133095 0.224237 -0.0879686 0.437442 0.568056 0.259393
vn -0.044 0.00275958 -0.999028
v 0.168535 0.191959 -0.0879686 0.437442 0.568056 0.259393
vn 0.736934 0.661229 -0.140376
v 0.161073 0.200306 -0.0854829 0.437442 0.568056 0.259393
vn 0.743262 0.66895 -0.00822737
v 0.157976 0.203691 -0.0879686 0.437442 0.568056 0.259393
vn 0.738853 0.671589 -0.0553647
v 0.136553 0.227402 -0.07569 0.437442 0.568056 0.259393
vn 0.550572 0.834761 -0.00666614
v 0.13657 0.227454 -0.0632018 0.437442 0.568056 0.259393
vn -0.202602 0.979255 -0.00362347
v 0.136609 0.22759 -0.0280133 0.437442 0.568056 0.259393
vn 0.0350767 0.99938 -0.0030126
v 0.136406 0.228161 0.217917 0.437442 0.568056 0.259393
vn -0.276385 0.912864 0.300485
v 0.144749 0.219036 0.214683 0.437442 0.568056 0.259393
vn 0.739117 0.673558 0.00506274
v 0.144726 0.219036 0.217917 0.437442 0.568056 0.259393
vn 0.61227 0.557359 0.560782
v 0.152115 0.210125 -0.0879686 0.437442 0.568056 0.259393
vn 0.374993 0.349004 -0.858823
v 0.136316 0.227162 -0.0854829 0.437442 0.568056 0.259393
vn 0.729841 0.68269 -0.035585
v 0.161141 0.200196 -0.0879686 0.437442 0.568056 0.259393
vn 0.29869 0.268826 -0.915706
v 0.148945 0.213653 -0.0854829 0.437442 0.568056 0.259393
vn 0.73321 0.679474 -0.0267893
f 1//1 2//2 3//3
f 1//1 3//3 4//4
f 1//1 4//4 5//5
f 1//1 5//5 6//6
f 1//1 6//6 7//7
f 1//1 7//7 8//8
f 1//1 8//8 9//9
f 1//1 9//9 10//10
f 1//1 10//10 11//11
f 1//1 11//11 2//2
f 2//2 12//12 3//3
f 2//2 11//11 12//12
f 3//3 12//12 4//4
f 4//4 12//12 22//22
f 4//4 22//22 40//40
f 4//4 40//40 56//56
f 4//4 56//56 54//54
f 4//4 54//54 43//43
f 4//4 43//43 23//23
f 4//4 23//23 13//13
f 4//4 13//13 14//14
f 4//4 14//14 5//5
f 5//5 14//14 6//6
f 6//6 14//14 15//15
f 6//6 15//15 7//7
f 7//7 9//9 8//8
f 7//7 15//15 9//9
f 9//9 15//15 16//16
f 9//9 16//16 17//17
f 9//9 17//17 18//18
f 9//9 18//18 10//10
f 10//10 18//18 19//19
f 10//10 19//19 20//20
f 10//10 20//20 11//11
f 11//11 21//21 12//12
f 11//11 20//20 21//21
f 12//12 21//21 22//22
f 13//13 23//23 42//42
f 13//13 42//42 24//24
f 13//13 24//24 14//14
f 14//14 24//24 15//15
f 15//15 25//25 47//47
f 15//15 47//47 26//26
f 15//15 26//26 27//27
f 15//15 27//27 28//28
f 15//15 28//28 29//29
f 15//15 29//29 16//16
f 15//15 24//24 42//42
f 15//15 42//42 45//45
f 15//15 45//45 25//25
f 16//16 29//29 28//28
f 16//16 28//28 17//17
f 17//17 28//28 18//18
f 18//18 28//28 27//27
f 18//18 27//27 26//26
f 18//18 26//26 47//47
f 18//18 47//47 44//44
f 18//18 44//44 57//57
f 18//18 57//57 50//50
f 18//18 50//50 59//59
f 18//18 59//59 48//48
f 18//18 48//48 41//41
f 18//18 41//41 31//31
f 18//18 31//31 30//30
f 18//18 30//30 19//19
f 19//19 30//30 31//31
f 19//19 31//31 32//32
f 19//19 32//32 20//20
f 20//20 32//32 33//33
f 20//20 33//33 21//21
f 21//21 34//34 35//35
f 21//21 35//35 36//36
f 21//21 36//36 37//37
f 21//21 37//37 38//38
f 21//21 38//38 39//39
f 21//21 39//39 40//40
f 21//21 40//40 22//22
f 21//21 33//33 31//31
f 21//21 31//31 41//41
f 21//21 41//41 34//34
f 23//23 43//43 44//44
f 23//23 44//44 45//45
f 23//23 45//45 42//42
f 25//25 45//45 46//46
f 25//25 46//46 47//47
f 31//31 33//33 32//32
f 34//34 41//41 48//48
f 34//34 48//48 49//49
f 34//34 49//49 50//50
f 34//34 50//50 51//51
f 34//34 51//51 35//35
f 35//35 52//52 53//53
f 35//35 53//53 36//36
f 35//35 51//51 52//52
f 36//36 53//53 37//37
f 37//37 53//53 54//54
f 37//37 54//54 55//55
f 37//37 55//55 38//38
f 38//38 55//55 39//39
f 39//39 55//55 56//56
f 39//39 56//56 40//40
f 43//43 54//54 51//51
f 43//43 51//51 44//44
f 44//44 47//47 46//46
f 44//44 46//46 45//45
f 44//44 51//51 58//58
f 44//44 58//58 57//57
f 48//48 59//59 49//49
f 49//49 59//59 50//50
f 50//50 57//57 60//60
f 50//50 60//60 51//51
f 51//51 60//60 58//58
f 51//51 54//54 52//52
f 52//52 54//54 53//53
f 54//54 56//56 55//55
f 57//57 58//58 60//60
