# Created by Open3D 
# object name: bottom_watertight_tiny_part3
# number of vertices: 62
# number of triangles: 120
v 0.136191 0.227109 -0.0880033 0.450632 0.734006 0.00633115
vn -0.070091 0.166122 0.983611
v 0.145661 0.128174 -0.0858747 0.450632 0.734006 0.00633115
vn 0.0879806 -0.0725661 0.993476
v 0.184129 0.162949 -0.0870692 0.450632 0.734006 0.00633115
vn 0.0262775 0.0238901 0.999369
v 0.152061 0.210061 -0.0880033 0.450632 0.734006 0.00633115
vn 0.518319 0.47921 0.70831
v 0.161273 0.199828 -0.0952944 0.450632 0.734006 0.00633115
vn 0.104642 0.110658 -0.988334
v 0.134432 0.225443 -0.0945976 0.450632 0.734006 0.00633115
vn -0.562159 0.725498 -0.397027
v -0.0382638 0.0710699 -0.0862672 0.450632 0.734006 0.00633115
vn -0.666756 0.745235 -0.00780711
v 0.0708112 0.168602 -0.0862672 0.450632 0.734006 0.00633115
vn -0.0091889 0.024785 0.999651
v 0.175737 0.154951 -0.0954967 0.450632 0.734006 0.00633115
vn 0.343697 -0.367251 -0.864291
v 0.189919 0.168011 -0.0880033 0.450632 0.734006 0.00633115
vn 0.754977 -0.642747 0.129947
v 0.1052 0.0925003 -0.0855152 0.450632 0.734006 0.00633115
vn -0.00343232 0.00224787 0.999992
v 0.0754527 0.0651317 -0.0858216 0.450632 0.734006 0.00633115
vn 0.446934 -0.517794 0.729479
v 0.0849701 0.0735022 -0.0882837 0.450632 0.734006 0.00633115
vn 0.66728 -0.743336 0.0467819
v 0.0963863 0.083582 -0.0912464 0.450632 0.734006 0.00633115
vn 0.66806 -0.744098 0.00384522
v 0.183074 0.17568 -0.0880033 0.450632 0.734006 0.00633115
vn 0.537023 0.481299 0.692789
v 0.161109 0.200156 -0.0880033 0.450632 0.734006 0.00633115
vn 0.658817 0.593362 0.462473
v 0.132815 0.165863 -0.0956329 0.450632 0.734006 0.00633115
vn 0.00462864 0.00574489 -0.999973
v 0.132815 0.174497 -0.0955808 0.450632 0.734006 0.00633115
vn -0.00343257 0.0151316 -0.99988
v 0.106185 0.199784 -0.0950281 0.450632 0.734006 0.00633115
vn -0.0097015 0.0198872 -0.999755
v 0.189521 0.168405 -0.0950391 0.450632 0.734006 0.00633115
vn 0.537793 0.304212 -0.786279
v 0.0351561 0.136457 -0.0953315 0.450632 0.734006 0.00633115
vn -0.0123314 0.0157982 -0.999799
v 0.0548942 0.154206 -0.0951112 0.450632 0.734006 0.00633115
vn -0.651745 0.728887 -0.209647
v -0.0344193 0.0743787 -0.0948659 0.450632 0.734006 0.00633115
vn -0.273651 0.290128 -0.917028
v -0.0495628 0.0609245 -0.0862662 0.450632 0.734006 0.00633115
vn -0.0426797 -0.00997781 0.999039
v 0.0146445 0.118204 -0.0862642 0.450632 0.734006 0.00633115
vn -0.00628807 0.00703876 0.999955
v 0.0300927 0.0243087 -0.0945675 0.450632 0.734006 0.00633115
vn 0.661591 -0.741818 -0.109565
v 0.152787 0.13455 -0.0956419 0.450632 0.734006 0.00633115
vn 0.0275892 -0.0274243 -0.999243
v 0.129674 0.162555 -0.0956549 0.450632 0.734006 0.00633115
vn 0.00360846 0.00254456 -0.99999
v 0.000391836 0.00447792 -0.0862682 0.450632 0.734006 0.00633115
vn -0.0187341 -0.0465138 0.998742
v 0.00665081 0.00325081 -0.0883498 0.450632 0.734006 0.00633115
vn 0.580732 -0.748554 0.320028
v 0.0172231 0.012717 -0.0884219 0.450632 0.734006 0.00633115
vn 0.667038 -0.743684 0.0446634
v 0.125337 0.167792 -0.0956559 0.450632 0.734006 0.00633115
vn -0.00732179 0.0123415 -0.999897
v 0.0346873 0.131658 -0.0953495 0.450632 0.734006 0.00633115
vn -0.00793252 0.00415231 -0.99996
v 0.0303271 0.126355 -0.0953355 0.450632 0.734006 0.00633115
vn -0.0120779 0.00612963 -0.999908
v 0.0297645 0.131658 -0.0952754 0.450632 0.734006 0.00633115
vn -0.640134 0.715344 -0.280198
v 0.101145 0.147172 -0.0956419 0.450632 0.734006 0.00633115
vn -0.00424144 0.00423367 -0.999982
v 0.0476975 0.119957 -0.0954997 0.450632 0.734006 0.00633115
vn -0.00575539 0.00580958 -0.999967
v -0.0116807 0.0812812 -0.0950972 0.450632 0.734006 0.00633115
vn -0.00919571 -0.00301964 -0.999953
v 0.0606374 0.0580977 -0.0955948 0.450632 0.734006 0.00633115
vn -0.00695476 -0.00655483 -0.999954
v -0.027082 0.0502531 -0.0947708 0.450632 0.734006 0.00633115
vn -0.0118548 -0.00778082 -0.999899
v -0.0401157 0.0502531 -0.0943392 0.450632 0.734006 0.00633115
vn -0.469039 -0.382229 -0.796181
v -0.0479922 0.0621516 -0.0942441 0.450632 0.734006 0.00633115
vn -0.566358 0.115912 -0.815967
v 0.0272797 0.119957 -0.0953375 0.450632 0.734006 0.00633115
vn -0.00969026 0.00484463 -0.999941
v 0.0186062 0.101879 -0.0953405 0.450632 0.734006 0.00633115
vn -0.0115032 0.00559565 -0.999918
v -0.019018 0.0261055 -0.0881685 0.450632 0.734006 0.00633115
vn -0.748551 -0.663059 0.00493482
v 0.0141522 0.0106572 -0.0945065 0.450632 0.734006 0.00633115
vn 0.400952 -0.590482 -0.700406
v 0.0409463 0.0345418 -0.0950972 0.450632 0.734006 0.00633115
vn 0.0469129 -0.0705275 -0.996406
v 0.0892365 0.07806 -0.0957019 0.450632 0.734006 0.00633115
vn 0.0344885 -0.0414529 -0.998545
v 0.107545 0.107072 -0.095744 0.450632 0.734006 0.00633115
vn -0.00050308 0.000658203 -1
v 0.12379 0.162555 -0.0956649 0.450632 0.734006 0.00633115
vn 0.000318991 0.00134412 -0.999999
v 0.000626256 0.00430262 -0.0945695 0.450632 0.734006 0.00633115
vn -0.17183 -0.26815 -0.947929
v 0.0559959 0.108847 -0.0956118 0.450632 0.734006 0.00633115
vn -0.00515469 0.00154141 -0.999986
v 0.0708112 0.119957 -0.0956249 0.450632 0.734006 0.00633115
vn -0.00248991 0.00214931 -0.999995
v 0.0129332 0.0889943 -0.0953455 0.450632 0.734006 0.00633115
vn -0.00835099 -0.00220863 -0.999963
v 0.0679513 0.0631814 -0.0956239 0.450632 0.734006 0.00633115
vn 0.00125544 -0.00720395 -0.999973
v 0.0154415 0.0257549 -0.094919 0.450632 0.734006 0.00633115
vn -0.00700514 -0.0112428 -0.999912
v -0.00551551 0.026741 -0.0947788 0.450632 0.734006 0.00633115
vn -0.00726906 -0.010936 -0.999914
v -0.0190649 0.0262808 -0.0946737 0.450632 0.734006 0.00633115
vn -0.106652 -0.0933879 -0.989901
v 0.021677 0.0929605 -0.0954016 0.450632 0.734006 0.00633115
vn -0.00645858 0.000608819 -0.999979
v 0.021677 0.101879 -0.0953655 0.450632 0.734006 0.00633115
vn -0.00810664 0.00405593 -0.999959
v 0.0708112 0.095086 -0.0956529 0.450632 0.734006 0.00633115
vn -0.00285827 -0.000159041 -0.999996
v -0.00551551 0.0111612 -0.0946026 0.450632 0.734006 0.00633115
vn -0.00737319 -0.0113435 -0.999908
f 1//1 2//2 3//3
f 1//1 3//3 4//4
f 1//1 4//4 5//5
f 1//1 5//5 6//6
f 1//1 6//6 7//7
f 1//1 7//7 8//8
f 1//1 8//8 2//2
f 2//2 9//9 10//10
f 2//2 10//10 3//3
f 2//2 8//8 11//11
f 2//2 11//11 12//12
f 2//2 12//12 13//13
f 2//2 13//13 14//14
f 2//2 14//14 9//9
f 3//3 10//10 15//15
f 3//3 15//15 16//16
f 3//3 16//16 4//4
f 4//4 16//16 5//5
f 5//5 9//9 17//17
f 5//5 17//17 18//18
f 5//5 18//18 19//19
f 5//5 19//19 6//6
f 5//5 16//16 20//20
f 5//5 20//20 9//9
f 6//6 19//19 21//21
f 6//6 21//21 22//22
f 6//6 22//22 23//23
f 6//6 23//23 7//7
f 7//7 23//23 24//24
f 7//7 24//24 8//8
f 8//8 24//24 25//25
f 8//8 25//25 11//11
f 9//9 20//20 10//10
f 9//9 14//14 26//26
f 9//9 26//26 27//27
f 9//9 27//27 28//28
f 9//9 28//28 17//17
f 10//10 20//20 15//15
f 11//11 25//25 24//24
f 11//11 24//24 29//29
f 11//11 29//29 12//12
f 12//12 29//29 30//30
f 12//12 30//30 31//31
f 12//12 31//31 13//13
f 13//13 31//31 14//14
f 14//14 31//31 30//30
f 14//14 30//30 26//26
f 15//15 20//20 16//16
f 17//17 28//28 32//32
f 17//17 32//32 18//18
f 18//18 32//32 19//19
f 19//19 32//32 21//21
f 21//21 33//33 34//34
f 21//21 34//34 23//23
f 21//21 23//23 35//35
f 21//21 35//35 22//22
f 21//21 32//32 36//36
f 21//21 36//36 37//37
f 21//21 37//37 33//33
f 22//22 35//35 23//23
f 23//23 38//38 39//39
f 23//23 39//39 40//40
f 23//23 40//40 41//41
f 23//23 41//41 42//42
f 23//23 42//42 24//24
f 23//23 34//34 43//43
f 23//23 43//43 44//44
f 23//23 44//44 38//38
f 24//24 42//42 41//41
f 24//24 41//41 45//45
f 24//24 45//45 29//29
f 26//26 30//30 46//46
f 26//26 46//46 47//47
f 26//26 47//47 48//48
f 26//26 48//48 27//27
f 27//27 48//48 49//49
f 27//27 49//49 50//50
f 27//27 50//50 28//28
f 28//28 50//50 32//32
f 29//29 45//45 51//51
f 29//29 51//51 30//30
f 30//30 51//51 46//46
f 32//32 50//50 36//36
f 33//33 37//37 52//52
f 33//33 52//52 43//43
f 33//33 43//43 34//34
f 36//36 50//50 49//49
f 36//36 49//49 53//53
f 36//36 53//53 52//52
f 36//36 52//52 37//37
f 38//38 44//44 54//54
f 38//38 54//54 39//39
f 39//39 55//55 47//47
f 39//39 47//47 51//51
f 39//39 51//51 56//56
f 39//39 56//56 57//57
f 39//39 57//57 58//58
f 39//39 58//58 40//40
f 39//39 54//54 59//59
f 39//39 59//59 52//52
f 39//39 52//52 55//55
f 40//40 58//58 41//41
f 41//41 58//58 45//45
f 43//43 52//52 59//59
f 43//43 59//59 60//60
f 43//43 60//60 44//44
f 44//44 60//60 59//59
f 44//44 59//59 54//54
f 45//45 58//58 51//51
f 46//46 51//51 47//47
f 47//47 55//55 48//48
f 48//48 55//55 61//61
f 48//48 61//61 49//49
f 49//49 61//61 52//52
f 49//49 52//52 53//53
f 51//51 58//58 62//62
f 51//51 62//62 57//57
f 51//51 57//57 56//56
f 52//52 61//61 55//55
f 57//57 62//62 58//58
