# Created by Open3D 
# object name: bottom_watertight_tiny_part7
# number of vertices: 20
# number of triangles: 36
v -0.0404287 0.0648575 0.235582 0.597445 0.993479 0.00283183
vn 0.461796 0.56577 0.683117
v -0.0416356 0.0648575 0.213874 0.597445 0.993479 0.00283183
vn 0.604737 0.594758 -0.529676
v -0.0475009 0.0648575 0.235582 0.597445 0.993479 0.00283183
vn -0.242279 0.966873 0.0803602
v -0.00214716 0.0229466 0.235582 0.597445 0.993479 0.00283183
vn 0.752074 0.658105 -0.0357946
v -0.0476291 0.0648575 0.213874 0.597445 0.993479 0.00283183
vn -0.229902 0.972895 -0.0249268
v -0.0156384 0.035317 0.213874 0.597445 0.993479 0.00283183
vn 0.748377 0.656635 -0.0936067
v -0.0500837 0.0624381 0.235582 0.597445 0.993479 0.00283183
vn -0.863437 -0.493791 0.10318
v 0.00920438 0.0079836 0.235582 0.597445 0.993479 0.00283183
vn 0.332827 -0.073065 0.940153
v 0.00842312 0.00780481 0.213874 0.597445 0.993479 0.00283183
vn 0.765943 0.638279 -0.0770211
v -0.049454 0.0631477 0.213874 0.597445 0.993479 0.00283183
vn -0.672661 0.717261 -0.181836
v -0.0503519 0.0623041 0.213874 0.597445 0.993479 0.00283183
vn -0.906121 -0.196634 -0.374539
v -0.0489059 0.0606223 0.213874 0.597445 0.993479 0.00283183
vn -0.710486 -0.61342 -0.344855
v -0.0303948 0.0391891 0.213874 0.597445 0.993479 0.00283183
vn -0.750354 -0.652335 -0.106902
v -0.0459209 0.0576274 0.235582 0.597445 0.993479 0.00283183
vn -0.694204 -0.603333 0.392518
v -0.00484658 0.0107047 0.235582 0.597445 0.993479 0.00283183
vn -0.245421 -0.668118 0.702415
v 0.00842896 0.00777687 0.213874 0.597445 0.993479 0.00283183
vn -0.132547 -0.686689 -0.714765
v -0.0302666 0.0390438 0.213874 0.597445 0.993479 0.00283183
vn -0.695857 -0.618822 -0.364476
v -0.0110791 0.0177112 0.235582 0.597445 0.993479 0.00283183
vn -0.732873 -0.648312 0.20637
v -0.0281152 0.0371609 0.235582 0.597445 0.993479 0.00283183
vn -0.692266 -0.60426 0.39451
v -0.0047358 0.0103359 0.213874 0.597445 0.993479 0.00283183
vn -0.522134 -0.612917 -0.59305
f 1//1 2//2 5//5
f 1//1 5//5 3//3
f 1//1 3//3 7//7
f 1//1 7//7 14//14
f 1//1 14//14 19//19
f 1//1 19//19 18//18
f 1//1 18//18 15//15
f 1//1 15//15 8//8
f 1//1 8//8 4//4
f 1//1 4//4 2//2
f 2//2 4//4 6//6
f 2//2 6//6 9//9
f 2//2 9//9 16//16
f 2//2 16//16 20//20
f 2//2 20//20 17//17
f 2//2 17//17 13//13
f 2//2 13//13 12//12
f 2//2 12//12 11//11
f 2//2 11//11 10//10
f 2//2 10//10 5//5
f 3//3 5//5 7//7
f 4//4 8//8 9//9
f 4//4 9//9 6//6
f 5//5 10//10 7//7
f 7//7 11//11 12//12
f 7//7 12//12 13//13
f 7//7 13//13 14//14
f 7//7 10//10 11//11
f 8//8 15//15 16//16
f 8//8 16//16 9//9
f 13//13 17//17 18//18
f 13//13 18//18 19//19
f 13//13 19//19 14//14
f 15//15 20//20 16//16
f 15//15 18//18 20//20
f 17//17 20//20 18//18
