# Created by Open3D 
# object name: bottom_watertight_tiny_part6
# number of vertices: 21
# number of triangles: 38
v 0.133057 0.217165 0.2351 0.815147 0.687986 0.329308
vn -0.706879 -0.558003 0.43469
v 0.133057 0.224949 0.2351 0.815147 0.687986 0.329308
vn -0.765123 0.253483 0.591889
v 0.133057 0.219842 0.217949 0.815147 0.687986 0.329308
vn -0.531195 -0.427728 -0.731355
v 0.183517 0.162584 0.217949 0.815147 0.687986 0.329308
vn -0.669646 -0.663677 -0.333328
v 0.182552 0.161288 0.2351 0.815147 0.687986 0.329308
vn -0.50591 -0.743671 0.437046
v 0.136569 0.227764 0.2351 0.815147 0.687986 0.329308
vn 0.13704 0.476782 0.868273
v 0.133057 0.225296 0.231618 0.815147 0.687986 0.329308
vn -0.923218 0.383706 0.0209096
v 0.133057 0.22525 0.217949 0.815147 0.687986 0.329308
vn -0.985945 0.122308 -0.113817
v 0.189927 0.168398 0.217949 0.815147 0.687986 0.329308
vn 0.690162 0.333267 -0.642347
v 0.189999 0.168254 0.2351 0.815147 0.687986 0.329308
vn 0.403737 0.153633 0.901883
v 0.136329 0.228157 0.22919 0.815147 0.687986 0.329308
vn 0.529296 0.848362 0.0113177
v 0.14396 0.219718 0.2351 0.815147 0.687986 0.329308
vn 0.379091 0.348083 0.857396
v 0.133057 0.225283 0.223795 0.815147 0.687986 0.329308
vn -0.91221 0.40972 -0.00168796
v 0.136402 0.228163 0.217949 0.815147 0.687986 0.329308
vn 0.238455 0.771453 -0.589914
v 0.163613 0.198088 0.217949 0.815147 0.687986 0.329308
vn 0.671962 0.595711 -0.439994
v 0.172291 0.188254 0.2351 0.815147 0.687986 0.329308
vn 0.718591 0.637252 0.278455
v 0.14396 0.219751 0.233572 0.815147 0.687986 0.329308
vn 0.739146 0.67352 0.00586588
v 0.14396 0.219875 0.217949 0.815147 0.687986 0.329308
vn 0.686408 0.625631 -0.370716
v 0.146613 0.216818 0.2351 0.815147 0.687986 0.329308
vn 0.113846 0.103809 0.98806
v 0.156183 0.206461 0.217949 0.815147 0.687986 0.329308
vn 0.729135 0.656575 -0.193056
v 0.158167 0.204137 0.2351 0.815147 0.687986 0.329308
vn 0.660382 0.594484 0.458785
f 1//1 2//2 7//7
f 1//1 7//7 13//13
f 1//1 13//13 8//8
f 1//1 8//8 3//3
f 1//1 3//3 4//4
f 1//1 4//4 5//5
f 1//1 5//5 10//10
f 1//1 10//10 16//16
f 1//1 16//16 21//21
f 1//1 21//21 19//19
f 1//1 19//19 12//12
f 1//1 12//12 6//6
f 1//1 6//6 2//2
f 2//2 6//6 7//7
f 3//3 8//8 14//14
f 3//3 14//14 18//18
f 3//3 18//18 20//20
f 3//3 20//20 15//15
f 3//3 15//15 9//9
f 3//3 9//9 4//4
f 4//4 9//9 5//5
f 5//5 9//9 10//10
f 6//6 11//11 7//7
f 6//6 12//12 11//11
f 7//7 11//11 13//13
f 8//8 13//13 14//14
f 9//9 15//15 16//16
f 9//9 16//16 10//10
f 11//11 14//14 13//13
f 11//11 12//12 17//17
f 11//11 17//17 18//18
f 11//11 18//18 14//14
f 12//12 19//19 17//17
f 15//15 20//20 16//16
f 16//16 20//20 21//21
f 17//17 19//19 21//21
f 17//17 21//21 20//20
f 17//17 20//20 18//18
