# Created by Open3D 
# object name: top_watertight_tiny_part0
# number of vertices: 63
# number of triangles: 122
v 0.188039 0.167594 -0.0832336 0.770127 0.429662 0.672187
vn 0.147465 0.264436 0.953062
v 0.187468 0.167521 -0.0898041 0.770127 0.429662 0.672187
vn -0.128163 0.969277 -0.209944
v 0.186326 0.166641 -0.0832336 0.770127 0.429662 0.672187
vn -0.666367 0.742498 0.0681995
v 0.190776 0.16545 -0.0832336 0.770127 0.429662 0.672187
vn 0.663137 0.595862 0.452988
v 0.192135 0.163727 -0.0926461 0.770127 0.429662 0.672187
vn 0.435151 0.490325 -0.755132
v 0.185696 0.165743 -0.0908176 0.770127 0.429662 0.672187
vn -0.199293 0.487905 -0.849841
v 0.183117 0.163654 -0.0906243 0.770127 0.429662 0.672187
vn -0.66202 0.743253 -0.0964565
v 0.180341 0.160556 -0.0832336 0.770127 0.429662 0.672187
vn -0.036935 0.0246082 0.999015
v 0.126157 0.11268 -0.0916882 0.770127 0.429662 0.672187
vn -0.66794 0.743622 -0.0297193
v 0.130922 0.11695 -0.090659 0.770127 0.429662 0.672187
vn -0.668839 0.743228 0.0163295
v 0.00638858 0.00479335 -0.0868791 0.770127 0.429662 0.672187
vn -0.238487 0.233651 0.942619
v 0.1956 0.147285 -0.0832336 0.770127 0.429662 0.672187
vn 2.43723e-05 -2.86316e-05 1
v 0.206744 0.147157 -0.0832347 0.770127 0.429662 0.672187
vn 0.638429 0.0995503 0.763216
v 0.206645 0.147194 -0.0924612 0.770127 0.429662 0.672187
vn 0.622061 0.0483912 -0.781472
v 0.183117 0.156194 -0.0932017 0.770127 0.429662 0.672187
vn 0.0345947 0.0083783 -0.999366
v 0.183117 0.159804 -0.0931113 0.770127 0.429662 0.672187
vn -0.0663477 0.258518 -0.963725
v 0.178982 0.157807 -0.0933287 0.770127 0.429662 0.672187
vn -0.171714 0.219495 -0.960383
v 0.161814 0.143766 -0.0921997 0.770127 0.429662 0.672187
vn -0.566351 0.645707 -0.512161
v 0.170713 0.152509 -0.0909993 0.770127 0.429662 0.672187
vn -0.588294 0.667268 -0.456797
v 0.130941 0.0835544 -0.0832347 0.770127 0.429662 0.672187
vn -0.0415883 0.0211953 0.99891
v 0.130941 0.0786422 -0.0832347 0.770127 0.429662 0.672187
vn 0.0569799 -0.0681388 0.996047
v 0.0959342 0.0851858 -0.0929664 0.770127 0.429662 0.672187
vn -0.589713 0.664374 -0.45918
v 0.00640825 0.00481168 -0.0932521 0.770127 0.429662 0.672187
vn -0.657743 0.695525 -0.289169
v 0.005601 -0.00219012 -0.0933319 0.770127 0.429662 0.672187
vn -0.335875 -0.21499 -0.917043
v 0.00591603 0.000339326 -0.0868791 0.770127 0.429662 0.672187
vn -0.334552 0.0331725 0.941793
v 0.025546 -0.00970514 -0.0859822 0.770127 0.429662 0.672187
vn -0.0359027 0.00995847 0.999306
v 0.188728 0.130496 -0.0832347 0.770127 0.429662 0.672187
vn 0.614843 -0.683552 0.39335
v 0.195305 0.136416 -0.0832347 0.770127 0.429662 0.672187
vn 0.629117 -0.678237 0.379746
v 0.192095 0.133593 -0.0928729 0.770127 0.429662 0.672187
vn 0.658156 -0.718785 -0.224006
v 0.19054 0.136453 -0.0929286 0.770127 0.429662 0.672187
vn 0.0288116 -0.00334504 -0.999579
v 0.183452 0.149522 -0.0931754 0.770127 0.429662 0.672187
vn 0.0225167 -0.00654289 -0.999725
v 0.164019 0.142447 -0.093543 0.770127 0.429662 0.672187
vn 0.0155788 -0.00672166 -0.999856
v 0.119541 0.103643 -0.0938581 0.770127 0.429662 0.672187
vn -0.00457348 0.011706 -0.999921
v 0.152698 0.134767 -0.0934254 0.770127 0.429662 0.672187
vn -0.328447 0.375347 -0.866739
v 0.157561 0.139569 -0.0927732 0.770127 0.429662 0.672187
vn -0.563092 0.641345 -0.521157
v 0.025546 -0.0161387 -0.0859822 0.770127 0.429662 0.672187
vn -0.0318881 -0.0146382 0.999384
v 0.0262745 -0.0154972 -0.0859822 0.770127 0.429662 0.672187
vn 0.659328 -0.738775 0.139635
v 0.0503148 0.00596643 -0.0859822 0.770127 0.429662 0.672187
vn 0.668303 -0.74387 0.00541214
v 0.077013 0.0676079 -0.0937415 0.770127 0.429662 0.672187
vn -0.509977 0.573223 -0.641357
v 0.053721 0.0465842 -0.0939011 0.770127 0.429662 0.672187
vn -0.0710982 0.0767018 -0.994516
v 0.025546 0.0180638 -0.0936417 0.770127 0.429662 0.672187
vn -0.0385861 0.0264125 -0.998906
v 0.00567977 -0.00235508 -0.0868791 0.770127 0.429662 0.672187
vn -0.404764 -0.295774 0.865265
v 0.025546 0.0163592 -0.0936669 0.770127 0.429662 0.672187
vn 0.00343068 -0.0216997 -0.999759
v 0.0215885 -0.0196213 -0.0928372 0.770127 0.429662 0.672187
vn 0.160648 -0.342039 -0.925852
v 0.0194818 -0.0174401 -0.0868791 0.770127 0.429662 0.672187
vn -0.686388 -0.629636 0.363911
v 0.188689 0.130496 -0.0904993 0.770127 0.429662 0.672187
vn 0.668889 -0.743343 -0.00529477
v 0.056694 0.0117585 -0.0931712 0.770127 0.429662 0.672187
vn 0.662111 -0.73768 -0.132049
v 0.18865 0.130496 -0.092917 0.770127 0.429662 0.672187
vn 0.255141 -0.272549 -0.927696
v 0.182428 0.133502 -0.0930756 0.770127 0.429662 0.672187
vn 0.020717 -0.00966684 -0.999739
v 0.182428 0.137241 -0.0931092 0.770127 0.429662 0.672187
vn 0.0214189 -0.00762294 -0.999742
v 0.16138 0.106136 -0.0932437 0.770127 0.429662 0.672187
vn 0.0201563 -0.0108213 -0.999738
v 0.117966 0.0671864 -0.0936575 0.770127 0.429662 0.672187
vn 0.0264928 -0.0243419 -0.999353
v 0.103534 0.0878435 -0.0939085 0.770127 0.429662 0.672187
vn 0.00414614 -0.00110237 -0.999991
v 0.025546 -0.0161387 -0.0870429 0.770127 0.429662 0.672187
vn 0.665232 -0.746616 -0.00556542
v 0.0215491 -0.019658 -0.0868791 0.770127 0.429662 0.672187
vn 0.205781 -0.915312 0.346207
v 0.0852234 0.0698441 -0.0939631 0.770127 0.429662 0.672187
vn 0.00647318 -0.00896612 -0.999939
v 0.039919 0.0311143 -0.0938255 0.770127 0.429662 0.672187
vn -0.00501364 -0.000428311 -0.999987
v 0.0326931 0.0230127 -0.0937856 0.770127 0.429662 0.672187
vn 0.0067493 -0.0162645 -0.999845
v 0.025546 -0.00438964 -0.0931765 0.770127 0.429662 0.672187
vn 0.00883188 -0.0245377 -0.99966
v 0.0693934 0.0311143 -0.0936417 0.770127 0.429662 0.672187
vn 0.00795615 -0.0182399 -0.999802
v 0.0753395 0.0324523 -0.0936186 0.770127 0.429662 0.672187
vn 0.0167895 -0.023637 -0.99958
v 0.025546 -0.0160654 -0.0928771 0.770127 0.429662 0.672187
vn 0.0502443 -0.0668159 -0.996499
v 0.0856565 0.0380244 -0.0934222 0.770127 0.429662 0.672187
vn 0.0625345 -0.0778572 -0.995001
f 1//1 2//2 3//3
f 1//1 3//3 8//8
f 1//1 8//8 12//12
f 1//1 12//12 4//4
f 1//1 4//4 5//5
f 1//1 5//5 2//2
f 2//2 6//6 7//7
f 2//2 7//7 3//3
f 2//2 5//5 6//6
f 3//3 7//7 9//9
f 3//3 9//9 10//10
f 3//3 10//10 11//11
f 3//3 11//11 8//8
f 4//4 12//12 13//13
f 4//4 13//13 14//14
f 4//4 14//14 5//5
f 5//5 14//14 15//15
f 5//5 15//15 16//16
f 5//5 16//16 6//6
f 6//6 16//16 17//17
f 6//6 17//17 7//7
f 7//7 17//17 18//18
f 7//7 18//18 19//19
f 7//7 19//19 9//9
f 8//8 20//20 21//21
f 8//8 21//21 12//12
f 8//8 11//11 20//20
f 9//9 22//22 23//23
f 9//9 23//23 11//11
f 9//9 11//11 10//10
f 9//9 19//19 22//22
f 11//11 23//23 24//24
f 11//11 24//24 25//25
f 11//11 25//25 26//26
f 11//11 26//26 20//20
f 12//12 27//27 28//28
f 12//12 28//28 13//13
f 12//12 21//21 27//27
f 13//13 28//28 14//14
f 14//14 28//28 29//29
f 14//14 29//29 30//30
f 14//14 30//30 15//15
f 15//15 17//17 16//16
f 15//15 30//30 31//31
f 15//15 31//31 17//17
f 17//17 32//32 33//33
f 17//17 33//33 34//34
f 17//17 34//34 35//35
f 17//17 35//35 18//18
f 17//17 31//31 32//32
f 18//18 35//35 22//22
f 18//18 22//22 19//19
f 20//20 26//26 36//36
f 20//20 36//36 21//21
f 21//21 36//36 37//37
f 21//21 37//37 38//38
f 21//21 38//38 27//27
f 22//22 39//39 23//23
f 22//22 35//35 34//34
f 22//22 34//34 39//39
f 23//23 39//39 40//40
f 23//23 40//40 41//41
f 23//23 41//41 24//24
f 24//24 42//42 25//25
f 24//24 41//41 43//43
f 24//24 43//43 44//44
f 24//24 44//44 45//45
f 24//24 45//45 42//42
f 25//25 42//42 26//26
f 26//26 42//42 36//36
f 27//27 46//46 28//28
f 27//27 38//38 46//46
f 28//28 46//46 29//29
f 29//29 46//46 47//47
f 29//29 47//47 48//48
f 29//29 48//48 49//49
f 29//29 49//49 50//50
f 29//29 50//50 30//30
f 30//30 50//50 31//31
f 31//31 50//50 32//32
f 32//32 50//50 49//49
f 32//32 49//49 51//51
f 32//32 51//51 52//52
f 32//32 52//52 33//33
f 33//33 52//52 53//53
f 33//33 53//53 40//40
f 33//33 40//40 34//34
f 34//34 40//40 39//39
f 36//36 54//54 37//37
f 36//36 42//42 45//45
f 36//36 45//45 55//55
f 36//36 55//55 54//54
f 37//37 54//54 38//38
f 38//38 54//54 44//44
f 38//38 44//44 47//47
f 38//38 47//47 46//46
f 40//40 53//53 56//56
f 40//40 56//56 57//57
f 40//40 57//57 41//41
f 41//41 57//57 58//58
f 41//41 58//58 43//43
f 43//43 59//59 44//44
f 43//43 58//58 59//59
f 44//44 55//55 45//45
f 44//44 59//59 60//60
f 44//44 60//60 61//61
f 44//44 61//61 62//62
f 44//44 62//62 47//47
f 44//44 54//54 55//55
f 47//47 61//61 63//63
f 47//47 63//63 52//52
f 47//47 52//52 48//48
f 47//47 62//62 61//61
f 48//48 51//51 49//49
f 48//48 52//52 51//51
f 52//52 63//63 61//61
f 52//52 61//61 56//56
f 52//52 56//56 53//53
f 56//56 61//61 60//60
f 56//56 60//60 58//58
f 56//56 58//58 57//57
f 58//58 60//60 59//59
