# Created by Open3D 
# object name: top_watertight_tiny_part3
# number of vertices: 61
# number of triangles: 118
v 0.103524 0.0598405 0.236047 0.942961 0.156584 0.415808
vn 0.36974 0.825938 0.425581
v 0.0977767 0.0550966 0.236047 0.942961 0.156584 0.415808
vn -0.661599 0.749857 -0.000481227
v 0.103524 0.0538694 0.236047 0.942961 0.156584 0.415808
vn 0.0702949 -0.0732506 0.994833
v 0.103524 0.0578426 0.0749703 0.942961 0.156584 0.415808
vn 1 0.000415734 -3.14594e-05
v 0.103516 0.0594065 -0.0859803 0.942961 0.156584 0.415808
vn -0.454473 0.87098 -0.186675
v 0.0249287 -0.00972437 0.236047 0.942961 0.156584 0.415808
vn -0.671468 0.741003 0.00665378
v 0.0952687 0.0523505 -0.0859803 0.942961 0.156584 0.415808
vn -0.663997 0.747733 -0.00152241
v 0.0249287 -0.0155832 0.236047 0.942961 0.156584 0.415808
vn 0.106304 -0.128017 0.986058
v 0.103524 0.053847 0.235606 0.942961 0.156584 0.415808
vn 0.670883 -0.741124 0.0255161
v 0.103524 0.0530838 0.0749703 0.942961 0.156584 0.415808
vn 0.940173 -0.340696 -0.000899245
v 0.103516 0.0539742 -0.0859803 0.942961 0.156584 0.415808
vn 0.974706 -0.195043 -0.109118
v 0.0255364 -0.00970941 -0.0859803 0.942961 0.156584 0.415808
vn -0.705447 0.70854 -0.0177919
v 0.0249363 -0.0106223 0.159102 0.942961 0.156584 0.415808
vn -0.990349 0.138582 -0.00186267
v 0.0249363 -0.0118344 0.0749703 0.942961 0.156584 0.415808
vn -0.999795 0.0202072 -0.00144753
v 0.0249287 -0.0110862 0.205597 0.942961 0.156584 0.415808
vn -1 0.000259826 -5.11415e-05
v 0.0249287 -0.0156281 0.234944 0.942961 0.156584 0.415808
vn 0.628737 -0.777133 0.027475
v 0.0249287 -0.0156879 0.233084 0.942961 0.156584 0.415808
vn 0.63949 -0.768688 0.0131142
v 0.103524 0.053832 0.234881 0.942961 0.156584 0.415808
vn 0.697652 -0.716392 0.00797799
v 0.103524 0.0530314 0.0957432 0.942961 0.156584 0.415808
vn 0.688343 -0.725385 -0.00108449
v 0.0865291 0.0379616 0.0257332 0.942961 0.156584 0.415808
vn 0.66673 -0.745297 -0.00177587
v 0.103508 0.0531586 0.041368 0.942961 0.156584 0.415808
vn 0.66851 -0.743699 -0.00231112
v 0.103508 0.0533232 -0.00613544 0.942961 0.156584 0.415808
vn 0.672894 -0.73973 -0.00367689
v 0.103516 0.0537273 -0.0698726 0.942961 0.156584 0.415808
vn 0.99685 -0.0793049 -0.000452576
v 0.103516 0.0538171 -0.0759879 0.942961 0.156584 0.415808
vn 0.685488 -0.727998 -0.0111622
v 0.0630337 0.0174222 -0.0859803 0.942961 0.156584 0.415808
vn 0.659868 -0.732156 -0.168886
v 0.0255364 -0.0161444 -0.0859803 0.942961 0.156584 0.415808
vn 0.079355 -0.93068 -0.357124
v 0.0249363 -0.0166008 0.0749703 0.942961 0.156584 0.415808
vn -0.999496 -0.031609 -0.00281433
v 0.0249287 -0.0157179 0.205597 0.942961 0.156584 0.415808
vn -1 -8.22916e-05 -4.88736e-05
v 0.0249287 -0.0157403 0.227946 0.942961 0.156584 0.415808
vn 0.553452 -0.832847 0.00756226
v 0.052063 0.00823364 0.227946 0.942961 0.156584 0.415808
vn 0.66235 -0.749162 0.00702587
v 0.103524 0.0535402 0.205597 0.942961 0.156584 0.415808
vn 0.707548 -0.706632 0.0069353
v 0.103524 0.0530314 0.0967519 0.942961 0.156584 0.415808
vn 0.688373 -0.725356 0.00100565
v 0.0362686 -0.00679871 -0.0424171 0.942961 0.156584 0.415808
vn 0.664152 -0.747597 -0.000901252
v 0.0366994 -0.00634228 -0.0706922 0.942961 0.156584 0.415808
vn 0.667064 -0.744993 -0.00341619
v 0.0867214 0.0382609 -0.0153398 0.942961 0.156584 0.415808
vn 0.668198 -0.743975 -0.0035914
v 0.103508 0.0537048 -0.0685172 0.942961 0.156584 0.415808
vn 0.669223 -0.743046 -0.00493433
v 0.103508 0.0537198 -0.0698411 0.942961 0.156584 0.415808
vn 0.669922 -0.742358 -0.0104631
v 0.0859444 0.0379018 -0.0698411 0.942961 0.156584 0.415808
vn 0.668969 -0.743273 -0.00506001
v 0.0755892 0.0285861 -0.0698726 0.942961 0.156584 0.415808
vn 0.668366 -0.743817 -0.00470401
v 0.0502858 0.00596644 -0.0859803 0.942961 0.156584 0.415808
vn 0.661172 -0.737215 -0.139161
v 0.0262596 -0.0155009 -0.0859803 0.942961 0.156584 0.415808
vn 0.638942 -0.71519 -0.283295
v 0.0255364 -0.0162342 0.00237546 0.942961 0.156584 0.415808
vn 0.650357 -0.759629 -0.000646884
v 0.0255364 -0.0162342 0.0194603 0.942961 0.156584 0.415808
vn 0.662753 -0.748838 0.00110689
v 0.0255364 -0.0162042 0.033393 0.942961 0.156584 0.415808
vn 0.662526 -0.749037 0.00171319
v 0.0249363 -0.0165858 0.0798247 0.942961 0.156584 0.415808
vn 0.661364 -0.750059 0.00303776
v 0.0249287 -0.0157927 0.221547 0.942961 0.156584 0.415808
vn 0.581563 -0.813479 0.00609268
v 0.0324143 -0.00930535 0.205597 0.942961 0.156584 0.415808
vn 0.662147 -0.749351 0.00582701
v 0.082467 0.0349237 0.205597 0.942961 0.156584 0.415808
vn 0.662198 -0.749307 0.00568616
v 0.103524 0.0535103 0.202098 0.942961 0.156584 0.415808
vn 0.693935 -0.720014 0.00582533
v 0.103524 0.0532035 0.147691 0.942961 0.156584 0.415808
vn 0.791948 -0.610582 0.00268059
v 0.0882062 0.0394656 0.120425 0.942961 0.156584 0.415808
vn 0.662745 -0.74884 0.0027373
v 0.0354454 -0.00751703 -0.0290518 0.942961 0.156584 0.415808
vn 0.663655 -0.748038 0.000832853
v 0.0344761 -0.00835507 -0.0132594 0.942961 0.156584 0.415808
vn 0.66338 -0.748282 0.00104238
v 0.0255364 -0.0161967 0.0358202 0.942961 0.156584 0.415808
vn 0.662248 -0.749281 0.00240076
v 0.0400691 -0.00308739 0.109077 0.942961 0.156584 0.415808
vn 0.661727 -0.749735 0.00391596
v 0.0249363 -0.0161219 0.169315 0.942961 0.156584 0.415808
vn 0.660684 -0.750653 0.00410434
v 0.0311602 -0.0104128 0.205597 0.942961 0.156584 0.415808
vn 0.660751 -0.750589 0.0048345
v 0.0353146 -0.00682116 0.194943 0.942961 0.156584 0.415808
vn 0.661997 -0.74949 0.00508897
v 0.0971304 0.0478086 0.194816 0.942961 0.156584 0.415808
vn 0.662235 -0.749282 0.00469642
v 0.103524 0.0534654 0.195604 0.942961 0.156584 0.415808
vn 0.755932 -0.654639 0.00376474
v 0.0395844 -0.00308739 0.188922 0.942961 0.156584 0.415808
vn 0.661983 -0.749507 0.0043023
f 1//1 2//2 6//6
f 1//1 6//6 8//8
f 1//1 8//8 3//3
f 1//1 3//3 9//9
f 1//1 9//9 18//18
f 1//1 18//18 31//31
f 1//1 31//31 49//49
f 1//1 49//49 60//60
f 1//1 60//60 50//50
f 1//1 50//50 32//32
f 1//1 32//32 19//19
f 1//1 19//19 10//10
f 1//1 10//10 4//4
f 1//1 4//4 5//5
f 1//1 5//5 2//2
f 2//2 5//5 7//7
f 2//2 7//7 6//6
f 3//3 8//8 9//9
f 4//4 10//10 11//11
f 4//4 11//11 5//5
f 5//5 11//11 25//25
f 5//5 25//25 40//40
f 5//5 40//40 41//41
f 5//5 41//41 26//26
f 5//5 26//26 12//12
f 5//5 12//12 7//7
f 6//6 7//7 12//12
f 6//6 12//12 13//13
f 6//6 13//13 14//14
f 6//6 14//14 15//15
f 6//6 15//15 28//28
f 6//6 28//28 46//46
f 6//6 46//46 29//29
f 6//6 29//29 17//17
f 6//6 17//17 16//16
f 6//6 16//16 8//8
f 8//8 16//16 9//9
f 9//9 16//16 17//17
f 9//9 17//17 18//18
f 10//10 19//19 20//20
f 10//10 20//20 21//21
f 10//10 21//21 22//22
f 10//10 22//22 23//23
f 10//10 23//23 24//24
f 10//10 24//24 11//11
f 11//11 24//24 25//25
f 12//12 14//14 13//13
f 12//12 26//26 27//27
f 12//12 27//27 14//14
f 14//14 27//27 28//28
f 14//14 28//28 15//15
f 17//17 29//29 30//30
f 17//17 30//30 18//18
f 18//18 30//30 31//31
f 19//19 32//32 33//33
f 19//19 33//33 20//20
f 20//20 33//33 34//34
f 20//20 34//34 35//35
f 20//20 35//35 21//21
f 21//21 35//35 22//22
f 22//22 35//35 36//36
f 22//22 36//36 23//23
f 23//23 36//36 37//37
f 23//23 37//37 24//24
f 24//24 37//37 25//25
f 25//25 37//37 36//36
f 25//25 36//36 38//38
f 25//25 38//38 39//39
f 25//25 39//39 40//40
f 26//26 41//41 34//34
f 26//26 34//34 33//33
f 26//26 33//33 42//42
f 26//26 42//42 27//27
f 27//27 42//42 43//43
f 27//27 43//43 44//44
f 27//27 44//44 54//54
f 27//27 54//54 45//45
f 27//27 45//45 46//46
f 27//27 46//46 28//28
f 29//29 46//46 30//30
f 30//30 46//46 47//47
f 30//30 47//47 48//48
f 30//30 48//48 49//49
f 30//30 49//49 31//31
f 32//32 50//50 51//51
f 32//32 51//51 52//52
f 32//32 52//52 33//33
f 33//33 52//52 43//43
f 33//33 43//43 42//42
f 34//34 39//39 35//35
f 34//34 41//41 40//40
f 34//34 40//40 39//39
f 35//35 39//39 38//38
f 35//35 38//38 36//36
f 43//43 52//52 53//53
f 43//43 53//53 51//51
f 43//43 51//51 44//44
f 44//44 51//51 54//54
f 45//45 51//51 55//55
f 45//45 55//55 56//56
f 45//45 56//56 46//46
f 45//45 54//54 51//51
f 46//46 56//56 57//57
f 46//46 57//57 47//47
f 47//47 57//57 58//58
f 47//47 58//58 48//48
f 48//48 58//58 59//59
f 48//48 59//59 49//49
f 49//49 59//59 60//60
f 50//50 60//60 51//51
f 51//51 60//60 59//59
f 51//51 59//59 61//61
f 51//51 61//61 55//55
f 51//51 53//53 52//52
f 55//55 61//61 56//56
f 56//56 61//61 58//58
f 56//56 58//58 57//57
f 58//58 61//61 59//59
