# Created by Open3D 
# object name: top_watertight_tiny_part6
# number of vertices: 32
# number of triangles: 60
v 0.204022 0.143091 0.220415 0.335368 0.0442478 0.833268
vn 0.942025 -0.30293 -0.144299
v 0.203934 0.143091 0.238097 0.335368 0.0442478 0.833268
vn 0.805895 0.297521 0.511874
v 0.199694 0.13925 0.234483 0.335368 0.0442478 0.833268
vn 0.668845 -0.743396 0.00305037
v 0.185725 0.126694 0.234483 0.335368 0.0442478 0.833268
vn 0.667562 -0.744552 0.00140977
v 0.199753 0.139259 0.220417 0.335368 0.0442478 0.833268
vn 0.667349 -0.744745 0.00026894
v 0.199753 0.139259 0.220415 0.335368 0.0442478 0.833268
vn 0.000288637 -0.000342956 -1
v 0.19752 0.143091 0.220415 0.335368 0.0442478 0.833268
vn -0.641031 0.758267 -0.118789
v 0.199674 0.139259 0.238097 0.335368 0.0442478 0.833268
vn 0.0616782 -0.074082 0.995343
v 0.199674 0.13925 0.237661 0.335368 0.0442478 0.833268
vn 0.668482 -0.743705 0.00581783
v 0.197097 0.143091 0.238097 0.335368 0.0442478 0.833268
vn -0.595318 0.803382 0.0132021
v 0.182783 0.124077 0.237661 0.335368 0.0442478 0.833268
vn 0.667816 -0.74426 0.00999683
v 0.172789 0.115126 0.237661 0.335368 0.0442478 0.833268
vn 0.663644 -0.747061 0.0384245
v 0.170919 0.113437 0.234483 0.335368 0.0442478 0.833268
vn 0.663846 -0.747856 0.00441193
v 0.162922 0.106262 0.220417 0.335368 0.0442478 0.833268
vn 0.665324 -0.746526 -0.00661132
v 0.194027 0.139259 0.220415 0.335368 0.0442478 0.833268
vn -1.45558e-05 -3.65621e-06 -1
v 0.11949 0.0677878 0.220417 0.335368 0.0442478 0.833268
vn 0.662802 -0.748748 -0.00835664
v 0.103533 0.0537001 0.220417 0.335368 0.0442478 0.833268
vn 0.372961 -0.556345 -0.74255
v 0.103533 0.0587577 0.220417 0.335368 0.0442478 0.833268
vn -0.648408 0.670091 -0.361308
v 0.109682 0.0684441 0.237661 0.335368 0.0442478 0.833268
vn -0.661898 0.747491 -0.0561057
v 0.193073 0.139259 0.238097 0.335368 0.0442478 0.833268
vn -0.00545004 0.00106713 0.999985
v 0.103524 0.0539889 0.237661 0.335368 0.0442478 0.833268
vn -0.0254705 -0.014723 0.999567
v 0.109731 0.059379 0.237661 0.335368 0.0442478 0.833268
vn 0.637133 -0.727127 0.25563
v 0.119421 0.0679016 0.237661 0.335368 0.0442478 0.833268
vn 0.661442 -0.749494 0.0274523
v 0.13457 0.0812805 0.237661 0.335368 0.0442478 0.833268
vn 0.661089 -0.747071 0.0696112
v 0.14546 0.0908882 0.234483 0.335368 0.0442478 0.833268
vn 0.662921 -0.748663 0.0063356
v 0.131786 0.0787867 0.234483 0.335368 0.0442478 0.833268
vn 0.662108 -0.749374 0.00725524
v 0.103533 0.0538489 0.234483 0.335368 0.0442478 0.833268
vn 0.661195 -0.750153 0.00960048
v 0.103524 0.0538489 0.234483 0.335368 0.0442478 0.833268
vn -0.999999 -0.00145456 -0.000554592
v 0.103524 0.0595277 0.234483 0.335368 0.0442478 0.833268
vn -1 0.00014542 -0.000573025
v 0.103524 0.0613127 0.237661 0.335368 0.0442478 0.833268
vn -0.212412 0.132031 0.968219
v 0.103524 0.0538751 0.235641 0.335368 0.0442478 0.833268
vn 0.655388 -0.754469 0.0352695
v 0.103524 0.0538576 0.234898 0.335368 0.0442478 0.833268
vn -0.989679 -0.143266 0.00324764
f 1//1 2//2 3//3
f 1//1 3//3 4//4
f 1//1 4//4 5//5
f 1//1 5//5 6//6
f 1//1 6//6 15//15
f 1//1 15//15 7//7
f 1//1 7//7 10//10
f 1//1 10//10 2//2
f 2//2 8//8 9//9
f 2//2 9//9 3//3
f 2//2 10//10 20//20
f 2//2 20//20 8//8
f 3//3 9//9 4//4
f 4//4 9//9 11//11
f 4//4 11//11 12//12
f 4//4 12//12 13//13
f 4//4 13//13 14//14
f 4//4 14//14 5//5
f 5//5 14//14 6//6
f 6//6 14//14 16//16
f 6//6 16//16 17//17
f 6//6 17//17 15//15
f 7//7 15//15 18//18
f 7//7 18//18 19//19
f 7//7 19//19 10//10
f 8//8 20//20 21//21
f 8//8 21//21 22//22
f 8//8 22//22 23//23
f 8//8 23//23 24//24
f 8//8 24//24 12//12
f 8//8 12//12 11//11
f 8//8 11//11 9//9
f 10//10 19//19 20//20
f 12//12 24//24 25//25
f 12//12 25//25 13//13
f 13//13 25//25 16//16
f 13//13 16//16 14//14
f 15//15 17//17 18//18
f 16//16 25//25 26//26
f 16//16 26//26 17//17
f 17//17 26//26 23//23
f 17//17 23//23 27//27
f 17//17 27//27 28//28
f 17//17 28//28 29//29
f 17//17 29//29 18//18
f 18//18 29//29 30//30
f 18//18 30//30 19//19
f 19//19 30//30 20//20
f 20//20 30//30 21//21
f 21//21 30//30 29//29
f 21//21 29//29 28//28
f 21//21 28//28 32//32
f 21//21 32//32 31//31
f 21//21 31//31 22//22
f 22//22 31//31 27//27
f 22//22 27//27 23//23
f 23//23 26//26 24//24
f 24//24 26//26 25//25
f 27//27 31//31 32//32
f 27//27 32//32 28//28
