# Created by Open3D 
# object name: top_watertight_tiny_part7
# number of vertices: 41
# number of triangles: 78
v 0.207461 0.146268 0.116264 0.806501 0.722687 0.856705
vn 0.932389 0.361443 0.00324159
v 0.207165 0.145888 0.21164 0.806501 0.722687 0.856705
vn 0.958969 0.28346 0.0053726
v 0.203793 0.142972 0.119056 0.806501 0.722687 0.856705
vn 0.283339 -0.95902 -0.000472621
v 0.203668 0.142977 0.0792271 0.806501 0.722687 0.856705
vn 0.667237 -0.744841 -0.00235594
v 0.207448 0.146368 0.0788782 0.806501 0.722687 0.856705
vn 0.915243 0.402902 0.000705081
v 0.193101 0.166984 0.0779582 0.806501 0.722687 0.856705
vn 0.750598 0.660622 0.0135028
v 0.207017 0.145791 0.220411 0.806501 0.722687 0.856705
vn 0.860829 0.50848 0.0205349
v 0.203886 0.142972 0.220411 0.806501 0.722687 0.856705
vn 0.127716 -0.991808 0.00212146
v 0.20391 0.142972 0.215082 0.806501 0.722687 0.856705
vn 0.62208 -0.782951 0.00200061
v 0.203912 0.142972 0.212338 0.806501 0.722687 0.856705
vn 0.644613 -0.764509 0.000598842
v 0.203912 0.142972 0.21229 0.806501 0.722687 0.856705
vn 0.667388 -0.744709 -0.000854529
v 0.203694 0.142972 0.089791 0.806501 0.722687 0.856705
vn 0.000460755 -1 -0.000168705
v 0.203647 0.142977 0.0760707 0.806501 0.722687 0.856705
vn 0.0183642 -0.157648 -0.987325
v 0.207443 0.14638 0.0760707 0.806501 0.722687 0.856705
vn 0.64559 0.246953 -0.722653
v 0.193508 0.165904 0.0760707 0.806501 0.722687 0.856705
vn 0.270121 0.192832 -0.943319
v 0.192729 0.166991 0.0760707 0.806501 0.722687 0.856705
vn 0.0252758 0.0893859 -0.995676
v 0.188855 0.167219 0.0760707 0.806501 0.722687 0.856705
vn 0.00382942 0.14818 -0.988953
v 0.188796 0.167234 0.077863 0.806501 0.722687 0.856705
vn -0.344188 0.938895 0.0032349
v 0.189203 0.167148 0.089791 0.806501 0.722687 0.856705
vn 0.057675 0.998312 0.00689727
v 0.18917 0.166122 0.235606 0.806501 0.722687 0.856705
vn 0.686087 0.727196 0.0216966
v 0.206711 0.145589 0.238097 0.806501 0.722687 0.856705
vn 0.772387 0.622626 0.125519
v 0.203938 0.143093 0.238097 0.806501 0.722687 0.856705
vn 0.249887 -0.962828 0.102564
v 0.197421 0.142972 0.220411 0.806501 0.722687 0.856705
vn -0.011293 -0.999936 0.000456236
v 0.19779 0.142972 0.089791 0.806501 0.722687 0.856705
vn -0.00059031 -1 -2.83337e-05
v 0.1978 0.142977 0.0760707 0.806501 0.722687 0.856705
vn -0.0100283 -0.88659 -0.462447
v 0.188383 0.166958 0.0760707 0.806501 0.722687 0.856705
vn -0.353403 0.4801 -0.802876
v 0.184821 0.164807 0.096548 0.806501 0.722687 0.856705
vn -0.584884 0.811094 -0.00608943
v 0.185091 0.165217 0.17768 0.806501 0.722687 0.856705
vn -0.601035 0.799209 0.0046922
v 0.187181 0.165716 0.238097 0.806501 0.722687 0.856705
vn -0.445097 0.866355 0.226534
v 0.188733 0.166082 0.238097 0.806501 0.722687 0.856705
vn -0.137208 0.979937 0.144561
v 0.194495 0.159819 0.238097 0.806501 0.722687 0.856705
vn 0.744226 0.652887 0.140946
v 0.197094 0.143093 0.238097 0.806501 0.722687 0.856705
vn -0.699366 -0.712776 0.0532666
v 0.197798 0.142977 0.0761976 0.806501 0.722687 0.856705
vn -0.745623 -0.666342 -0.00591932
v 0.185599 0.157485 0.0760707 0.806501 0.722687 0.856705
vn -0.766849 -0.640625 -0.0392744
v 0.181913 0.162118 0.0760707 0.806501 0.722687 0.856705
vn -0.770525 0.155777 -0.618082
v 0.18244 0.162705 0.0843346 0.806501 0.722687 0.856705
vn -0.654529 0.756032 -0.00258821
v 0.182094 0.162398 0.0825581 0.806501 0.722687 0.856705
vn -0.740938 0.671571 0.00193536
v 0.181933 0.161831 0.196349 0.806501 0.722687 0.856705
vn -0.731441 0.681899 0.00283161
v 0.180936 0.16051 0.238097 0.806501 0.722687 0.856705
vn -0.783531 -0.621014 0.0205283
v 0.180973 0.160544 0.238097 0.806501 0.722687 0.856705
vn -0.577569 0.692812 0.43177
v 0.182048 0.161484 0.0963735 0.806501 0.722687 0.856705
vn -0.782448 -0.62262 -0.0108928
f 1//1 2//2 3//3
f 1//1 3//3 4//4
f 1//1 4//4 5//5
f 1//1 5//5 6//6
f 1//1 6//6 2//2
f 2//2 7//7 8//8
f 2//2 8//8 9//9
f 2//2 9//9 10//10
f 2//2 10//10 11//11
f 2//2 11//11 3//3
f 2//2 6//6 7//7
f 3//3 11//11 10//10
f 3//3 10//10 9//9
f 3//3 9//9 8//8
f 3//3 8//8 23//23
f 3//3 23//23 24//24
f 3//3 24//24 12//12
f 3//3 12//12 4//4
f 4//4 13//13 14//14
f 4//4 14//14 5//5
f 4//4 12//12 13//13
f 5//5 14//14 6//6
f 6//6 14//14 15//15
f 6//6 15//15 16//16
f 6//6 16//16 17//17
f 6//6 17//17 18//18
f 6//6 18//18 19//19
f 6//6 19//19 20//20
f 6//6 20//20 21//21
f 6//6 21//21 7//7
f 7//7 21//21 8//8
f 8//8 21//21 22//22
f 8//8 22//22 32//32
f 8//8 32//32 23//23
f 12//12 24//24 25//25
f 12//12 25//25 13//13
f 13//13 25//25 34//34
f 13//13 34//34 35//35
f 13//13 35//35 26//26
f 13//13 26//26 17//17
f 13//13 17//17 16//16
f 13//13 16//16 15//15
f 13//13 15//15 14//14
f 17//17 26//26 18//18
f 18//18 26//26 27//27
f 18//18 27//27 28//28
f 18//18 28//28 29//29
f 18//18 29//29 30//30
f 18//18 30//30 20//20
f 18//18 20//20 19//19
f 20//20 30//30 31//31
f 20//20 31//31 21//21
f 21//21 31//31 30//30
f 21//21 30//30 29//29
f 21//21 29//29 40//40
f 21//21 40//40 39//39
f 21//21 39//39 32//32
f 21//21 32//32 22//22
f 23//23 32//32 33//33
f 23//23 33//33 24//24
f 24//24 33//33 25//25
f 25//25 33//33 34//34
f 26//26 35//35 27//27
f 27//27 35//35 36//36
f 27//27 36//36 28//28
f 28//28 36//36 37//37
f 28//28 37//37 38//38
f 28//28 38//38 39//39
f 28//28 39//39 40//40
f 28//28 40//40 29//29
f 32//32 39//39 33//33
f 33//33 39//39 34//34
f 34//34 39//39 41//41
f 34//34 41//41 35//35
f 35//35 39//39 37//37
f 35//35 37//37 36//36
f 35//35 41//41 39//39
f 37//37 39//39 38//38
