# Created by Open3D 
# object name: bottom_watertight_tiny_part4
# number of vertices: 51
# number of triangles: 98
v 0.0867831 0.0221317 -0.0373618 0.486475 0.104515 0.543295
vn 0.990025 0.00467546 -0.140816
v 0.0867831 0.0283857 -0.0369926 0.486475 0.104515 0.543295
vn 0.990801 0.0616603 -0.120467
v 0.0867898 0.0283698 -0.00222677 0.486475 0.104515 0.543295
vn 1 0.000906811 -0.000141742
v 0.0867898 0.0185615 -0.00222677 0.486475 0.104515 0.543295
vn 1 -0.00010891 -0.00015606
v 0.0867831 0.0193753 -0.0371522 0.486475 0.104515 0.543295
vn 0.974674 -0.0876277 -0.205748
v 0.0807652 0.0184074 -0.0366085 0.486475 0.104515 0.543295
vn -0.257461 -0.288819 -0.922116
v 0.0826733 0.0277827 -0.036384 0.486475 0.104515 0.543295
vn -0.287194 0.389542 -0.875087
v 0.0867831 0.0284083 -0.0341491 0.486475 0.104515 0.543295
vn -0.146267 0.989245 0.000717703
v 0.0867898 0.0283562 0.00739133 0.486475 0.104515 0.543295
vn 0.999999 0.000595385 0.00121109
v 0.0867764 0.0283517 0.0136022 0.486475 0.104515 0.543295
vn -0.116139 0.917742 0.379817
v 0.0867898 0.0185728 0.00739133 0.486475 0.104515 0.543295
vn 0.999999 -0.00145241 0.000532881
v 0.0867831 0.0123279 -0.033301 0.486475 0.104515 0.543295
vn 0.99982 -0.0179317 -0.00613893
v 0.0867831 0.0126317 -0.0335155 0.486475 0.104515 0.543295
vn 0.998755 -0.0239242 -0.043779
v 0.0852753 0.012108 -0.0332511 0.486475 0.104515 0.543295
vn 0.0472362 -0.962156 -0.268374
v 0.0712112 0.0105077 -0.028028 0.486475 0.104515 0.543295
vn -0.231151 -0.604199 -0.76257
v 0.062271 0.0158278 -0.0292253 0.486475 0.104515 0.543295
vn -0.427473 -0.362005 -0.828384
v 0.0695366 0.024097 -0.0326824 0.486475 0.104515 0.543295
vn -0.362677 0.0621491 -0.92984
v 0.0578409 0.0238295 -0.0273047 0.486475 0.104515 0.543295
vn -0.458791 0.513953 -0.724819
v 0.070504 0.0259806 -0.0317446 0.486475 0.104515 0.543295
vn -0.151772 0.988408 -0.00398047
v 0.0867764 0.0185842 0.0136022 0.486475 0.104515 0.543295
vn 0.255072 -0.888018 0.382573
v 0.0600293 0.024369 -0.00222677 0.486475 0.104515 0.543295
vn -0.14822 0.988953 0.00151027
v 0.0293591 0.0197448 0.0136022 0.486475 0.104515 0.543295
vn -0.148327 0.988937 0.00192866
v 0.0867831 0.0127246 -0.0224407 0.486475 0.104515 0.543295
vn 0.257459 -0.957258 0.131803
v 0.0867831 0.0123302 -0.0326774 0.486475 0.104515 0.543295
vn 0.246466 -0.96873 0.0285888
v 0.0678352 0.0100249 -0.0260475 0.486475 0.104515 0.543295
vn -0.227871 -0.783364 -0.578287
v 0.0353103 0.00525106 0.0021333 0.486475 0.104515 0.543295
vn 0.0669462 -0.940008 0.334519
v 0.0354905 0.00527826 0.00179407 0.486475 0.104515 0.543295
vn -0.571633 -0.634527 -0.520203
v 0.0386329 0.00574975 -0.00176781 0.486475 0.104515 0.543295
vn 0.114031 -0.992977 -0.0315241
v 0.0516428 0.00771504 -0.0165342 0.486475 0.104515 0.543295
vn -0.277638 -0.834109 -0.476633
v 0.0443372 0.0139124 -0.0157859 0.486475 0.104515 0.543295
vn -0.647052 -0.366244 -0.668722
v 0.0491876 0.0222133 -0.0216126 0.486475 0.104515 0.543295
vn -0.607955 -0.0886143 -0.789011
v 0.0389131 0.0210595 -0.0118149 0.486475 0.104515 0.543295
vn -0.35642 0.909781 -0.212752
v 0.0285385 0.0196292 0.00739133 0.486475 0.104515 0.543295
vn -0.158842 0.987268 -0.00844219
v 0.0436167 0.0219073 -0.00223674 0.486475 0.104515 0.543295
vn -0.14845 0.988919 0.00129701
v 0.0521632 0.0136744 0.0136022 0.486475 0.104515 0.543295
vn 3.12992e-05 -0.00039774 1
v 0.0434566 0.0124004 0.0135972 0.486475 0.104515 0.543295
vn 0.0804526 -0.838379 0.539118
v 0.0355438 0.0052896 0.0021333 0.486475 0.104515 0.543295
vn 0.171806 -0.966914 0.188575
v 0.04794 0.00749516 0.0021333 0.486475 0.104515 0.543295
vn 0.21367 -0.964749 0.153634
v 0.0271708 0.0194093 0.0136022 0.486475 0.104515 0.543295
vn -0.157954 0.982195 0.101708
v 0.0647996 0.00943324 -0.0132966 0.486475 0.104515 0.543295
vn 0.166261 -0.984879 0.0486824
v 0.0223804 0.0124004 0.0135972 0.486475 0.104515 0.543295
vn -0.119895 -0.856133 0.502654
v 0.0193715 0.0157734 0.0135972 0.486475 0.104515 0.543295
vn -0.745773 -0.365611 -0.556912
v 0.0317943 0.0122735 9.79363e-05 0.486475 0.104515 0.543295
vn -0.68013 -0.488109 -0.546968
v 0.031821 0.0123982 3.15346e-06 0.486475 0.104515 0.543295
vn -0.742577 -0.267562 -0.613995
v 0.0336491 0.0199782 -0.00543446 0.486475 0.104515 0.543295
vn -0.748134 -0.228717 -0.622883
v 0.0186309 0.0179767 0.0135972 0.486475 0.104515 0.543295
vn -0.57465 0.812724 -0.0962189
v 0.0243553 0.018931 0.00988565 0.486475 0.104515 0.543295
vn -0.178608 0.983646 -0.0232242
v 0.0243553 0.0189401 0.0136022 0.486475 0.104515 0.543295
vn -0.164986 0.983509 0.0740882
v 0.0243553 0.0136721 0.0136022 0.486475 0.104515 0.543295
vn 2.45316e-08 -0.000312805 1
v 0.0232611 0.0136721 0.0136022 0.486475 0.104515 0.543295
vn -0.000131482 -0.00031975 1
v 0.0232611 0.0187542 0.0136022 0.486475 0.104515 0.543295
vn -7.55952e-05 1.57013e-05 1
f 1//1 2//2 3//3
f 1//1 3//3 4//4
f 1//1 4//4 5//5
f 1//1 5//5 6//6
f 1//1 6//6 7//7
f 1//1 7//7 2//2
f 2//2 8//8 3//3
f 2//2 7//7 8//8
f 3//3 9//9 11//11
f 3//3 11//11 4//4
f 3//3 8//8 10//10
f 3//3 10//10 9//9
f 4//4 11//11 12//12
f 4//4 12//12 13//13
f 4//4 13//13 5//5
f 5//5 13//13 14//14
f 5//5 14//14 6//6
f 6//6 15//15 16//16
f 6//6 16//16 17//17
f 6//6 17//17 7//7
f 6//6 14//14 15//15
f 7//7 17//17 18//18
f 7//7 18//18 19//19
f 7//7 19//19 8//8
f 8//8 19//19 10//10
f 9//9 10//10 20//20
f 9//9 20//20 11//11
f 10//10 19//19 21//21
f 10//10 21//21 22//22
f 10//10 22//22 39//39
f 10//10 39//39 48//48
f 10//10 48//48 51//51
f 10//10 51//51 50//50
f 10//10 50//50 49//49
f 10//10 49//49 35//35
f 10//10 35//35 20//20
f 11//11 20//20 23//23
f 11//11 23//23 24//24
f 11//11 24//24 12//12
f 12//12 24//24 14//14
f 12//12 14//14 13//13
f 14//14 25//25 15//15
f 14//14 24//24 26//26
f 14//14 26//26 27//27
f 14//14 27//27 28//28
f 14//14 28//28 29//29
f 14//14 29//29 25//25
f 15//15 25//25 16//16
f 16//16 18//18 17//17
f 16//16 25//25 29//29
f 16//16 29//29 30//30
f 16//16 30//30 31//31
f 16//16 31//31 18//18
f 18//18 31//31 32//32
f 18//18 32//32 19//19
f 19//19 32//32 33//33
f 19//19 33//33 34//34
f 19//19 34//34 21//21
f 20//20 35//35 36//36
f 20//20 36//36 26//26
f 20//20 26//26 37//37
f 20//20 37//37 38//38
f 20//20 38//38 23//23
f 21//21 34//34 22//22
f 22//22 34//34 33//33
f 22//22 33//33 39//39
f 23//23 38//38 40//40
f 23//23 40//40 24//24
f 24//24 40//40 26//26
f 26//26 36//36 41//41
f 26//26 41//41 42//42
f 26//26 42//42 27//27
f 26//26 40//40 37//37
f 27//27 30//30 29//29
f 27//27 29//29 28//28
f 27//27 42//42 43//43
f 27//27 43//43 30//30
f 30//30 43//43 44//44
f 30//30 44//44 42//42
f 30//30 42//42 45//45
f 30//30 45//45 32//32
f 30//30 32//32 31//31
f 32//32 45//45 46//46
f 32//32 46//46 47//47
f 32//32 47//47 33//33
f 33//33 47//47 46//46
f 33//33 46//46 48//48
f 33//33 48//48 39//39
f 35//35 49//49 36//36
f 36//36 49//49 50//50
f 36//36 50//50 41//41
f 37//37 40//40 38//38
f 41//41 50//50 42//42
f 42//42 50//50 46//46
f 42//42 46//46 45//45
f 42//42 44//44 43//43
f 46//46 50//50 51//51
f 46//46 51//51 48//48
