# Created by Open3D 
# object name: bottom_watertight_tiny_part5
# number of vertices: 35
# number of triangles: 66
v 0.0297457 0.0135249 0.0929072 0.120959 0.771102 0.495952
vn -0.00972307 0.870506 -0.492061
v 0.0298071 0.0122628 0.0929072 0.120959 0.771102 0.495952
vn -0.73157 -0.677579 0.0754438
v 0.0307117 0.0135249 0.0947992 0.120959 0.771102 0.495952
vn -0.745422 0.150538 0.649373
v 0.04136 0.0161248 0.105896 0.120959 0.771102 0.495952
vn -0.00558947 0.999126 -0.0414313
v 0.0662246 0.0161248 0.105892 0.120959 0.771102 0.495952
vn -2.31488e-05 0.980553 -0.196252
v 0.0516286 0.0135249 0.0929072 0.120959 0.771102 0.495952
vn 0.260854 0.558888 -0.787146
v 0.0372671 0.00623656 0.0929072 0.120959 0.771102 0.495952
vn -0.226138 -0.965562 0.128654
v 0.0309127 0.0124961 0.0949828 0.120959 0.771102 0.495952
vn -0.552918 -0.640216 0.533297
v 0.0393498 0.0133681 0.103977 0.120959 0.771102 0.495952
vn -0.569374 -0.572488 0.589975
v 0.04356 0.0138027 0.108456 0.120959 0.771102 0.495952
vn -0.527199 -0.51471 0.676117
v 0.04246 0.0161248 0.107076 0.120959 0.771102 0.495952
vn -0.718271 0.0815335 0.690969
v 0.0691896 0.0161248 0.105892 0.120959 0.771102 0.495952
vn 0.0314986 0.984559 -0.172194
v 0.0491494 0.00718995 0.0929072 0.120959 0.771102 0.495952
vn 0.385853 -0.448298 -0.806316
v 0.0867898 0.0161248 0.113657 0.120959 0.771102 0.495952
vn 0.28448 0.897606 -0.336711
v 0.043225 0.00829434 0.1018 0.120959 0.771102 0.495952
vn -0.446285 -0.720293 0.531044
v 0.0443138 0.0065279 0.0929072 0.120959 0.771102 0.495952
vn 0.0729173 -0.964526 -0.253718
v 0.0637454 0.00930678 0.118251 0.120959 0.771102 0.495952
vn -0.129528 -0.923696 0.360566
v 0.0563469 0.0156389 0.118431 0.120959 0.771102 0.495952
vn -0.450948 -0.510384 0.732226
v 0.0562241 0.0161248 0.118356 0.120959 0.771102 0.495952
vn -0.588724 0.271001 0.761552
v 0.0461732 0.0161248 0.110565 0.120959 0.771102 0.495952
vn -0.614573 0.244796 0.749917
v 0.0867898 0.0150881 0.114047 0.120959 0.771102 0.495952
vn 0.468027 -0.690294 -0.551765
v 0.0867898 0.0123741 0.118349 0.120959 0.771102 0.495952
vn 0.389987 -0.836832 -0.384216
v 0.051154 0.00740483 0.0958354 0.120959 0.771102 0.495952
vn 0.13681 -0.990597 -0.000929684
v 0.0867898 0.0161248 0.125993 0.120959 0.771102 0.495952
vn 0.0432926 0.997998 0.0461141
v 0.0557383 0.00809495 0.103977 0.120959 0.771102 0.495952
vn 0.129408 -0.991526 0.0114211
v 0.0817643 0.0116995 0.118484 0.120959 0.771102 0.495952
vn 0.13137 -0.991119 0.0206339
v 0.0867898 0.0126732 0.12619 0.120959 0.771102 0.495952
vn 0.27503 -0.947906 0.160728
v 0.0855446 0.0135249 0.12618 0.120959 0.771102 0.495952
vn -0.239064 -0.268965 0.933009
v 0.067749 0.0116995 0.120359 0.120959 0.771102 0.495952
vn -0.259081 -0.356825 0.897526
v 0.0589154 0.0161248 0.119527 0.120959 0.771102 0.495952
vn -0.231527 0.592137 0.77186
v 0.0568718 0.0161248 0.11874 0.120959 0.771102 0.495952
vn -0.034987 0.996145 0.0804388
v 0.0867898 0.0123673 0.118543 0.120959 0.771102 0.495952
vn 0.229329 -0.973269 0.0124467
v 0.0867898 0.0132075 0.126403 0.120959 0.771102 0.495952
vn 0.994959 0.00570683 0.100118
v 0.0754267 0.0161248 0.12433 0.120959 0.771102 0.495952
vn -0.0270394 0.982402 0.184813
v 0.0754044 0.0161248 0.124327 0.120959 0.771102 0.495952
vn -0.237736 0.514568 0.823834
f 1//1 2//2 3//3
f 1//1 3//3 4//4
f 1//1 4//4 5//5
f 1//1 5//5 12//12
f 1//1 12//12 6//6
f 1//1 6//6 13//13
f 1//1 13//13 16//16
f 1//1 16//16 7//7
f 1//1 7//7 2//2
f 2//2 7//7 8//8
f 2//2 8//8 3//3
f 3//3 8//8 9//9
f 3//3 9//9 10//10
f 3//3 10//10 11//11
f 3//3 11//11 4//4
f 4//4 11//11 20//20
f 4//4 20//20 19//19
f 4//4 19//19 31//31
f 4//4 31//31 30//30
f 4//4 30//30 35//35
f 4//4 35//35 34//34
f 4//4 34//34 24//24
f 4//4 24//24 14//14
f 4//4 14//14 12//12
f 4//4 12//12 5//5
f 6//6 12//12 14//14
f 6//6 14//14 13//13
f 7//7 15//15 8//8
f 7//7 16//16 17//17
f 7//7 17//17 15//15
f 8//8 15//15 9//9
f 9//9 15//15 10//10
f 10//10 18//18 19//19
f 10//10 19//19 20//20
f 10//10 20//20 11//11
f 10//10 15//15 17//17
f 10//10 17//17 18//18
f 13//13 14//14 21//21
f 13//13 21//21 22//22
f 13//13 22//22 23//23
f 13//13 23//23 16//16
f 14//14 24//24 33//33
f 14//14 33//33 27//27
f 14//14 27//27 32//32
f 14//14 32//32 22//22
f 14//14 22//22 21//21
f 16//16 23//23 25//25
f 16//16 25//25 17//17
f 17//17 26//26 27//27
f 17//17 27//27 28//28
f 17//17 28//28 29//29
f 17//17 29//29 30//30
f 17//17 30//30 18//18
f 17//17 25//25 26//26
f 18//18 31//31 19//19
f 18//18 30//30 31//31
f 22//22 32//32 23//23
f 23//23 32//32 25//25
f 24//24 34//34 28//28
f 24//24 28//28 33//33
f 25//25 32//32 26//26
f 26//26 32//32 27//27
f 27//27 33//33 28//28
f 28//28 34//34 35//35
f 28//28 35//35 29//29
f 29//29 35//35 30//30
