# Created by Open3D 
# object name: bottom_watertight_tiny_part3
# number of vertices: 47
# number of triangles: 90
v 0.0198194 0.0122354 0.0796396 0.753247 0.95802 0.00364888
vn 0.103406 0.994637 0.00192962
v 0.0197979 0.0122354 0.0796396 0.753247 0.95802 0.00364888
vn -0.00043869 0.99881 0.0487604
v 0.0198194 0.0103533 0.0796396 0.753247 0.95802 0.00364888
vn 0.0418024 -0.159592 0.986298
v 0.0198194 0.0122354 0.0600712 0.753247 0.95802 0.00364888
vn 0.436017 0.898832 -0.0446027
v 0.00353886 0.0123214 0.0481637 0.753247 0.95802 0.00364888
vn 0.00222041 0.999997 0.000526076
v 0.0184686 0.0122354 0.0796274 0.753247 0.95802 0.00364888
vn -0.00313453 0.998709 0.0507066
v 0.0190915 0.0107948 0.0796396 0.753247 0.95802 0.00364888
vn -0.0639537 -0.0348714 0.997343
v -0.00368976 0.0123214 0.0481637 0.753247 0.95802 0.00364888
vn -0.00186847 0.999995 0.0026488
v 0.00997994 0.00440176 0.078789 0.753247 0.95802 0.00364888
vn 0.0901591 -0.367127 0.925791
v 0.0198194 0.0100093 0.0794816 0.753247 0.95802 0.00364888
vn 0.766455 -0.625868 0.144347
v 0.0198194 0.00912776 0.0600712 0.753247 0.95802 0.00364888
vn 0.80851 -0.587872 -0.0268203
v 0.0163256 0.00839958 0.0251021 0.753247 0.95802 0.00364888
vn 0.985906 -0.0564759 -0.157481
v 0.0169007 0.0122369 0.0481637 0.753247 0.95802 0.00364888
vn 0.361466 0.922596 -0.134754
v 0.00353886 0.0123214 0.0176538 0.753247 0.95802 0.00364888
vn 0.0914028 0.993104 -0.0734106
v 0.000830222 0.0122354 0.078467 0.753247 0.95802 0.00364888
vn -0.00568083 0.997083 0.0761113
v -0.00130567 0.0115459 0.0783091 0.753247 0.95802 0.00364888
vn -0.473718 -0.0115319 0.880601
v -0.00101691 0.00869486 0.0782362 0.753247 0.95802 0.00364888
vn -0.0760532 -0.0351352 0.996485
v -0.000630303 0.00491492 0.0781268 0.753247 0.95802 0.00364888
vn -0.0691523 -0.0488215 0.996411
v -0.00455843 0.0123214 0.0356122 0.753247 0.95802 0.00364888
vn -0.987875 -0.15525 -0.00119525
v -0.00416466 0.0122354 0.0695607 0.753247 0.95802 0.00364888
vn -0.97764 -0.209841 0.0136855
v -0.0040525 0.0122354 0.0704356 0.753247 0.95802 0.00364888
vn -0.856263 0.447415 0.258134
v -0.00266834 0.0122354 0.0745242 0.753247 0.95802 0.00364888
vn -0.736791 0.625056 0.257767
v -0.000723374 0.0122354 0.0778717 0.753247 0.95802 0.00364888
vn -0.0317994 0.999096 0.0282164
v -0.000797351 0.00077663 0.0777684 0.753247 0.95802 0.00364888
vn -0.939046 -0.332669 0.0867338
v 0.00136956 -0.00069693 0.0763893 0.753247 0.95802 0.00364888
vn 0.26416 -0.863028 0.430583
v 0.0148173 0.00512564 0.0769057 0.753247 0.95802 0.00364888
vn 0.558857 -0.814906 0.153647
v 0.0146789 0.00448633 0.0609096 0.753247 0.95802 0.00364888
vn 0.617316 -0.786668 -0.00867065
v 0.0109441 0.00273755 0.0178118 0.753247 0.95802 0.00364888
vn 0.51928 -0.846562 -0.116967
v 0.014309 0.0056044 0.0283645 0.753247 0.95802 0.00364888
vn 0.76252 -0.643912 -0.0627755
v 0.0137673 0.00839958 0.0175748 0.753247 0.95802 0.00364888
vn 0.44156 0.795826 -0.414349
v 0.00353886 0.00916789 0.0176052 0.753247 0.95802 0.00364888
vn -0.00236181 0.0139735 -0.9999
v -0.00161114 0.0123214 0.017666 0.753247 0.95802 0.00364888
vn -0.065218 0.985575 -0.15617
v -0.00444627 0.0123214 0.0269246 0.753247 0.95802 0.00364888
vn -0.988921 -0.146961 -0.0209112
v 0.00051998 -0.00220489 0.038334 0.753247 0.95802 0.00364888
vn -0.478413 -0.877984 -0.0162959
v 0.000959087 -0.002321 0.0708487 0.753247 0.95802 0.00364888
vn 0.146218 -0.98654 0.0732126
v 0.0102067 0.00147471 0.0700285 0.753247 0.95802 0.00364888
vn 0.43862 -0.89867 0.00226474
v 0.000746695 -0.00202571 0.035594 0.753247 0.95802 0.00364888
vn 0.368927 -0.928747 -0.0363557
v 0.00353886 -0.000298437 0.0202662 0.753247 0.95802 0.00364888
vn 0.241253 -0.89402 -0.377524
v 0.00353886 0.00627668 0.0177146 0.753247 0.95802 0.00364888
vn -0.13323 -0.304098 -0.943279
v 0.00353886 0.00839958 0.0176295 0.753247 0.95802 0.00364888
vn -0.00559762 -0.0387999 -0.999231
v -0.00310985 0.00945888 0.0176295 0.753247 0.95802 0.00364888
vn -0.657684 -0.244314 -0.712574
v -0.00379476 0.0123214 0.0237534 0.753247 0.95802 0.00364888
vn -0.16038 0.985383 -0.0574405
v -0.00439377 0.0123214 0.0254362 0.753247 0.95802 0.00364888
vn -0.134525 0.99082 -0.013383
v -0.00399284 0.0113453 0.0237534 0.753247 0.95802 0.00364888
vn -0.941674 -0.334978 -0.0322299
v 0.00065839 -0.00147528 0.02122 0.753247 0.95802 0.00364888
vn -0.888018 -0.404399 -0.218825
v 0.000675095 -0.00157419 0.0237534 0.753247 0.95802 0.00364888
vn 0.361513 -0.931597 -0.0378952
v -0.00411694 0.0117051 0.0237534 0.753247 0.95802 0.00364888
vn -0.845334 0.441444 -0.300895
f 1//1 2//2 7//7
f 1//1 7//7 3//3
f 1//1 3//3 10//10
f 1//1 10//10 11//11
f 1//1 11//11 4//4
f 1//1 4//4 14//14
f 1//1 14//14 5//5
f 1//1 5//5 8//8
f 1//1 8//8 2//2
f 2//2 6//6 7//7
f 2//2 8//8 6//6
f 3//3 7//7 9//9
f 3//3 9//9 10//10
f 4//4 11//11 12//12
f 4//4 12//12 13//13
f 4//4 13//13 14//14
f 5//5 14//14 32//32
f 5//5 32//32 42//42
f 5//5 42//42 43//43
f 5//5 43//43 33//33
f 5//5 33//33 19//19
f 5//5 19//19 8//8
f 6//6 15//15 7//7
f 6//6 8//8 15//15
f 7//7 15//15 16//16
f 7//7 16//16 17//17
f 7//7 17//17 18//18
f 7//7 18//18 9//9
f 8//8 19//19 20//20
f 8//8 20//20 21//21
f 8//8 21//21 22//22
f 8//8 22//22 23//23
f 8//8 23//23 15//15
f 9//9 18//18 24//24
f 9//9 24//24 25//25
f 9//9 25//25 26//26
f 9//9 26//26 10//10
f 10//10 26//26 11//11
f 11//11 26//26 27//27
f 11//11 27//27 28//28
f 11//11 28//28 29//29
f 11//11 29//29 12//12
f 12//12 29//29 28//28
f 12//12 28//28 30//30
f 12//12 30//30 13//13
f 13//13 30//30 14//14
f 14//14 30//30 31//31
f 14//14 31//31 32//32
f 15//15 23//23 16//16
f 16//16 23//23 22//22
f 16//16 22//22 24//24
f 16//16 24//24 17//17
f 17//17 24//24 18//18
f 19//19 33//33 34//34
f 19//19 34//34 24//24
f 19//19 24//24 20//20
f 20//20 24//24 21//21
f 21//21 24//24 22//22
f 24//24 35//35 25//25
f 24//24 34//34 35//35
f 25//25 35//35 26//26
f 26//26 35//35 36//36
f 26//26 36//36 27//27
f 27//27 36//36 28//28
f 28//28 34//34 37//37
f 28//28 37//37 38//38
f 28//28 38//38 39//39
f 28//28 39//39 40//40
f 28//28 40//40 30//30
f 28//28 36//36 34//34
f 30//30 40//40 41//41
f 30//30 41//41 31//31
f 31//31 41//41 32//32
f 32//32 41//41 42//42
f 33//33 43//43 44//44
f 33//33 44//44 45//45
f 33//33 45//45 34//34
f 34//34 45//45 46//46
f 34//34 46//46 37//37
f 34//34 36//36 35//35
f 37//37 46//46 38//38
f 38//38 46//46 45//45
f 38//38 45//45 39//39
f 39//39 45//45 41//41
f 39//39 41//41 40//40
f 41//41 43//43 47//47
f 41//41 47//47 42//42
f 41//41 45//45 44//44
f 41//41 44//44 43//43
f 42//42 47//47 43//43
