# Created by Open3D 
# object name: top_watertight_tiny_part1
# number of vertices: 64
# number of triangles: 124
v 0.13139 0.00431775 0.0120563 0.43 0.217649 0.838886
vn -0.0079352 -0.0800467 -0.99676
v 0.125556 0.00343983 0.0123365 0.43 0.217649 0.838886
vn -0.937951 -0.326095 -0.11794
v 0.125556 0.0126131 0.012068 0.43 0.217649 0.838886
vn -0.451054 0.889527 -0.0727496
v 0.134325 0.0140469 0.0120563 0.43 0.217649 0.838886
vn -0.0501937 0.308222 -0.949989
v 0.134325 0.00478573 0.0120563 0.43 0.217649 0.838886
vn 0.0139619 -0.085811 -0.996214
v 0.145927 0.000688207 0.0133696 0.43 0.217649 0.838886
vn 0.00769399 -0.730438 -0.682935
v 0.129795 -0.00178192 0.028738 0.43 0.217649 0.838886
vn -0.172 -0.981522 -0.083847
v 0.128223 -0.00143709 0.0479588 0.43 0.217649 0.838886
vn -0.535521 -0.844117 0.026157
v 0.125556 0.00316537 0.0542509 0.43 0.217649 0.838886
vn -0.880771 -0.47354 0.0011092
v 0.136078 -0.000295268 0.0189613 0.43 0.217649 0.838886
vn -0.0926234 -0.963272 -0.252048
v 0.130071 0.013352 0.0125116 0.43 0.217649 0.838886
vn -0.161636 0.986848 0.00196602
v 0.125556 0.0124794 0.0716739 0.43 0.217649 0.838886
vn -0.693533 0.718146 0.0572472
v 0.148058 0.0161775 0.0716739 0.43 0.217649 0.838886
vn -0.112113 0.99356 0.0163861
v 0.147471 0.0161775 0.0246231 0.43 0.217649 0.838886
vn -0.069594 0.997575 0.00075547
v 0.14742 0.0161775 0.0120622 0.43 0.217649 0.838886
vn -0.0142225 0.999536 -0.0269322
v 0.17135 0.0161775 0.0120622 0.43 0.217649 0.838886
vn 0.0176017 0.0262637 -0.9995
v 0.17135 0.0107517 0.0120622 0.43 0.217649 0.838886
vn 0.0111498 -0.0679683 -0.997625
v 0.148754 0.00113508 0.0134105 0.43 0.217649 0.838886
vn 0.13228 -0.774497 -0.618593
v 0.164335 -0.00179247 0.0261757 0.43 0.217649 0.838886
vn 0.168338 -0.941356 -0.292422
v 0.157935 -0.00179247 0.024197 0.43 0.217649 0.838886
vn 0.033462 -0.981066 -0.19076
v 0.149427 -0.00179247 0.0235607 0.43 0.217649 0.838886
vn -0.0241137 -0.982075 -0.18694
v 0.177792 0.0117739 0.012068 0.43 0.217649 0.838886
vn 0.137815 -0.242884 -0.960216
v 0.144985 -0.00179423 0.0259714 0.43 0.217649 0.838886
vn 1.658e-05 -1 -0.000105972
v 0.141789 -0.00179423 0.0277633 0.43 0.217649 0.838886
vn -0.000961307 -0.999999 -0.000826559
v 0.137673 -0.00179423 0.0344757 0.43 0.217649 0.838886
vn -0.000833441 -1 -0.000124538
v 0.138506 -0.00179423 0.0497332 0.43 0.217649 0.838886
vn -0.0170849 -0.999791 0.0111989
v 0.125556 0.00357882 0.0716739 0.43 0.217649 0.838886
vn -0.757816 -0.580866 0.29717
v 0.132527 -0.00131921 0.0576655 0.43 0.217649 0.838886
vn -0.0847833 -0.973949 0.210322
v 0.13139 0.0134347 0.0716856 0.43 0.217649 0.838886
vn -0.000203308 6.35623e-05 1
v 0.134325 0.0139185 0.0716856 0.43 0.217649 0.838886
vn -0.000150734 0.0049268 0.999988
v 0.171364 0.0161793 0.0716739 0.43 0.217649 0.838886
vn -5.52506e-05 0.99982 0.0189774
v 0.171364 0.0161793 0.012068 0.43 0.217649 0.838886
vn -5.40153e-05 1 -2.95033e-05
v 0.1793 0.0161793 0.0133346 0.43 0.217649 0.838886
vn 0.0377288 0.995226 -0.0900105
v 0.153725 0.00192679 0.0134863 0.43 0.217649 0.838886
vn 0.13796 -0.776378 -0.614983
v 0.16295 0.00340816 0.0137257 0.43 0.217649 0.838886
vn 0.175408 -0.800691 -0.572822
v 0.193649 0.00845925 0.0166382 0.43 0.217649 0.838886
vn 0.372341 -0.867629 -0.329517
v 0.170009 -0.00179247 0.0332791 0.43 0.217649 0.838886
vn 0.245153 -0.965253 -0.0904755
v 0.190576 0.0120923 0.0150681 0.43 0.217649 0.838886
vn 0.415362 0.42869 -0.802309
v 0.188047 0.00760069 0.0160604 0.43 0.217649 0.838886
vn 0.157886 -0.45388 -0.876963
v 0.171864 -0.00179247 0.0417717 0.43 0.217649 0.838886
vn 0.189029 -0.981955 -0.00565312
v 0.144985 -0.00179423 0.0541925 0.43 0.217649 0.838886
vn -0.00275708 -0.999986 0.00442229
v 0.146992 0.00161187 0.0688664 0.43 0.217649 0.838886
vn 0.00660062 -0.928643 0.370917
v 0.16203 0.00324278 0.069415 0.43 0.217649 0.838886
vn 0.162151 -0.7426 0.64981
v 0.13139 0.00453063 0.0716856 0.43 0.217649 0.838886
vn 0.0225632 -0.140008 0.989893
v 0.152218 -0.00179247 0.0585352 0.43 0.217649 0.838886
vn -0.0084208 -0.973813 0.227194
v 0.183141 0.0129825 0.0716856 0.43 0.217649 0.838886
vn 0.101033 -0.254663 0.961738
v 0.179959 0.0161793 0.0716739 0.43 0.217649 0.838886
vn 0.00251783 0.984377 0.176058
v 0.187083 0.0161758 0.0486767 0.43 0.217649 0.838886
vn 0.0279389 0.999608 0.00186448
v 0.186989 0.0161758 0.043908 0.43 0.217649 0.838886
vn 0.0570871 0.998361 -0.00413165
v 0.184597 0.0161758 0.0287205 0.43 0.217649 0.838886
vn 0.0465166 0.998885 -0.00809885
v 0.183068 0.0161758 0.0213894 0.43 0.217649 0.838886
vn 0.0524031 0.998467 -0.0178147
v 0.195946 0.0154861 0.0234498 0.43 0.217649 0.838886
vn 0.339131 0.924614 -0.173436
v 0.199294 0.00905743 0.0318316 0.43 0.217649 0.838886
vn 0.549508 -0.832253 -0.0734588
v 0.170929 -0.00179247 0.048023 0.43 0.217649 0.838886
vn 0.215758 -0.969728 0.114352
v 0.199577 0.00906271 0.0568425 0.43 0.217649 0.838886
vn 0.551477 -0.83028 0.0806808
v 0.165914 -0.00179247 0.0532353 0.43 0.217649 0.838886
vn 0.171651 -0.970101 0.171581
v 0.162218 -0.00179247 0.0567374 0.43 0.217649 0.838886
vn 0.15658 -0.938869 0.306608
v 0.194308 0.00847333 0.0629011 0.43 0.217649 0.838886
vn 0.346637 -0.813205 0.467484
v 0.183865 0.0161758 0.0709385 0.43 0.217649 0.838886
vn 0.524057 0.603926 0.600532
v 0.185757 0.0161758 0.0623525 0.43 0.217649 0.838886
vn 0.0485532 0.998796 0.00701779
v 0.195584 0.0155019 0.0599769 0.43 0.217649 0.838886
vn 0.372238 0.882651 0.286996
v 0.198751 0.0153453 0.0465229 0.43 0.217649 0.838886
vn 0.555571 0.831435 -0.00749453
v 0.197801 0.013389 0.0288664 0.43 0.217649 0.838886
vn 0.933465 0.340934 -0.111385
v 0.197432 0.0151641 0.0561012 0.43 0.217649 0.838886
vn 0.873321 0.444015 0.200404
f 1//1 2//2 3//3
f 1//1 3//3 4//4
f 1//1 4//4 5//5
f 1//1 5//5 6//6
f 1//1 6//6 2//2
f 2//2 7//7 8//8
f 2//2 8//8 9//9
f 2//2 9//9 27//27
f 2//2 27//27 12//12
f 2//2 12//12 3//3
f 2//2 6//6 10//10
f 2//2 10//10 7//7
f 3//3 11//11 4//4
f 3//3 12//12 13//13
f 3//3 13//13 11//11
f 4//4 11//11 14//14
f 4//4 14//14 15//15
f 4//4 15//15 16//16
f 4//4 16//16 17//17
f 4//4 17//17 5//5
f 5//5 17//17 6//6
f 6//6 18//18 19//19
f 6//6 19//19 20//20
f 6//6 20//20 21//21
f 6//6 21//21 10//10
f 6//6 17//17 22//22
f 6//6 22//22 18//18
f 7//7 10//10 21//21
f 7//7 21//21 23//23
f 7//7 23//23 24//24
f 7//7 24//24 25//25
f 7//7 25//25 26//26
f 7//7 26//26 8//8
f 8//8 27//27 9//9
f 8//8 26//26 28//28
f 8//8 28//28 27//27
f 11//11 13//13 14//14
f 12//12 27//27 44//44
f 12//12 44//44 29//29
f 12//12 29//29 30//30
f 12//12 30//30 13//13
f 13//13 30//30 31//31
f 13//13 31//31 14//14
f 14//14 31//31 15//15
f 15//15 31//31 32//32
f 15//15 32//32 16//16
f 16//16 32//32 33//33
f 16//16 33//33 22//22
f 16//16 22//22 17//17
f 18//18 34//34 19//19
f 18//18 22//22 34//34
f 19//19 35//35 36//36
f 19//19 36//36 37//37
f 19//19 37//37 23//23
f 19//19 23//23 20//20
f 19//19 34//34 35//35
f 20//20 23//23 21//21
f 22//22 35//35 34//34
f 22//22 33//33 38//38
f 22//22 38//38 36//36
f 22//22 36//36 39//39
f 22//22 39//39 35//35
f 23//23 37//37 40//40
f 23//23 40//40 41//41
f 23//23 41//41 26//26
f 23//23 26//26 25//25
f 23//23 25//25 24//24
f 26//26 41//41 28//28
f 27//27 28//28 42//42
f 27//27 42//42 43//43
f 27//27 43//43 44//44
f 28//28 41//41 45//45
f 28//28 45//45 42//42
f 29//29 44//44 46//46
f 29//29 46//46 30//30
f 30//30 46//46 47//47
f 30//30 47//47 31//31
f 31//31 47//47 33//33
f 31//31 33//33 32//32
f 33//33 47//47 48//48
f 33//33 48//48 49//49
f 33//33 49//49 50//50
f 33//33 50//50 51//51
f 33//33 51//51 52//52
f 33//33 52//52 38//38
f 35//35 39//39 36//36
f 36//36 38//38 52//52
f 36//36 52//52 53//53
f 36//36 53//53 37//37
f 37//37 53//53 40//40
f 40//40 54//54 41//41
f 40//40 53//53 55//55
f 40//40 55//55 54//54
f 41//41 54//54 56//56
f 41//41 56//56 57//57
f 41//41 57//57 45//45
f 42//42 45//45 57//57
f 42//42 57//57 43//43
f 43//43 57//57 58//58
f 43//43 58//58 46//46
f 43//43 46//46 44//44
f 46//46 58//58 59//59
f 46//46 59//59 47//47
f 47//47 59//59 60//60
f 47//47 60//60 48//48
f 48//48 60//60 61//61
f 48//48 61//61 62//62
f 48//48 62//62 49//49
f 49//49 62//62 52//52
f 49//49 52//52 50//50
f 50//50 52//52 51//51
f 52//52 62//62 63//63
f 52//52 63//63 53//53
f 53//53 63//63 62//62
f 53//53 62//62 55//55
f 54//54 55//55 58//58
f 54//54 58//58 56//56
f 55//55 62//62 64//64
f 55//55 64//64 61//61
f 55//55 61//61 58//58
f 56//56 58//58 57//57
f 58//58 61//61 59//59
f 59//59 61//61 60//60
f 61//61 64//64 62//62
