# Created by Open3D 
# object name: top_watertight_tiny_part3
# number of vertices: 61
# number of triangles: 118
v 0.187099 0.0161806 0.0486647 0.910126 0.521689 0.12337
vn 0.143366 -0.989666 0.00261748
v 0.18698 0.0161806 0.0439321 0.910126 0.521689 0.12337
vn 0.170793 -0.985073 -0.021462
v 0.18499 0.0202338 0.0403551 0.910126 0.521689 0.12337
vn 0.927848 0.354368 -0.116281
v 0.183165 0.0239148 0.0370991 0.910126 0.521689 0.12337
vn 0.902178 0.421553 -0.0914757
v 0.184127 0.0227923 0.0577081 0.910126 0.521689 0.12337
vn 0.91095 0.4114 0.0303413
v 0.185758 0.0161806 0.062349 0.910126 0.521689 0.12337
vn 0.460207 -0.884581 0.0756658
v 0.158803 0.0161795 0.0716767 0.910126 0.521689 0.12337
vn 2.55123e-05 -0.999883 0.015309
v 0.158803 0.0161795 0.0180493 0.910126 0.521689 0.12337
vn 3.05867e-05 -1 -1.41018e-05
v 0.184592 0.0161806 0.0287161 0.910126 0.521689 0.12337
vn 0.39064 -0.917695 -0.0723568
v 0.183851 0.0202338 0.0331094 0.910126 0.521689 0.12337
vn 0.928502 0.337983 -0.15379
v 0.182527 0.0252467 0.0451978 0.910126 0.521689 0.12337
vn 0.863341 0.504407 -0.0146994
v 0.183551 0.0202338 0.0316694 0.910126 0.521689 0.12337
vn 0.908081 0.373293 -0.189842
v 0.179933 0.0205428 0.0149767 0.910126 0.521689 0.12337
vn 0.872066 0.38115 -0.306962
v 0.180871 0.0276718 0.0339256 0.910126 0.521689 0.12337
vn 0.669089 0.735907 -0.103728
v 0.181951 0.0266793 0.0613768 0.910126 0.521689 0.12337
vn 0.895389 0.440634 0.0641895
v 0.181135 0.0281365 0.0627526 0.910126 0.521689 0.12337
vn 0.266032 0.961383 0.0704893
v 0.184091 0.0161806 0.0701909 0.910126 0.521689 0.12337
vn 0.568491 -0.813202 0.124584
v 0.183618 0.0161806 0.0716767 0.910126 0.521689 0.12337
vn 0.0312004 -0.997052 0.0700929
v 0.174671 0.0173522 0.0908549 0.910126 0.521689 0.12337
vn 0.0394851 -0.953556 0.298617
v 0.148055 0.0161795 0.0716767 0.910126 0.521689 0.12337
vn -0.974712 0.212787 0.0682561
v 0.147436 0.0161795 0.0180493 0.910126 0.521689 0.12337
vn -7.7907e-06 -1 -1.71547e-05
v 0.1703 0.0161806 -0.00283488 0.910126 0.521689 0.12337
vn 0.0252223 -0.826476 -0.562406
v 0.171561 0.0161806 -0.00150497 0.910126 0.521689 0.12337
vn 0.215203 -0.969053 -0.12093
v 0.179894 0.0161806 0.0145273 0.910126 0.521689 0.12337
vn 0.0785167 -0.996171 -0.0384524
v 0.181517 0.0161806 0.0180493 0.910126 0.521689 0.12337
vn 0.189302 -0.97805 -0.087085
v 0.183055 0.0161806 0.021397 0.910126 0.521689 0.12337
vn 0.130239 -0.990772 -0.0375369
v 0.180946 0.0191277 0.0170587 0.910126 0.521689 0.12337
vn 0.925294 0.269648 -0.266684
v 0.177087 0.0262942 0.0180493 0.910126 0.521689 0.12337
vn 0.727591 0.62752 -0.277181
v 0.178467 0.0261819 0.0214245 0.910126 0.521689 0.12337
vn 0.811144 0.533509 -0.239611
v 0.179921 0.0191277 0.01483 0.910126 0.521689 0.12337
vn 0.897791 0.0371014 -0.438856
v 0.17583 0.016245 0.00641945 0.910126 0.521689 0.12337
vn 0.886595 0.0394694 -0.460859
v 0.172164 0.0196966 0.000430275 0.910126 0.521689 0.12337
vn 0.740608 0.452913 -0.496356
v 0.175306 0.0264359 0.0137019 0.910126 0.521689 0.12337
vn 0.646682 0.661343 -0.380036
v 0.180276 0.0275185 0.0316694 0.910126 0.521689 0.12337
vn 0.538012 0.819336 -0.19807
v 0.175601 0.027357 0.0184987 0.910126 0.521689 0.12337
vn -0.122545 0.992424 -0.00880582
v 0.168408 0.0262474 0.0908641 0.910126 0.521689 0.12337
vn -0.167644 0.984192 0.0571032
v 0.17745 0.0275197 0.0716859 0.910126 0.521689 0.12337
vn 0.636535 0.705532 0.311525
v 0.180414 0.0202432 0.0799313 0.910126 0.521689 0.12337
vn 0.778901 0.535881 0.325798
v 0.183327 0.0173522 0.0716859 0.910126 0.521689 0.12337
vn 0.915044 0.350747 0.199174
v 0.183035 0.0173522 0.0730158 0.910126 0.521689 0.12337
vn 0.942701 0.180829 0.280384
v 0.181419 0.0173522 0.078097 0.910126 0.521689 0.12337
vn 0.939599 0.0257646 0.341307
v 0.179531 0.0173522 0.0825911 0.910126 0.521689 0.12337
vn 0.858286 -0.237991 0.454649
v 0.155256 0.0192202 0.0908641 0.910126 0.521689 0.12337
vn 8.51991e-05 -0.0011804 0.999999
v 0.152836 0.0173522 0.0908549 0.910126 0.521689 0.12337
vn -0.218379 -0.955519 0.198227
v 0.178163 0.0192202 0.084187 0.910126 0.521689 0.12337
vn 0.840753 0.212121 0.498135
v 0.177103 0.01948 0.0857829 0.910126 0.521689 0.12337
vn 0.766143 0.416429 0.489502
v 0.174194 0.0188539 0.0908549 0.910126 0.521689 0.12337
vn 0.663658 0.360597 0.655383
v 0.157002 0.0238481 0.0908641 0.910126 0.521689 0.12337
vn -0.492887 0.867737 0.0639839
v 0.149974 0.0230182 -0.00283488 0.910126 0.521689 0.12337
vn -0.452053 0.890807 -0.0459468
v 0.146833 0.0161806 -0.00282571 0.910126 0.521689 0.12337
vn -0.958738 0.283985 -0.0131618
v 0.147467 0.0161795 0.0246254 0.910126 0.521689 0.12337
vn -0.000105353 -1 1.21567e-06
v 0.149998 0.0161806 -0.00283488 0.910126 0.521689 0.12337
vn -3.69949e-05 -0.99551 -0.0946616
v 0.169291 0.019054 -0.00283488 0.910126 0.521689 0.12337
vn 0.578222 0.369111 -0.72761
v 0.164861 0.0247013 -0.00283488 0.910126 0.521689 0.12337
vn 0.523464 0.491165 -0.696235
v 0.168546 0.0247879 0.00145752 0.910126 0.521689 0.12337
vn 0.585949 0.679234 -0.441934
v 0.167817 0.0260742 0.00404396 0.910126 0.521689 0.12337
vn -0.128589 0.991475 -0.0210223
v 0.171207 0.0239452 0.0907357 0.910126 0.521689 0.12337
vn 0.69618 0.54785 0.46389
v 0.171849 0.0265763 0.0852601 0.910126 0.521689 0.12337
vn 0.649889 0.679494 0.340489
v 0.163347 0.0253357 -0.00283488 0.910126 0.521689 0.12337
vn -0.160065 0.982691 -0.0932603
v 0.180769 0.0192202 0.0792893 0.910126 0.521689 0.12337
vn 0.933625 0.107806 0.341646
v 0.149067 0.0191266 -0.00283488 0.910126 0.521689 0.12337
vn -0.000390888 -1.35164e-06 -1
f 1//1 2//2 3//3
f 1//1 3//3 4//4
f 1//1 4//4 5//5
f 1//1 5//5 6//6
f 1//1 6//6 7//7
f 1//1 7//7 8//8
f 1//1 8//8 2//2
f 2//2 8//8 9//9
f 2//2 9//9 3//3
f 3//3 9//9 10//10
f 3//3 10//10 4//4
f 4//4 11//11 5//5
f 4//4 10//10 12//12
f 4//4 12//12 13//13
f 4//4 13//13 14//14
f 4//4 14//14 11//11
f 5//5 11//11 15//15
f 5//5 15//15 6//6
f 6//6 15//15 16//16
f 6//6 16//16 17//17
f 6//6 17//17 7//7
f 7//7 17//17 18//18
f 7//7 18//18 19//19
f 7//7 19//19 44//44
f 7//7 44//44 20//20
f 7//7 20//20 51//51
f 7//7 51//51 21//21
f 7//7 21//21 8//8
f 8//8 21//21 52//52
f 8//8 52//52 22//22
f 8//8 22//22 23//23
f 8//8 23//23 24//24
f 8//8 24//24 25//25
f 8//8 25//25 26//26
f 8//8 26//26 9//9
f 9//9 26//26 27//27
f 9//9 27//27 13//13
f 9//9 13//13 12//12
f 9//9 12//12 10//10
f 11//11 16//16 15//15
f 11//11 14//14 16//16
f 13//13 28//28 29//29
f 13//13 29//29 14//14
f 13//13 27//27 25//25
f 13//13 25//25 30//30
f 13//13 30//30 31//31
f 13//13 31//31 23//23
f 13//13 23//23 32//32
f 13//13 32//32 33//33
f 13//13 33//33 28//28
f 14//14 29//29 34//34
f 14//14 34//34 35//35
f 14//14 35//35 16//16
f 16//16 36//36 37//37
f 16//16 37//37 38//38
f 16//16 38//38 39//39
f 16//16 39//39 17//17
f 16//16 35//35 36//36
f 17//17 39//39 40//40
f 17//17 40//40 41//41
f 17//17 41//41 18//18
f 18//18 41//41 42//42
f 18//18 42//42 19//19
f 19//19 36//36 43//43
f 19//19 43//43 44//44
f 19//19 42//42 45//45
f 19//19 45//45 46//46
f 19//19 46//46 47//47
f 19//19 47//47 36//36
f 20//20 44//44 48//48
f 20//20 48//48 49//49
f 20//20 49//49 50//50
f 20//20 50//50 51//51
f 21//21 51//51 50//50
f 21//21 50//50 52//52
f 22//22 52//52 61//61
f 22//22 61//61 49//49
f 22//22 49//49 59//59
f 22//22 59//59 54//54
f 22//22 54//54 53//53
f 22//22 53//53 32//32
f 22//22 32//32 23//23
f 23//23 31//31 24//24
f 24//24 31//31 30//30
f 24//24 30//30 25//25
f 25//25 27//27 26//26
f 28//28 34//34 29//29
f 28//28 33//33 34//34
f 32//32 53//53 54//54
f 32//32 54//54 55//55
f 32//32 55//55 33//33
f 33//33 55//55 56//56
f 33//33 56//56 35//35
f 33//33 35//35 34//34
f 35//35 56//56 36//36
f 36//36 48//48 43//43
f 36//36 47//47 57//57
f 36//36 57//57 58//58
f 36//36 58//58 37//37
f 36//36 56//56 59//59
f 36//36 59//59 49//49
f 36//36 49//49 48//48
f 37//37 58//58 38//38
f 38//38 42//42 60//60
f 38//38 60//60 40//40
f 38//38 40//40 39//39
f 38//38 58//58 57//57
f 38//38 57//57 46//46
f 38//38 46//46 45//45
f 38//38 45//45 42//42
f 40//40 60//60 41//41
f 41//41 60//60 42//42
f 43//43 48//48 44//44
f 46//46 57//57 47//47
f 49//49 61//61 50//50
f 50//50 61//61 52//52
f 54//54 59//59 55//55
f 55//55 59//59 56//56
