# Created by Open3D 
# object name: top_watertight_tiny_part0
# number of vertices: 38
# number of triangles: 72
v 0.152877 -0.0153819 0.023065 0.165419 0.656141 0.127313
vn 0.00867759 -0.145048 -0.989387
v 0.146577 -0.0173701 0.0261313 0.165419 0.656141 0.127313
vn -0.0747887 -0.910257 -0.407233
v 0.148537 -0.00179423 0.023948 0.165419 0.656141 0.127313
vn -0.0599269 0.991358 -0.116697
v 0.149413 -0.00179423 0.0235448 0.165419 0.656141 0.127313
vn 0.0128799 0.0689428 -0.997537
v 0.156615 -0.00179423 0.0240523 0.165419 0.656141 0.127313
vn 0.0705023 0.0933993 -0.993129
v 0.158748 -0.00242305 0.0241705 0.165419 0.656141 0.127313
vn 0.208499 0.000938479 -0.978022
v 0.165287 -0.0141637 0.0258045 0.165419 0.656141 0.127313
vn 0.359922 -0.375322 -0.85416
v 0.142948 -0.0180334 0.029893 0.165419 0.656141 0.127313
vn -0.167444 -0.930749 -0.325068
v 0.14129 -0.00179423 0.0280295 0.165419 0.656141 0.127313
vn -0.699475 -0.0224643 -0.714304
v 0.169838 -0.0136531 0.029893 0.165419 0.656141 0.127313
vn 0.167532 -0.983815 -0.0635672
v 0.170366 -0.0135939 0.0303727 0.165419 0.656141 0.127313
vn 0.714107 -0.678334 -0.172959
v 0.173572 -0.0138041 0.0457878 0.165419 0.656141 0.127313
vn 0.525679 -0.835218 0.161469
v 0.15924 -0.00179423 0.0243131 0.165419 0.656141 0.127313
vn 0.0651856 0.943011 -0.326314
v 0.162897 -0.00179423 0.0253074 0.165419 0.656141 0.127313
vn 0.258432 0.177065 -0.949664
v 0.163612 -0.00179423 0.0255021 0.165419 0.656141 0.127313
vn 0.616793 0.238566 -0.750102
v 0.169842 -0.0136514 0.029893 0.165419 0.656141 0.127313
vn 0.662164 0.071455 -0.745945
v 0.142268 -0.0181565 0.0306022 0.165419 0.656141 0.127313
vn -0.159314 -0.977372 -0.139149
v 0.137703 -0.00179423 0.0343291 0.165419 0.656141 0.127313
vn -0.923068 -0.0551912 -0.380656
v 0.170021 -0.00179423 0.0332652 0.165419 0.656141 0.127313
vn 0.519571 0.830604 -0.200356
v 0.171869 -0.00179423 0.041762 0.165419 0.656141 0.127313
vn 0.699743 0.708054 -0.0949725
v 0.169673 -0.0121015 0.029893 0.165419 0.656141 0.127313
vn 0.664399 0.0728588 -0.743818
v 0.169662 -0.0120145 0.029893 0.165419 0.656141 0.127313
vn 0.782689 0.169328 -0.598937
v 0.170943 -0.00179423 0.0480302 0.165419 0.656141 0.127313
vn 0.309802 0.937201 0.16024
v 0.165928 -0.00179423 0.0532486 0.165419 0.656141 0.127313
vn 0.241318 0.9402 0.240394
v 0.16295 -0.00179423 0.0560541 0.165419 0.656141 0.127313
vn 0.604309 0.47217 0.641767
v 0.160634 -0.0158941 0.0579245 0.165419 0.656141 0.127313
vn 0.277165 -0.877474 0.391431
v 0.165087 -0.00179423 0.0268127 0.165419 0.656141 0.127313
vn 0.521953 0.709389 -0.473639
v 0.139403 -0.018567 0.0400619 0.165419 0.656141 0.127313
vn -0.712667 -0.701382 -0.0129805
v 0.137622 -0.00179423 0.0345933 0.165419 0.656141 0.127313
vn -0.864629 0.501402 0.0318198
v 0.167445 -0.00179423 0.029893 0.165419 0.656141 0.127313
vn 0.487013 0.790002 -0.372446
v 0.162218 -0.00179423 0.0567425 0.165419 0.656141 0.127313
vn 0.0877845 0.930739 0.354992
v 0.152968 -0.00179423 0.0585225 0.165419 0.656141 0.127313
vn 0.0621674 0.929482 0.363591
v 0.151462 -0.00179423 0.0585816 0.165419 0.656141 0.127313
vn -0.202258 0.79193 0.576141
v 0.151472 -0.0161191 0.0582444 0.165419 0.656141 0.127313
vn -0.448424 -0.20752 0.869397
v 0.14078 -0.0180367 0.0491949 0.165419 0.656141 0.127313
vn -0.59692 -0.640977 0.48253
v 0.138256 -0.00179423 0.0493444 0.165419 0.656141 0.127313
vn -0.9511 0.297412 0.0833897
v 0.138728 -0.00179423 0.049991 0.165419 0.656141 0.127313
vn -0.451938 0.655736 0.604783
v 0.138305 -0.00179423 0.0496434 0.165419 0.656141 0.127313
vn -0.492169 0.793037 0.358973
f 1//1 2//2 3//3
f 1//1 3//3 4//4
f 1//1 4//4 5//5
f 1//1 5//5 6//6
f 1//1 6//6 7//7
f 1//1 7//7 2//2
f 2//2 8//8 9//9
f 2//2 9//9 3//3
f 2//2 7//7 10//10
f 2//2 10//10 11//11
f 2//2 11//11 12//12
f 2//2 12//12 8//8
f 3//3 9//9 18//18
f 3//3 18//18 29//29
f 3//3 29//29 36//36
f 3//3 36//36 38//38
f 3//3 38//38 37//37
f 3//3 37//37 33//33
f 3//3 33//33 32//32
f 3//3 32//32 31//31
f 3//3 31//31 25//25
f 3//3 25//25 24//24
f 3//3 24//24 23//23
f 3//3 23//23 20//20
f 3//3 20//20 19//19
f 3//3 19//19 30//30
f 3//3 30//30 27//27
f 3//3 27//27 15//15
f 3//3 15//15 14//14
f 3//3 14//14 13//13
f 3//3 13//13 5//5
f 3//3 5//5 4//4
f 5//5 13//13 6//6
f 6//6 13//13 14//14
f 6//6 14//14 7//7
f 7//7 14//14 15//15
f 7//7 15//15 16//16
f 7//7 16//16 10//10
f 8//8 17//17 9//9
f 8//8 12//12 17//17
f 9//9 17//17 18//18
f 10//10 16//16 11//11
f 11//11 19//19 20//20
f 11//11 20//20 12//12
f 11//11 16//16 21//21
f 11//11 21//21 22//22
f 11//11 22//22 19//19
f 12//12 20//20 23//23
f 12//12 23//23 24//24
f 12//12 24//24 25//25
f 12//12 25//25 26//26
f 12//12 26//26 17//17
f 15//15 27//27 16//16
f 16//16 27//27 21//21
f 17//17 28//28 18//18
f 17//17 26//26 28//28
f 18//18 28//28 29//29
f 19//19 22//22 30//30
f 21//21 27//27 22//22
f 22//22 27//27 30//30
f 25//25 31//31 26//26
f 26//26 32//32 33//33
f 26//26 33//33 34//34
f 26//26 34//34 35//35
f 26//26 35//35 28//28
f 26//26 31//31 32//32
f 28//28 35//35 36//36
f 28//28 36//36 29//29
f 33//33 37//37 34//34
f 34//34 37//37 35//35
f 35//35 37//37 38//38
f 35//35 38//38 36//36
