# Created by Open3D 
# object name: top_watertight_tiny_part2
# number of vertices: 59
# number of triangles: 114
v 0.125536 0.00359826 0.13001 0.017842 0.0554469 0.621944
vn 0.996338 -0.0620533 0.0588296
v 0.107025 0.000916903 0.132959 0.017842 0.0554469 0.621944
vn 0.030412 0.0350828 0.998922
v 0.111637 0.00158322 0.13221 0.017842 0.0554469 0.621944
vn 0.155917 -0.984209 0.0838026
v 0.0892848 -0.00215073 0.129938 0.017842 0.0554469 0.621944
vn 0.155856 -0.984254 0.0833792
v 0.0776231 -0.00416255 0.127964 0.017842 0.0554469 0.621944
vn 0.137685 -0.988962 0.054752
v 0.125536 0.00356607 0.128702 0.017842 0.0554469 0.621944
vn 0.159649 -0.987157 0.00579043
v 0.125536 0.0124535 0.128583 0.017842 0.0554469 0.621944
vn 0.142803 0.308749 0.940362
v 0.0978332 0.00733221 0.132448 0.017842 0.0554469 0.621944
vn -0.104901 0.179977 0.978061
v 0.0810319 -0.00357027 0.128547 0.017842 0.0554469 0.621944
vn -0.144425 -0.128735 0.981106
v 0.0810319 0.00406501 0.129463 0.017842 0.0554469 0.621944
vn -0.200604 0.141669 0.969375
v 0.077106 0.00328925 0.128749 0.017842 0.0554469 0.621944
vn -0.34665 0.354288 0.868513
v 0.076135 0.00307358 0.128285 0.017842 0.0554469 0.621944
vn -0.445354 0.0541637 0.893715
v 0.0578351 -0.000930756 0.119402 0.017842 0.0554469 0.621944
vn -0.579131 0.0241517 0.814877
v 0.0479359 -0.00872376 0.110542 0.017842 0.0554469 0.621944
vn -0.634446 -0.325454 0.701112
v 0.0186392 -0.0137292 0.0783263 0.017842 0.0554469 0.621944
vn -0.561932 -0.79286 0.235809
v 0.02342 -0.01305 0.0788496 0.017842 0.0554469 0.621944
vn 0.140483 -0.990012 0.0118447
v 0.025404 -0.0127603 0.0790755 0.017842 0.0554469 0.621944
vn 0.157321 -0.987544 0.00255653
v 0.125536 0.00315405 0.0542803 0.017842 0.0554469 0.621944
vn 0.159812 -0.987146 0.00140092
v 0.125536 0.0176971 0.124611 0.017842 0.0554469 0.621944
vn 0.317287 0.607006 0.72861
v 0.105453 0.0154664 0.128868 0.017842 0.0554469 0.621944
vn -0.0348425 0.570316 0.820686
v 0.104809 0.0130683 0.12995 0.017842 0.0554469 0.621944
vn 0.0633556 0.376348 0.924309
v 0.109864 0.0126209 0.129724 0.017842 0.0554469 0.621944
vn 0.0718675 0.326294 0.942532
v 0.100166 0.00924747 0.131627 0.017842 0.0554469 0.621944
vn 0.0621378 0.334012 0.940519
v 0.104303 0.00875819 0.131472 0.017842 0.0554469 0.621944
vn 0.0736329 0.315635 0.946019
v 0.0820134 0.0115747 0.126573 0.017842 0.0554469 0.621944
vn -0.204849 0.468838 0.859202
v 0.0810319 0.0114202 0.126216 0.017842 0.0554469 0.621944
vn -0.183389 0.981168 0.0606509
v 0.0688109 0.00941163 0.121697 0.017842 0.0554469 0.621944
vn -0.28731 0.876305 0.386707
v 0.0599564 0.00794702 0.118427 0.017842 0.0554469 0.621944
vn -0.537008 0.40597 0.739467
v 0.0444532 0.00548133 0.103835 0.017842 0.0554469 0.621944
vn -0.622981 0.53435 0.571283
v 0.0367702 0.00425814 0.0965927 0.017842 0.0554469 0.621944
vn -0.259561 0.961936 0.0854834
v 0.0461946 7.99843e-05 0.107403 0.017842 0.0554469 0.621944
vn -0.714523 0.125086 0.688339
v 0.0186392 -0.00533102 0.0776247 0.017842 0.0554469 0.621944
vn -0.847484 0.304861 0.434547
v 0.017721 -0.00468402 0.0476802 0.017842 0.0554469 0.621944
vn -0.966859 0.254755 0.0168252
v 0.017721 -0.0138708 0.0476921 0.017842 0.0554469 0.621944
vn -0.998626 -0.0501807 0.0151081
v 0.017721 -0.0139931 0.0167606 0.017842 0.0554469 0.621944
vn 0.122837 -0.992427 -0.000850721
v 0.0429229 -0.00995982 0.0114685 0.017842 0.0554469 0.621944
vn 0.144559 -0.899734 -0.411802
v 0.125536 0.00337294 0.012634 0.017842 0.0554469 0.621944
vn 0.169297 -0.985551 -0.00526411
v 0.125536 0.0188913 0.123219 0.017842 0.0554469 0.621944
vn -0.147467 0.989063 0.00268652
v 0.104303 0.0152765 0.128749 0.017842 0.0554469 0.621944
vn -0.164804 0.986242 0.0128797
v 0.0358732 0.0040972 0.0946186 0.017842 0.0554469 0.621944
vn -0.203428 0.979012 0.0123112
v 0.0231245 0.00179567 0.0669336 0.017842 0.0554469 0.621944
vn -0.555305 0.825855 0.0979782
v 0.0225229 0.00207893 0.034468 0.017842 0.0554469 0.621944
vn -0.205645 0.978626 -0.00145225
v 0.017721 -0.00489003 0.0172362 0.017842 0.0554469 0.621944
vn -0.848678 0.467755 -0.246883
v 0.0229767 0.00185683 0.059275 0.017842 0.0554469 0.621944
vn -0.796323 0.60454 0.0200296
v 0.017721 -0.0139094 0.016713 0.017842 0.0554469 0.621944
vn -0.965708 -0.0169715 -0.259075
v 0.0275675 -0.0121841 0.0114685 0.017842 0.0554469 0.621944
vn -0.145524 -0.364813 -0.919638
v 0.0450759 -0.00960574 0.0114685 0.017842 0.0554469 0.621944
vn 0.0033233 -0.0187951 -0.999818
v 0.125536 0.0033826 0.0114923 0.017842 0.0554469 0.621944
vn 0.763734 -0.440566 -0.471818
v 0.125536 0.018695 0.114776 0.017842 0.0554469 0.621944
vn 0.0374355 0.999027 -0.0233171
v 0.0358098 0.00419376 0.0114685 0.017842 0.0554469 0.621944
vn -0.113023 0.98341 -0.141884
v 0.0309552 0.0032989 0.0114685 0.017842 0.0554469 0.621944
vn -0.31826 0.594251 -0.738631
v 0.0270504 0.00255855 0.0189487 0.017842 0.0554469 0.621944
vn -0.570277 0.80442 -0.166412
v 0.0279791 -0.00341898 0.0114804 0.017842 0.0554469 0.621944
vn -0.499997 0.217659 -0.838229
v 0.0279369 -0.00363465 0.0114685 0.017842 0.0554469 0.621944
vn -0.0467665 0.0118365 -0.998836
v 0.0276942 -0.00463573 0.0114685 0.017842 0.0554469 0.621944
vn -0.296852 0.0237023 -0.954629
v 0.017721 -0.0130854 0.0167011 0.017842 0.0554469 0.621944
vn -0.912513 0.0146579 -0.408785
v 0.125536 0.00464763 0.0114685 0.017842 0.0554469 0.621944
vn 0.820679 -0.0014335 -0.571387
v 0.125536 0.0186596 0.113289 0.017842 0.0554469 0.621944
vn 0.0838732 0.994758 -0.0584883
v 0.125536 0.0126209 0.0114685 0.017842 0.0554469 0.621944
vn 0.178684 0.948208 -0.262627
f 1//1 2//2 3//3
f 1//1 3//3 4//4
f 1//1 4//4 5//5
f 1//1 5//5 6//6
f 1//1 6//6 18//18
f 1//1 18//18 37//37
f 1//1 37//37 48//48
f 1//1 48//48 57//57
f 1//1 57//57 59//59
f 1//1 59//59 58//58
f 1//1 58//58 49//49
f 1//1 49//49 38//38
f 1//1 38//38 19//19
f 1//1 19//19 7//7
f 1//1 7//7 2//2
f 2//2 8//8 9//9
f 2//2 9//9 5//5
f 2//2 5//5 4//4
f 2//2 4//4 3//3
f 2//2 7//7 8//8
f 5//5 9//9 8//8
f 5//5 8//8 10//10
f 5//5 10//10 11//11
f 5//5 11//11 12//12
f 5//5 12//12 13//13
f 5//5 13//13 14//14
f 5//5 14//14 15//15
f 5//5 15//15 16//16
f 5//5 16//16 17//17
f 5//5 17//17 18//18
f 5//5 18//18 6//6
f 7//7 19//19 20//20
f 7//7 20//20 21//21
f 7//7 21//21 22//22
f 7//7 22//22 23//23
f 7//7 23//23 24//24
f 7//7 24//24 8//8
f 8//8 24//24 23//23
f 8//8 23//23 20//20
f 8//8 20//20 25//25
f 8//8 25//25 10//10
f 10//10 25//25 11//11
f 11//11 25//25 26//26
f 11//11 26//26 27//27
f 11//11 27//27 28//28
f 11//11 28//28 12//12
f 12//12 28//28 13//13
f 13//13 28//28 29//29
f 13//13 29//29 30//30
f 13//13 30//30 31//31
f 13//13 31//31 14//14
f 14//14 31//31 30//30
f 14//14 30//30 32//32
f 14//14 32//32 15//15
f 15//15 32//32 33//33
f 15//15 33//33 34//34
f 15//15 34//34 35//35
f 15//15 35//35 16//16
f 16//16 35//35 17//17
f 17//17 35//35 18//18
f 18//18 35//35 36//36
f 18//18 36//36 37//37
f 19//19 38//38 20//20
f 20//20 39//39 25//25
f 20//20 23//23 21//21
f 20//20 38//38 39//39
f 21//21 23//23 22//22
f 25//25 39//39 26//26
f 26//26 39//39 38//38
f 26//26 38//38 30//30
f 26//26 30//30 27//27
f 27//27 30//30 29//29
f 27//27 29//29 28//28
f 30//30 40//40 41//41
f 30//30 41//41 32//32
f 30//30 38//38 42//42
f 30//30 42//42 40//40
f 32//32 41//41 33//33
f 33//33 42//42 43//43
f 33//33 43//43 56//56
f 33//33 56//56 45//45
f 33//33 45//45 35//35
f 33//33 35//35 34//34
f 33//33 41//41 44//44
f 33//33 44//44 42//42
f 35//35 45//45 46//46
f 35//35 46//46 36//36
f 36//36 46//46 55//55
f 36//36 55//55 54//54
f 36//36 54//54 51//51
f 36//36 51//51 50//50
f 36//36 50//50 59//59
f 36//36 59//59 57//57
f 36//36 57//57 47//47
f 36//36 47//47 48//48
f 36//36 48//48 37//37
f 38//38 49//49 50//50
f 38//38 50//50 42//42
f 40//40 42//42 41//41
f 41//41 42//42 44//44
f 42//42 50//50 51//51
f 42//42 51//51 52//52
f 42//42 52//52 43//43
f 43//43 52//52 51//51
f 43//43 51//51 53//53
f 43//43 53//53 54//54
f 43//43 54//54 55//55
f 43//43 55//55 56//56
f 45//45 56//56 46//46
f 46//46 56//56 55//55
f 47//47 57//57 48//48
f 49//49 58//58 50//50
f 50//50 58//58 59//59
f 51//51 54//54 53//53
