# Created by Open3D 
# object name: top_watertight_tiny_part5
# number of vertices: 60
# number of triangles: 116
v 0.125542 0.00357729 0.0716856 0.0735686 0.816792 0.913253
vn -0.15855 -0.847347 -0.506818
v 0.125542 0.00357063 0.0995219 0.0735686 0.816792 0.913253
vn 0.150639 -0.988589 -0.000209101
v 0.125536 0.00357063 0.10393 0.0735686 0.816792 0.913253
vn -1 -0.00064227 5.00098e-07
v 0.125536 0.0124662 0.0995219 0.0735686 0.816792 0.913253
vn -1 0.000354474 -0.000166687
v 0.125542 0.0124884 0.0716856 0.0735686 0.816792 0.913253
vn -0.381726 0.875167 -0.297269
v 0.182136 0.012202 0.0716856 0.0735686 0.816792 0.913253
vn 0.161409 -0.986886 0.00190958
v 0.125542 0.00356619 0.124178 0.0735686 0.816792 0.913253
vn 0.150755 -0.988571 3.90656e-17
v 0.125536 0.0124907 0.10393 0.0735686 0.816792 0.913253
vn -1 9.45434e-05 0.000204112
v 0.125542 0.00357063 0.128706 0.0735686 0.816792 0.913253
vn 0.151143 -0.988508 0.00258302
v 0.125542 0.00360172 0.130019 0.0735686 0.816792 0.913253
vn -0.985317 0.0200228 0.169554
v 0.125542 0.0188926 0.123224 0.0735686 0.816792 0.913253
vn -0.416115 0.909246 -0.0109957
v 0.125542 0.0186639 0.113294 0.0735686 0.816792 0.913253
vn -0.335912 0.936188 -0.103511
v 0.156997 0.0238489 0.0908712 0.0735686 0.816792 0.913253
vn -0.241765 0.96061 -0.137036
v 0.1684 0.0262515 0.0908712 0.0735686 0.816792 0.913253
vn -0.0673961 0.944123 -0.322628
v 0.155174 0.0173448 0.0716856 0.0735686 0.816792 0.913253
vn -0.0595152 0.707959 -0.703742
v 0.184079 0.0130391 0.0716856 0.0735686 0.816792 0.913253
vn 0.0636701 -0.0193959 -0.997783
v 0.183013 0.0127594 0.0751744 0.0735686 0.816792 0.913253
vn 0.852036 -0.413846 0.320571
v 0.173924 0.0115181 0.0923501 0.0735686 0.816792 0.913253
vn 0.350959 -0.924924 0.146094
v 0.152246 0.00802953 0.117457 0.0735686 0.816792 0.913253
vn 0.46285 -0.745913 0.47894
v 0.127502 0.00388373 0.129705 0.0735686 0.816792 0.913253
vn 0.267871 -0.932904 0.240696
v 0.125542 0.0124618 0.12858 0.0735686 0.816792 0.913253
vn -0.984132 0.0636014 0.16565
v 0.125542 0.0177001 0.124606 0.0735686 0.816792 0.913253
vn -0.83889 0.353789 0.413639
v 0.132252 0.0130058 0.127798 0.0735686 0.816792 0.913253
vn 0.379322 0.26208 0.887372
v 0.129634 0.0128038 0.128152 0.0735686 0.816792 0.913253
vn 0.0795176 0.357303 0.930597
v 0.128063 0.0193211 0.122516 0.0735686 0.816792 0.913253
vn -0.0827335 0.97767 0.193173
v 0.165266 0.0259495 0.0959645 0.0735686 0.816792 0.913253
vn -0.120216 0.992309 0.0295191
v 0.168389 0.0250658 0.0930696 0.0735686 0.816792 0.913253
vn 0.633111 0.590785 0.500143
v 0.170881 0.0242419 0.0908712 0.0735686 0.816792 0.913253
vn 0.687947 0.687987 0.231091
v 0.183311 0.0173448 0.0716856 0.0735686 0.816792 0.913253
vn 0.0542693 0.669297 -0.74101
v 0.183534 0.0167919 0.0716856 0.0735686 0.816792 0.913253
vn 0.178184 0.0268511 -0.983631
v 0.181414 0.0173493 0.0781151 0.0735686 0.816792 0.913253
vn 0.886707 0.3103 0.342732
v 0.178279 0.0133278 0.0862918 0.0735686 0.816792 0.913253
vn 0.869413 -0.0181353 0.493753
v 0.166836 0.0112205 0.103256 0.0735686 0.816792 0.913253
vn 0.753208 -0.112418 0.648105
v 0.163254 0.0197875 0.104952 0.0735686 0.816792 0.913253
vn 0.624261 0.345856 0.700487
v 0.153043 0.0150665 0.114414 0.0735686 0.816792 0.913253
vn 0.568057 0.27191 0.776773
v 0.144848 0.0154707 0.119924 0.0735686 0.816792 0.913253
vn 0.49623 0.364378 0.788026
v 0.142768 0.0150665 0.121226 0.0735686 0.816792 0.913253
vn 0.452432 0.332071 0.827668
v 0.163879 0.0173448 0.104844 0.0735686 0.816792 0.913253
vn 0.674995 0.138741 0.72466
v 0.131152 0.0183219 0.123413 0.0735686 0.816792 0.913253
vn 0.149678 0.690853 0.707332
v 0.142453 0.0213441 0.117468 0.0735686 0.816792 0.913253
vn 0.297612 0.686596 0.663335
v 0.144888 0.0220769 0.11342 0.0735686 0.816792 0.913253
vn -0.107908 0.989373 0.097448
v 0.163518 0.0205691 0.10381 0.0735686 0.816792 0.913253
vn 0.595758 0.593891 0.540709
v 0.158928 0.0245284 0.10381 0.0735686 0.816792 0.913253
vn 0.265693 0.887806 0.375776
v 0.16981 0.0234114 0.0930696 0.0735686 0.816792 0.913253
vn 0.672567 0.518073 0.528444
v 0.171317 0.0236468 0.0908712 0.0735686 0.816792 0.913253
vn 0.76519 0.474544 0.435078
v 0.179517 0.0173493 0.0826088 0.0735686 0.816792 0.913253
vn 0.826023 0.37681 0.419166
v 0.182342 0.0173493 0.0751744 0.0735686 0.816792 0.913253
vn 0.727807 0.646428 0.228971
v 0.183019 0.0173448 0.0730274 0.0735686 0.816792 0.913253
vn 0.698426 0.689169 0.192997
v 0.174675 0.0173493 0.0908712 0.0735686 0.816792 0.913253
vn 0.846312 0.194293 0.49599
v 0.172045 0.0173493 0.0953593 0.0735686 0.816792 0.913253
vn 0.837176 0.0839902 0.540446
v 0.169294 0.014558 0.0995219 0.0735686 0.816792 0.913253
vn 0.820335 0.0359095 0.570755
v 0.168286 0.0150665 0.100544 0.0735686 0.816792 0.913253
vn 0.73987 0.180396 0.648113
v 0.158441 0.0244151 0.104415 0.0735686 0.816792 0.913253
vn 0.392784 0.683761 0.614973
v 0.153421 0.0184618 0.112946 0.0735686 0.816792 0.913253
vn 0.478537 0.501042 0.721082
v 0.167724 0.0173448 0.100544 0.0735686 0.816792 0.913253
vn 0.740433 0.185815 0.645935
v 0.16432 0.0195143 0.10381 0.0735686 0.816792 0.913253
vn 0.715467 0.413907 0.562839
v 0.171432 0.0210998 0.0930696 0.0735686 0.816792 0.913253
vn 0.711424 0.47097 0.521596
v 0.174411 0.0184862 0.0908712 0.0735686 0.816792 0.913253
vn 0.790064 0.41475 0.451422
v 0.173202 0.0181287 0.0930696 0.0735686 0.816792 0.913253
vn 0.7553 0.427008 0.497178
v 0.171454 0.0175003 0.0962101 0.0735686 0.816792 0.913253
vn 0.735645 0.357613 0.575273
f 1//1 2//2 3//3
f 1//1 3//3 4//4
f 1//1 4//4 5//5
f 1//1 5//5 15//15
f 1//1 15//15 29//29
f 1//1 29//29 30//30
f 1//1 30//30 16//16
f 1//1 16//16 6//6
f 1//1 6//6 2//2
f 2//2 7//7 3//3
f 2//2 6//6 7//7
f 3//3 8//8 4//4
f 3//3 7//7 9//9
f 3//3 9//9 10//10
f 3//3 10//10 8//8
f 4//4 8//8 11//11
f 4//4 11//11 12//12
f 4//4 12//12 5//5
f 5//5 12//12 13//13
f 5//5 13//13 14//14
f 5//5 14//14 15//15
f 6//6 16//16 17//17
f 6//6 17//17 18//18
f 6//6 18//18 19//19
f 6//6 19//19 20//20
f 6//6 20//20 9//9
f 6//6 9//9 7//7
f 8//8 10//10 21//21
f 8//8 21//21 22//22
f 8//8 22//22 11//11
f 9//9 20//20 10//10
f 10//10 20//20 23//23
f 10//10 23//23 24//24
f 10//10 24//24 21//21
f 11//11 22//22 25//25
f 11//11 25//25 26//26
f 11//11 26//26 12//12
f 12//12 26//26 13//13
f 13//13 26//26 14//14
f 14//14 26//26 27//27
f 14//14 27//27 28//28
f 14//14 28//28 29//29
f 14//14 29//29 15//15
f 16//16 30//30 17//17
f 17//17 31//31 32//32
f 17//17 32//32 18//18
f 17//17 30//30 31//31
f 18//18 32//32 33//33
f 18//18 33//33 19//19
f 19//19 34//34 35//35
f 19//19 35//35 36//36
f 19//19 36//36 37//37
f 19//19 37//37 23//23
f 19//19 23//23 20//20
f 19//19 33//33 38//38
f 19//19 38//38 34//34
f 21//21 24//24 22//22
f 22//22 24//24 23//23
f 22//22 23//23 39//39
f 22//22 39//39 25//25
f 23//23 37//37 40//40
f 23//23 40//40 39//39
f 25//25 39//39 40//40
f 25//25 40//40 41//41
f 25//25 41//41 26//26
f 26//26 42//42 27//27
f 26//26 41//41 43//43
f 26//26 43//43 42//42
f 27//27 44//44 28//28
f 27//27 42//42 44//44
f 28//28 44//44 45//45
f 28//28 45//45 46//46
f 28//28 46//46 31//31
f 28//28 31//31 47//47
f 28//28 47//47 48//48
f 28//28 48//48 29//29
f 29//29 48//48 30//30
f 30//30 48//48 47//47
f 30//30 47//47 31//31
f 31//31 46//46 32//32
f 32//32 46//46 49//49
f 32//32 49//49 50//50
f 32//32 50//50 51//51
f 32//32 51//51 33//33
f 33//33 51//51 52//52
f 33//33 52//52 34//34
f 33//33 34//34 38//38
f 34//34 53//53 54//54
f 34//34 54//54 35//35
f 34//34 52//52 55//55
f 34//34 55//55 56//56
f 34//34 56//56 57//57
f 34//34 57//57 44//44
f 34//34 44//44 42//42
f 34//34 42//42 53//53
f 35//35 54//54 36//36
f 36//36 54//54 40//40
f 36//36 40//40 37//37
f 40//40 54//54 53//53
f 40//40 53//53 41//41
f 41//41 53//53 43//43
f 42//42 43//43 53//53
f 44//44 57//57 45//45
f 45//45 57//57 58//58
f 45//45 58//58 46//46
f 46//46 58//58 49//49
f 49//49 58//58 50//50
f 50//50 59//59 60//60
f 50//50 60//60 51//51
f 50//50 58//58 59//59
f 51//51 60//60 52//52
f 52//52 60//60 55//55
f 55//55 60//60 56//56
f 56//56 60//60 57//57
f 57//57 60//60 59//59
f 57//57 59//59 58//58
