# Created by Open3D 
# object name: bottom_watertight_tiny_part7
# number of vertices: 58
# number of triangles: 112
v -0.0951343 -0.00999136 -0.000248257 0.965357 0.263795 0.177617
vn 0.635244 0.767997 0.0815206
v -0.106063 -0.00681795 0.00756825 0.965357 0.263795 0.177617
vn 0.259476 0.965441 0.0244272
v -0.106063 -0.00766208 0.00621211 0.965357 0.263795 0.177617
vn 0.092603 -0.870007 0.484266
v -0.114155 -0.0119614 -0.000157491 0.965357 0.263795 0.177617
vn -0.955952 -0.258363 0.139296
v -0.111397 -0.0118322 -0.000467163 0.965357 0.263795 0.177617
vn 0.0893982 -0.904995 0.415923
v -0.106063 -0.0115822 -0.00107049 0.965357 0.263795 0.177617
vn 0.0939932 -0.884678 0.45663
v -0.0951343 -0.0111736 -0.00253875 0.965357 0.263795 0.177617
vn 0.0947448 -0.90912 0.405617
v -0.0951343 -0.013072 -0.0397473 0.965357 0.263795 0.177617
vn 0.956562 -0.179548 -0.229679
v -0.095529 -0.0103424 -0.0431323 0.965357 0.263795 0.177617
vn 0.613817 0.714986 -0.3347
v -0.106063 -0.00661954 -0.0458179 0.965357 0.263795 0.177617
vn 0.273053 0.957013 -0.0978161
v -0.108465 -0.00661954 0.00827836 0.965357 0.263795 0.177617
vn -0.0165081 0.99986 0.00266401
v -0.111396 -0.00680856 0.00845989 0.965357 0.263795 0.177617
vn -0.42757 0.903605 0.0260987
v -0.111396 -0.00766326 0.00708239 0.965357 0.263795 0.177617
vn 0.0703455 -0.865878 0.495284
v -0.114155 -0.0138938 -0.0044822 0.965357 0.263795 0.177617
vn 0.0865891 -0.932793 0.349857
v -0.114155 -0.0104152 0.00254946 0.965357 0.263795 0.177617
vn 0.0492997 -0.866973 0.49591
v -0.0951343 -0.011561 -0.00361726 0.965357 0.263795 0.177617
vn 0.120156 -0.942381 0.312218
v -0.0951343 -0.0136966 -0.0388663 0.965357 0.263795 0.177617
vn 0.931616 -0.296789 -0.209778
v -0.105678 -0.0145912 -0.0405642 0.965357 0.263795 0.177617
vn 0.114298 -0.771696 -0.625637
v -0.111397 -0.0117559 -0.0437516 0.965357 0.263795 0.177617
vn 0.0802981 -0.545803 -0.834057
v -0.114155 -0.0119567 -0.0438691 0.965357 0.263795 0.177617
vn -0.951275 -0.175654 -0.253421
v -0.114155 -0.00866001 -0.0454174 0.965357 0.263795 0.177617
vn -0.877114 0.476199 -0.0625007
v -0.111396 -0.00680856 -0.0460848 0.965357 0.263795 0.177617
vn -0.251608 0.967614 -0.020405
v -0.108458 -0.00661954 -0.0459353 0.965357 0.263795 0.177617
vn -0.0325531 0.997882 -0.0563222
v -0.108465 -0.00661954 -0.0444297 0.965357 0.263795 0.177617
vn -0.0354255 0.999372 -4.86646e-06
v -0.114155 -0.00866001 0.00561413 0.965357 0.263795 0.177617
vn -0.897733 0.43985 0.0246398
v -0.114155 -0.0157852 -0.0101203 0.965357 0.263795 0.177617
vn -0.0341044 -0.949073 0.313204
v -0.110351 -0.0156009 -0.0107717 0.965357 0.263795 0.177617
vn 0.103987 -0.945633 0.308164
v -0.0951343 -0.0145642 -0.0129181 0.965357 0.263795 0.177617
vn 0.140399 -0.947103 0.288589
v -0.0951343 -0.0147967 -0.0373073 0.965357 0.263795 0.177617
vn 0.803613 -0.523708 -0.282731
v -0.111397 -0.0150855 -0.0407137 0.965357 0.263795 0.177617
vn 0.067786 -0.688133 -0.722411
v -0.106061 -0.015784 -0.0381722 0.965357 0.263795 0.177617
vn 0.114608 -0.896985 -0.426946
v -0.114155 -0.0168054 -0.0381936 0.965357 0.263795 0.177617
vn -0.765773 -0.57454 -0.288954
v -0.114155 -0.0154823 -0.0405108 0.965357 0.263795 0.177617
vn -0.984839 -0.140992 -0.10106
v -0.114155 -0.0161139 -0.0112095 0.965357 0.263795 0.177617
vn 0.0718835 -0.970253 0.231173
v -0.0951343 -0.0148976 -0.0143436 0.965357 0.263795 0.177617
vn 0.179816 -0.958064 0.223114
v -0.0951343 -0.0155328 -0.0357589 0.965357 0.263795 0.177617
vn 0.601335 -0.753085 -0.266944
v -0.106061 -0.0167068 -0.0362234 0.965357 0.263795 0.177617
vn 0.114698 -0.921962 -0.369906
v -0.114155 -0.0175756 -0.0365651 0.965357 0.263795 0.177617
vn -0.906767 -0.393387 -0.151724
v -0.114155 -0.0164873 -0.0128219 0.965357 0.263795 0.177617
vn 0.0168121 -0.974327 0.224509
v -0.0951343 -0.0154483 -0.0167142 0.965357 0.263795 0.177617
vn 0.152248 -0.966956 0.204493
v -0.0951343 -0.0167174 -0.031808 0.965357 0.263795 0.177617
vn 0.486431 -0.871596 -0.0608745
v -0.106061 -0.0178069 -0.0327904 0.965357 0.263795 0.177617
vn 0.10715 -0.989679 -0.0951547
v -0.114155 -0.0186134 -0.0335058 0.965357 0.263795 0.177617
vn -0.493917 -0.854609 -0.160278
v -0.114155 -0.0177576 -0.0183426 0.965357 0.263795 0.177617
vn -0.111415 -0.969375 0.21886
v -0.111397 -0.0175169 -0.0185188 0.965357 0.263795 0.177617
vn 0.112202 -0.986546 0.118902
v -0.0951343 -0.0157089 -0.0190047 0.965357 0.263795 0.177617
vn 0.315808 -0.942748 0.107202
v -0.0951343 -0.0166974 -0.0295175 0.965357 0.263795 0.177617
vn 0.325481 -0.945246 0.0239048
v -0.114155 -0.0185782 -0.0255024 0.965357 0.263795 0.177617
vn -0.183908 -0.982887 0.010491
v -0.113187 -0.0177435 -0.0187217 0.965357 0.263795 0.177617
vn 0.0979662 -0.988539 0.114862
v -0.114155 -0.0182976 -0.0228862 0.965357 0.263795 0.177617
vn -0.617923 -0.781542 0.0858106
v -0.111397 -0.0180029 -0.0228062 0.965357 0.263795 0.177617
vn 0.111536 -0.987543 0.110987
v -0.0951343 -0.015838 -0.0201419 0.965357 0.263795 0.177617
vn 0.241695 -0.964221 0.10891
v -0.0951343 -0.0166493 -0.0285831 0.965357 0.263795 0.177617
vn 0.494084 -0.867912 0.0510793
v -0.106061 -0.0177212 -0.0258922 0.965357 0.263795 0.177617
vn 0.11129 -0.992071 0.0583865
v -0.110305 -0.0181591 -0.0253209 0.965357 0.263795 0.177617
vn 0.111577 -0.989576 0.091048
v -0.111397 -0.01828 -0.0253689 0.965357 0.263795 0.177617
vn 0.104647 -0.991999 0.0706243
v -0.106061 -0.017511 -0.0238686 0.965357 0.263795 0.177617
vn 0.113229 -0.987367 0.110838
v -0.0951343 -0.0164837 -0.0258868 0.965357 0.263795 0.177617
vn 0.362551 -0.927517 0.0909346
f 1//1 2//2 3//3
f 1//1 3//3 4//4
f 1//1 4//4 5//5
f 1//1 5//5 6//6
f 1//1 6//6 7//7
f 1//1 7//7 16//16
f 1//1 16//16 28//28
f 1//1 28//28 35//35
f 1//1 35//35 40//40
f 1//1 40//40 46//46
f 1//1 46//46 52//52
f 1//1 52//52 58//58
f 1//1 58//58 53//53
f 1//1 53//53 47//47
f 1//1 47//47 41//41
f 1//1 41//41 36//36
f 1//1 36//36 29//29
f 1//1 29//29 17//17
f 1//1 17//17 8//8
f 1//1 8//8 9//9
f 1//1 9//9 10//10
f 1//1 10//10 2//2
f 2//2 11//11 12//12
f 2//2 12//12 3//3
f 2//2 10//10 11//11
f 3//3 12//12 13//13
f 3//3 13//13 4//4
f 4//4 14//14 5//5
f 4//4 13//13 15//15
f 4//4 15//15 25//25
f 4//4 25//25 21//21
f 4//4 21//21 20//20
f 4//4 20//20 33//33
f 4//4 33//33 32//32
f 4//4 32//32 38//38
f 4//4 38//38 43//43
f 4//4 43//43 48//48
f 4//4 48//48 50//50
f 4//4 50//50 44//44
f 4//4 44//44 39//39
f 4//4 39//39 34//34
f 4//4 34//34 26//26
f 4//4 26//26 14//14
f 5//5 14//14 7//7
f 5//5 7//7 6//6
f 7//7 14//14 16//16
f 8//8 17//17 18//18
f 8//8 18//18 9//9
f 9//9 18//18 19//19
f 9//9 19//19 10//10
f 10//10 19//19 20//20
f 10//10 20//20 21//21
f 10//10 21//21 22//22
f 10//10 22//22 23//23
f 10//10 23//23 24//24
f 10//10 24//24 11//11
f 11//11 24//24 22//22
f 11//11 22//22 12//12
f 12//12 25//25 13//13
f 12//12 22//22 21//21
f 12//12 21//21 25//25
f 13//13 25//25 15//15
f 14//14 26//26 27//27
f 14//14 27//27 16//16
f 16//16 27//27 28//28
f 17//17 29//29 18//18
f 18//18 30//30 20//20
f 18//18 20//20 19//19
f 18//18 29//29 31//31
f 18//18 31//31 32//32
f 18//18 32//32 33//33
f 18//18 33//33 30//30
f 20//20 30//30 33//33
f 22//22 24//24 23//23
f 26//26 34//34 27//27
f 27//27 34//34 28//28
f 28//28 34//34 35//35
f 29//29 36//36 31//31
f 31//31 36//36 37//37
f 31//31 37//37 32//32
f 32//32 37//37 38//38
f 34//34 39//39 40//40
f 34//34 40//40 35//35
f 36//36 41//41 42//42
f 36//36 42//42 43//43
f 36//36 43//43 37//37
f 37//37 43//43 38//38
f 39//39 44//44 40//40
f 40//40 44//44 45//45
f 40//40 45//45 46//46
f 41//41 47//47 48//48
f 41//41 48//48 42//42
f 42//42 48//48 43//43
f 44//44 49//49 45//45
f 44//44 50//50 49//49
f 45//45 49//49 51//51
f 45//45 51//51 52//52
f 45//45 52//52 46//46
f 47//47 53//53 54//54
f 47//47 54//54 55//55
f 47//47 55//55 56//56
f 47//47 56//56 48//48
f 48//48 56//56 50//50
f 49//49 50//50 51//51
f 50//50 56//56 51//51
f 51//51 56//56 55//55
f 51//51 55//55 57//57
f 51//51 57//57 52//52
f 52//52 57//57 58//58
f 53//53 58//58 54//54
f 54//54 58//58 55//55
f 55//55 58//58 57//57
