# Created by Open3D 
# object name: bottom_watertight_tiny_part2
# number of vertices: 64
# number of triangles: 124
v -0.164293 -0.0238123 -0.0262782 0.741553 0.212223 0.639051
vn -0.325049 -0.925341 -0.195159
v -0.143152 -0.0219731 -0.0294719 0.741553 0.212223 0.639051
vn 0.111046 -0.987399 -0.112745
v -0.154364 -0.0225539 -0.0239583 0.741553 0.212223 0.639051
vn 0.10118 -0.987688 0.119311
v -0.165452 -0.0226378 -0.016063 0.741553 0.212223 0.639051
vn -0.574156 -0.800921 0.169914
v -0.165234 -0.0114733 -0.0462058 0.741553 0.212223 0.639051
vn -0.756798 -0.289844 -0.585873
v -0.157403 -0.0209986 -0.0383028 0.741553 0.212223 0.639051
vn -0.0213534 -0.888857 -0.457688
v -0.116525 -0.0184172 -0.0221256 0.741553 0.212223 0.639051
vn 0.474461 -0.874044 0.104563
v -0.116372 -0.0169136 -0.038125 0.741553 0.212223 0.639051
vn 0.201571 -0.899586 -0.387445
v -0.165531 0.0037762 -0.0439788 0.741553 0.212223 0.639051
vn -0.974887 0.104507 -0.196657
v -0.137459 -0.0180623 -0.00995406 0.741553 0.212223 0.639051
vn 0.107771 -0.961597 0.252423
v -0.146023 -0.0169265 -0.00385281 0.741553 0.212223 0.639051
vn 0.0956803 -0.932844 0.347344
v -0.165531 -0.0174686 -0.000125556 0.741553 0.212223 0.639051
vn -0.884774 -0.426388 0.188066
v -0.15419 -0.00516184 -0.0474431 0.741553 0.212223 0.639051
vn -0.0590188 0.123427 -0.990597
v -0.138607 -0.00652997 -0.0473967 0.741553 0.212223 0.639051
vn 0.037727 -0.143497 -0.988931
v -0.154443 -0.0143064 -0.045479 0.741553 0.212223 0.639051
vn 0.0205397 -0.507035 -0.86168
v -0.141276 -0.0149066 -0.0435999 0.741553 0.212223 0.639051
vn 0.0861377 -0.710925 -0.697973
v -0.116941 -0.0146291 -0.00626547 0.741553 0.212223 0.639051
vn 0.183704 -0.912612 0.365228
v -0.115095 -0.00900164 -0.0453011 0.741553 0.212223 0.639051
vn 0.947359 -0.155757 -0.279733
v -0.115095 -0.00520701 0.0107469 0.741553 0.212223 0.639051
vn 0.959501 -0.226484 0.167517
v -0.165531 0.0132112 -0.0372976 0.741553 0.212223 0.639051
vn -0.0813343 0.628506 -0.77354
v -0.115095 0.0125723 -0.0410325 0.741553 0.212223 0.639051
vn 0.093624 0.578257 -0.810465
v -0.129965 0.00400207 -0.0460435 0.741553 0.212223 0.639051
vn -0.0392985 0.515592 -0.855933
v -0.14231 0.0016401 -0.0463682 0.741553 0.212223 0.639051
vn -0.0451847 0.2665 -0.962775
v -0.138607 -0.0130673 0.00264282 0.741553 0.212223 0.639051
vn 0.101177 -0.857522 0.5044
v -0.152527 -0.0152357 0.00144422 0.741553 0.212223 0.639051
vn 0.0865956 -0.853223 0.514307
v -0.165531 -0.00886612 0.0128038 0.741553 0.212223 0.639051
vn -0.461153 -0.688413 0.559844
v -0.116025 0.00362132 -0.046345 0.741553 0.212223 0.639051
vn 0.118569 0.128551 -0.984589
v -0.114961 0.0234399 -0.0318227 0.741553 0.212223 0.639051
vn 0.974218 0.170919 -0.147262
v -0.1155 0.0421162 0.0181086 0.741553 0.212223 0.639051
vn 0.95964 0.259535 0.108319
v -0.116085 0.0332169 0.0296151 0.741553 0.212223 0.639051
vn 0.567763 0.20696 0.796752
v -0.117352 0.0149278 0.0282696 0.741553 0.212223 0.639051
vn 0.453444 -0.343419 0.822467
v -0.116941 0.00131743 0.0182246 0.741553 0.212223 0.639051
vn 0.0980263 -0.6599 0.744931
v -0.131237 0.0176769 -0.0361067 0.741553 0.212223 0.639051
vn -0.0520137 0.658844 -0.75048
v -0.165531 0.0220459 -0.028049 0.741553 0.212223 0.639051
vn -0.172611 0.768566 -0.616045
v -0.149641 0.0209876 -0.0312504 0.741553 0.212223 0.639051
vn -0.0695767 0.749424 -0.658424
v -0.135118 0.000626913 0.0192685 0.741553 0.212223 0.639051
vn 0.0672571 -0.698761 0.712186
v -0.165531 -0.000947731 0.0205909 0.741553 0.212223 0.639051
vn -0.789083 -0.388757 0.475622
v -0.116035 0.0329394 -0.0200455 0.741553 0.212223 0.639051
vn -0.0114297 0.808737 -0.588059
v -0.116035 0.0380892 -0.00838428 0.741553 0.212223 0.639051
vn 0.35439 0.878565 -0.320206
v -0.116995 0.0417161 0.00524107 0.741553 0.212223 0.639051
vn -0.0458696 0.993918 -0.100113
v -0.135118 0.0407351 0.0172657 0.741553 0.212223 0.639051
vn -0.0777828 0.994951 0.0634207
v -0.14231 0.0387152 0.0212714 0.741553 0.212223 0.639051
vn -0.0754211 0.879754 0.469409
v -0.135038 0.0348044 0.0280144 0.741553 0.212223 0.639051
vn -0.052841 0.767001 0.639466
v -0.156957 0.031184 0.0283547 0.741553 0.212223 0.639051
vn -0.12235 0.448255 0.885493
v -0.147849 0.0223815 0.0315561 0.741553 0.212223 0.639051
vn -0.0161652 0.176758 0.984122
v -0.132707 0.0184191 0.0310457 0.741553 0.212223 0.639051
vn 0.0510254 -0.203765 0.977689
v -0.136058 0.0119785 0.0279758 0.741553 0.212223 0.639051
vn 0.063807 -0.573096 0.817
v -0.1503 0.000536564 0.0205909 0.741553 0.212223 0.639051
vn 0.0668302 -0.603769 0.794353
v -0.165531 0.0277572 -0.0202079 0.741553 0.212223 0.639051
vn -0.521556 0.764454 -0.378932
v -0.129801 0.0325134 -0.0190557 0.741553 0.212223 0.639051
vn -0.0831364 0.851743 -0.517322
v -0.165531 0.00931972 0.0279603 0.741553 0.212223 0.639051
vn -0.864714 -0.220482 0.451283
v -0.135697 0.0349335 -0.0120497 0.741553 0.212223 0.639051
vn -0.0824522 0.922987 -0.375895
v -0.146023 0.034727 -0.0100623 0.741553 0.212223 0.639051
vn -0.100682 0.921912 -0.374087
v -0.125173 0.0396897 -0.00154067 0.741553 0.212223 0.639051
vn -0.0784639 0.949677 -0.303245
v -0.135118 0.0387217 -0.00152521 0.741553 0.212223 0.639051
vn -0.0965981 0.979627 -0.176066
v -0.144513 0.039367 0.00727482 0.741553 0.212223 0.639051
vn -0.098486 0.980702 -0.168893
v -0.165531 0.0377343 0.0104762 0.741553 0.212223 0.639051
vn -0.925876 0.375678 -0.0402375
v -0.156195 0.038741 0.0134457 0.741553 0.212223 0.639051
vn -0.108362 0.994089 0.00669901
v -0.146023 0.0398187 0.0167167 0.741553 0.212223 0.639051
vn -0.100774 0.992329 0.0716097
v -0.162917 0.0366049 0.020877 0.741553 0.212223 0.639051
vn -0.339536 0.795268 0.50226
v -0.165531 0.0202131 0.0311385 0.741553 0.212223 0.639051
vn -0.958088 0.0244026 0.285433
v -0.150191 0.0107717 0.0280144 0.741553 0.212223 0.639051
vn 0.0398337 -0.446752 0.893771
v -0.158249 0.035482 -0.0045565 0.741553 0.212223 0.639051
vn -0.163821 0.936077 -0.311323
v -0.146018 0.0375923 -0.00178039 0.741553 0.212223 0.639051
vn -0.107499 0.973742 -0.200675
f 1//1 2//2 3//3
f 1//1 3//3 4//4
f 1//1 4//4 5//5
f 1//1 5//5 6//6
f 1//1 6//6 2//2
f 2//2 7//7 3//3
f 2//2 6//6 8//8
f 2//2 8//8 7//7
f 3//3 7//7 4//4
f 4//4 9//9 5//5
f 4//4 7//7 10//10
f 4//4 10//10 11//11
f 4//4 11//11 12//12
f 4//4 12//12 9//9
f 5//5 9//9 13//13
f 5//5 13//13 14//14
f 5//5 14//14 15//15
f 5//5 15//15 6//6
f 6//6 15//15 16//16
f 6//6 16//16 8//8
f 7//7 17//17 10//10
f 7//7 8//8 18//18
f 7//7 18//18 19//19
f 7//7 19//19 17//17
f 8//8 16//16 18//18
f 9//9 20//20 21//21
f 9//9 21//21 22//22
f 9//9 22//22 23//23
f 9//9 23//23 13//13
f 9//9 12//12 26//26
f 9//9 26//26 37//37
f 9//9 37//37 51//51
f 9//9 51//51 61//61
f 9//9 61//61 57//57
f 9//9 57//57 49//49
f 9//9 49//49 34//34
f 9//9 34//34 20//20
f 10//10 17//17 11//11
f 11//11 24//24 25//25
f 11//11 25//25 12//12
f 11//11 17//17 24//24
f 12//12 25//25 26//26
f 13//13 23//23 27//27
f 13//13 27//27 14//14
f 14//14 27//27 18//18
f 14//14 18//18 15//15
f 15//15 18//18 16//16
f 17//17 19//19 24//24
f 18//18 27//27 21//21
f 18//18 21//21 28//28
f 18//18 28//28 19//19
f 19//19 29//29 30//30
f 19//19 30//30 31//31
f 19//19 31//31 32//32
f 19//19 32//32 26//26
f 19//19 26//26 24//24
f 19//19 28//28 29//29
f 20//20 33//33 21//21
f 20//20 34//34 35//35
f 20//20 35//35 33//33
f 21//21 27//27 22//22
f 21//21 33//33 28//28
f 22//22 27//27 23//23
f 24//24 26//26 25//25
f 26//26 32//32 36//36
f 26//26 36//36 37//37
f 28//28 33//33 35//35
f 28//28 35//35 38//38
f 28//28 38//38 39//39
f 28//28 39//39 29//29
f 29//29 39//39 40//40
f 29//29 40//40 41//41
f 29//29 41//41 42//42
f 29//29 42//42 43//43
f 29//29 43//43 30//30
f 30//30 43//43 44//44
f 30//30 44//44 45//45
f 30//30 45//45 46//46
f 30//30 46//46 31//31
f 31//31 46//46 47//47
f 31//31 47//47 32//32
f 32//32 47//47 48//48
f 32//32 48//48 36//36
f 34//34 49//49 50//50
f 34//34 50//50 35//35
f 35//35 50//50 38//38
f 36//36 48//48 37//37
f 37//37 48//48 47//47
f 37//37 47//47 51//51
f 38//38 50//50 39//39
f 39//39 50//50 52//52
f 39//39 52//52 53//53
f 39//39 53//53 54//54
f 39//39 54//54 40//40
f 40//40 54//54 55//55
f 40//40 55//55 56//56
f 40//40 56//56 57//57
f 40//40 57//57 58//58
f 40//40 58//58 59//59
f 40//40 59//59 41//41
f 41//41 59//59 42//42
f 42//42 60//60 43//43
f 42//42 59//59 60//60
f 43//43 60//60 44//44
f 44//44 61//61 45//45
f 44//44 60//60 61//61
f 45//45 61//61 46//46
f 46//46 61//61 51//51
f 46//46 51//51 62//62
f 46//46 62//62 47//47
f 47//47 62//62 51//51
f 49//49 63//63 53//53
f 49//49 53//53 50//50
f 49//49 57//57 63//63
f 50//50 53//53 52//52
f 53//53 63//63 54//54
f 54//54 64//64 55//55
f 54//54 63//63 64//64
f 55//55 64//64 56//56
f 56//56 64//64 57//57
f 57//57 61//61 60//60
f 57//57 60//60 58//58
f 57//57 64//64 63//63
f 58//58 60//60 59//59
