# Created by Open3D 
# object name: bottom_watertight_tiny_part0
# number of vertices: 64
# number of triangles: 124
v -0.0682432 0.00211435 -0.0423099 0.861821 0.901812 0.303704
vn -0.941208 -0.115958 -0.317303
v -0.0682432 -0.0055871 -0.0375593 0.861821 0.901812 0.303704
vn 0.231499 -0.579474 -0.78142
v -0.0682432 0.00534824 -0.042263 0.861821 0.901812 0.303704
vn 0.131412 0.0949473 -0.98677
v -0.000562021 0.0226436 -0.0313213 0.861821 0.901812 0.303704
vn 0.211557 -0.0644577 -0.975238
v 0.00176945 0.00846236 -0.0262759 0.861821 0.901812 0.303704
vn 0.428468 -0.504596 -0.749532
v -0.0682432 -0.00871919 -0.0342761 0.861821 0.901812 0.303704
vn 0.231009 -0.776308 -0.586499
v -0.0682432 0.0140917 -0.0411574 0.861821 0.901812 0.303704
vn 0.0767725 0.252217 -0.96462
v -0.0015449 0.0308002 -0.0303698 0.861821 0.901812 0.303704
vn 0.103809 0.333678 -0.936954
v 0.00145706 0.0243623 -0.0278571 0.861821 0.901812 0.303704
vn 0.887411 0.0824937 -0.453539
v 0.00890862 0.0251768 -0.0124261 0.861821 0.901812 0.303704
vn 0.929785 0.182272 -0.319808
v 0.00959434 0.0190384 -0.00722661 0.861821 0.901812 0.303704
vn 0.965417 -0.260711 -5.69331e-05
v 0.00106086 0.000509384 -0.0160309 0.861821 0.901812 0.303704
vn 0.390264 -0.820467 -0.417766
v -0.0682432 -0.0114141 -0.0298673 0.861821 0.901812 0.303704
vn -0.0673675 -0.922462 -0.380165
v -0.0682432 0.0199307 -0.03835 0.861821 0.901812 0.303704
vn -0.641114 0.419886 -0.642393
v -0.0592449 0.0275603 -0.0346581 0.861821 0.901812 0.303704
vn -0.00483097 0.545076 -0.838373
v -0.00117918 0.0378489 -0.0268789 0.861821 0.901812 0.303704
vn 0.371971 0.564494 -0.736875
v 0.00840575 0.0291712 -0.0054443 0.861821 0.901812 0.303704
vn 0.90426 0.416021 0.0961309
v 0.000878003 0.0386933 -0.0176457 0.861821 0.901812 0.303704
vn 0.872069 0.432022 -0.229896
v -0.00268016 0.0474607 -0.0145099 0.861821 0.901812 0.303704
vn 0.118464 0.948289 -0.294473
v 0.0086648 0.0243024 -0.00171218 0.861821 0.901812 0.303704
vn 0.923528 0.0729187 0.376534
v 0.00171611 0.00804914 0.0114608 0.861821 0.901812 0.303704
vn 0.429286 -0.592762 0.68143
v 0.0011142 -0.00191603 -0.000673613 0.861821 0.901812 0.303704
vn 0.268574 -0.92609 0.265
v 0.00288946 0.00252158 -0.00836568 0.861821 0.901812 0.303704
vn 0.917764 -0.39176 -0.0650589
v 0.000855148 -0.00070033 -0.0104897 0.861821 0.901812 0.303704
vn 0.210168 -0.965583 -0.153227
v -0.0653784 -0.0128214 -0.0231535 0.861821 0.901812 0.303704
vn 0.184177 -0.969893 -0.159331
v -0.0682432 -0.0116057 -0.0149053 0.861821 0.901812 0.303704
vn -0.909413 -0.408606 0.0775175
v -0.0682432 0.0267518 -0.0328824 0.861821 0.901812 0.303704
vn -0.80114 0.413427 -0.432728
v -0.0578659 0.0301833 -0.0320583 0.861821 0.901812 0.303704
vn -0.06723 0.735295 -0.674405
v -0.00309921 0.0433405 -0.0212505 0.861821 0.901812 0.303704
vn -0.0352182 0.759537 -0.64951
v -0.0682432 0.0342377 -0.0246812 0.861821 0.901812 0.303704
vn -0.593626 0.617605 -0.515918
v -0.00242872 0.048359 -0.00363519 0.861821 0.901812 0.303704
vn 0.177108 0.95262 0.24728
v -0.00213919 0.0413942 0.00906877 0.861821 0.901812 0.303704
vn 0.23398 0.809023 0.539199
v -0.00146871 0.0375794 0.012687 0.861821 0.901812 0.303704
vn 0.321134 0.44261 0.837239
v -0.0540182 0.0377051 -0.0241183 0.861821 0.901812 0.303704
vn -0.084737 0.828085 -0.554162
v -0.0576906 0.0415379 -0.0156959 0.861821 0.901812 0.303704
vn -0.111591 0.909689 -0.400018
v -0.0646546 0.0441669 -0.00624165 0.861821 0.901812 0.303704
vn -0.0862856 0.962574 -0.256916
v -0.0628488 0.0457899 0.00207355 0.861821 0.901812 0.303704
vn -0.0619576 0.990926 -0.11928
v 0.000116084 0.0227693 0.0169551 0.861821 0.901812 0.303704
vn 0.314418 0.0776019 0.946107
v -4.39192e-05 0.0135348 0.0147708 0.861821 0.901812 0.303704
vn 0.142745 -0.34499 0.927689
v -0.0604869 0.00991162 0.0213037 0.861821 0.901812 0.303704
vn 0.105987 -0.592775 0.798364
v -0.0406389 0.00231797 0.0114541 0.861821 0.901812 0.303704
vn 0.0924315 -0.696368 0.711707
v -0.0333778 -0.000323043 0.00776889 0.861821 0.901812 0.303704
vn 0.0886342 -0.780399 0.618968
v -0.0501553 -0.00535354 0.00256268 0.861821 0.901812 0.303704
vn 0.0717376 -0.891628 0.44705
v -0.0610583 -0.00868924 -0.00481446 0.861821 0.901812 0.303704
vn 0.0735015 -0.95419 0.290032
v -0.0571573 -0.00840777 -0.00509588 0.861821 0.901812 0.303704
vn 0.0901201 -0.968682 0.231374
v -0.064586 -0.0121687 -0.0180076 0.861821 0.901812 0.303704
vn 0.0895994 -0.972714 0.21401
v -0.0603954 -0.0118333 -0.0191131 0.861821 0.901812 0.303704
vn 0.126034 -0.986377 0.105716
v -0.0682432 -0.00837184 -0.00255643 0.861821 0.901812 0.303704
vn -0.825154 -0.52478 0.209109
v -0.0682432 0.0359445 -0.0219139 0.861821 0.901812 0.303704
vn -0.796636 0.531532 -0.28783
v -0.0682432 0.0456222 0.00433829 0.861821 0.901812 0.303704
vn -0.733561 0.662494 0.151627
v -0.0682432 0.0424781 0.0149651 0.861821 0.901812 0.303704
vn -0.421642 0.812715 0.402134
v -0.0682432 0.038316 0.0204595 0.861821 0.901812 0.303704
vn -0.570906 0.558924 0.601391
v -0.0682432 0.0314829 0.0250425 0.861821 0.901812 0.303704
vn -0.337797 0.33878 0.878135
v -0.0682432 0.0430949 -0.00810436 0.861821 0.901812 0.303704
vn -0.899523 0.395494 -0.185586
v -0.0682432 0.0441789 -0.00462685 0.861821 0.901812 0.303704
vn -0.977089 0.209196 -0.0391612
v -0.0682432 0.0267638 0.0261414 0.861821 0.901812 0.303704
vn -0.667015 0.0831436 0.740391
v -0.0682432 0.0233682 0.0259538 0.861821 0.901812 0.303704
vn -0.64625 -0.0467044 0.761695
v -0.0682432 0.0174753 0.0255719 0.861821 0.901812 0.303704
vn -0.341299 -0.174223 0.923668
v -0.0647993 0.0141696 0.0242117 0.861821 0.901812 0.303704
vn 0.125085 -0.387197 0.913473
v -0.0682432 0.0135228 0.0241045 0.861821 0.901812 0.303704
vn -0.991578 -0.0657752 0.111569
v -0.0668108 0.00876779 0.0209821 0.861821 0.901812 0.303704
vn 0.0217422 -0.583138 0.812082
v -0.0682432 0.00661785 0.0191462 0.861821 0.901812 0.303704
vn -0.757215 -0.48021 0.442747
v -0.0682432 -0.00240711 0.00877395 0.861821 0.901812 0.303704
vn -0.581301 -0.636393 0.507043
v -0.0682432 -0.00407196 0.00606699 0.861821 0.901812 0.303704
vn -0.835578 -0.486125 0.255914
f 1//1 2//2 6//6
f 1//1 6//6 13//13
f 1//1 13//13 26//26
f 1//1 26//26 48//48
f 1//1 48//48 64//64
f 1//1 64//64 63//63
f 1//1 63//63 62//62
f 1//1 62//62 60//60
f 1//1 60//60 58//58
f 1//1 58//58 57//57
f 1//1 57//57 56//56
f 1//1 56//56 53//53
f 1//1 53//53 52//52
f 1//1 52//52 51//51
f 1//1 51//51 50//50
f 1//1 50//50 55//55
f 1//1 55//55 54//54
f 1//1 54//54 49//49
f 1//1 49//49 30//30
f 1//1 30//30 27//27
f 1//1 27//27 14//14
f 1//1 14//14 7//7
f 1//1 7//7 3//3
f 1//1 3//3 4//4
f 1//1 4//4 5//5
f 1//1 5//5 2//2
f 2//2 5//5 6//6
f 3//3 7//7 4//4
f 4//4 8//8 9//9
f 4//4 9//9 5//5
f 4//4 7//7 8//8
f 5//5 9//9 10//10
f 5//5 10//10 11//11
f 5//5 11//11 12//12
f 5//5 12//12 6//6
f 6//6 12//12 13//13
f 7//7 14//14 15//15
f 7//7 15//15 8//8
f 8//8 15//15 16//16
f 8//8 16//16 9//9
f 9//9 16//16 10//10
f 10//10 17//17 11//11
f 10//10 16//16 18//18
f 10//10 18//18 19//19
f 10//10 19//19 17//17
f 11//11 17//17 20//20
f 11//11 20//20 21//21
f 11//11 21//21 22//22
f 11//11 22//22 23//23
f 11//11 23//23 12//12
f 12//12 23//23 22//22
f 12//12 22//22 24//24
f 12//12 24//24 25//25
f 12//12 25//25 13//13
f 13//13 25//25 26//26
f 14//14 27//27 15//15
f 15//15 28//28 29//29
f 15//15 29//29 16//16
f 15//15 27//27 30//30
f 15//15 30//30 28//28
f 16//16 29//29 19//19
f 16//16 19//19 18//18
f 17//17 19//19 31//31
f 17//17 31//31 32//32
f 17//17 32//32 33//33
f 17//17 33//33 20//20
f 19//19 29//29 34//34
f 19//19 34//34 35//35
f 19//19 35//35 36//36
f 19//19 36//36 37//37
f 19//19 37//37 31//31
f 20//20 33//33 38//38
f 20//20 38//38 21//21
f 21//21 38//38 39//39
f 21//21 39//39 40//40
f 21//21 40//40 41//41
f 21//21 41//41 42//42
f 21//21 42//42 22//22
f 22//22 42//42 43//43
f 22//22 43//43 44//44
f 22//22 44//44 45//45
f 22//22 45//45 46//46
f 22//22 46//46 47//47
f 22//22 47//47 25//25
f 22//22 25//25 24//24
f 25//25 46//46 26//26
f 25//25 47//47 46//46
f 26//26 46//46 44//44
f 26//26 44//44 48//48
f 28//28 34//34 29//29
f 28//28 30//30 34//34
f 30//30 49//49 34//34
f 31//31 37//37 50//50
f 31//31 50//50 51//51
f 31//31 51//51 32//32
f 32//32 51//51 52//52
f 32//32 52//52 33//33
f 33//33 52//52 53//53
f 33//33 53//53 38//38
f 34//34 49//49 35//35
f 35//35 49//49 54//54
f 35//35 54//54 36//36
f 36//36 54//54 55//55
f 36//36 55//55 37//37
f 37//37 55//55 50//50
f 38//38 56//56 57//57
f 38//38 57//57 58//58
f 38//38 58//58 39//39
f 38//38 53//53 56//56
f 39//39 58//58 59//59
f 39//39 59//59 40//40
f 40//40 59//59 60//60
f 40//40 60//60 61//61
f 40//40 61//61 62//62
f 40//40 62//62 41//41
f 41//41 62//62 42//42
f 42//42 62//62 63//63
f 42//42 63//63 43//43
f 43//43 63//63 64//64
f 43//43 64//64 48//48
f 43//43 48//48 44//44
f 44//44 46//46 45//45
f 58//58 60//60 59//59
f 60//60 62//62 61//61
