# Created by Open3D 
# object name: bottom_watertight_tiny_part4
# number of vertices: 64
# number of triangles: 124
v -0.0730592 -0.0141372 -0.0279987 0.968523 0.22382 0.0294461
vn 0.139209 -0.989682 -0.0339115
v -0.0744999 -0.0131314 -0.0310078 0.968523 0.22382 0.0294461
vn -0.997485 -0.0651954 -0.0277992
v -0.0682456 -0.0112251 -0.0303134 0.968523 0.22382 0.0294461
vn 0.35738 -0.819331 -0.448303
v -0.0653866 -0.0122075 -0.0245758 0.968523 0.22382 0.0294461
vn 0.998415 0.0274404 -0.0491472
v -0.0653866 -0.011921 -0.0169935 0.968523 0.22382 0.0294461
vn 0.987314 -0.135654 0.0825213
v -0.0744999 -0.0130437 -0.0161027 0.968523 0.22382 0.0294461
vn -0.0669376 -0.978235 0.196405
v -0.0744999 -0.0092662 -0.0371312 0.968523 0.22382 0.0294461
vn 0.20102 -0.798094 -0.568011
v -0.0682456 -0.00870484 -0.0342834 0.968523 0.22382 0.0294461
vn 0.508018 -0.691782 -0.513182
v -0.0682456 -0.00559982 -0.037552 0.968523 0.22382 0.0294461
vn 0.873645 -0.243734 -0.421116
v -0.0682456 0.00639923 -0.0421744 0.968523 0.22382 0.0294461
vn 0.980338 0.0533051 -0.189991
v -0.0687247 0.0353794 -0.0228713 0.968523 0.22382 0.0294461
vn 0.991426 0.114073 -0.0637317
v -0.0687247 0.0425075 0.0150823 0.968523 0.22382 0.0294461
vn 0.996204 0.0826285 0.0273789
v -0.0682456 0.0126385 0.0235695 0.968523 0.22382 0.0294461
vn 0.991303 -0.0321242 0.127617
v -0.0682456 -0.00324328 0.00741585 0.968523 0.22382 0.0294461
vn 0.660192 -0.598343 0.454019
v -0.0682456 -0.00864637 -0.00311944 0.968523 0.22382 0.0294461
vn 0.218475 -0.91516 0.338748
v -0.0744999 -0.00964044 -0.00387697 0.968523 0.22382 0.0294461
vn -0.546575 -0.798892 0.251054
v -0.0744999 -0.0056583 -0.0401052 0.968523 0.22382 0.0294461
vn -0.62784 -0.440378 -0.641782
v -0.0713456 -0.0071611 -0.0381903 0.968523 0.22382 0.0294461
vn 0.333036 -0.549197 -0.766466
v -0.0693161 0.00221243 -0.0427215 0.968523 0.22382 0.0294461
vn 0.445725 -0.307923 -0.840543
v -0.074499 0.00345795 -0.0438437 0.968523 0.22382 0.0294461
vn 0.175976 0.0515014 -0.983046
v -0.0744981 0.0109486 -0.0431914 0.968523 0.22382 0.0294461
vn 0.041457 0.248391 -0.967772
v -0.0701618 0.0093873 -0.0423146 0.968523 0.22382 0.0294461
vn 0.242944 0.118661 -0.962755
v -0.0687256 0.0131297 -0.0414659 0.968523 0.22382 0.0294461
vn 0.887833 0.190132 -0.41905
v -0.0696828 0.032672 -0.0264766 0.968523 0.22382 0.0294461
vn -0.00442489 0.762601 -0.646854
v -0.0744981 0.0343736 -0.0237411 0.968523 0.22382 0.0294461
vn -0.919527 0.325332 -0.220519
v -0.0744981 0.0370459 -0.0190697 0.968523 0.22382 0.0294461
vn -0.928053 0.328741 -0.175062
v -0.0701609 0.0402621 -0.0133671 0.968523 0.22382 0.0294461
vn -0.0502064 0.886181 -0.460611
v -0.0692037 0.0428291 -0.00852035 0.968523 0.22382 0.0294461
vn 0.870286 0.46605 -0.159374
v -0.0692037 0.0269766 -0.0326 0.968523 0.22382 0.0294461
vn 0.468002 0.601206 -0.647708
v -0.0694428 0.0456008 0.00538875 0.968523 0.22382 0.0294461
vn 0.488124 0.869565 0.0747795
v -0.0744981 0.0441916 0.0138689 0.968523 0.22382 0.0294461
vn -0.948374 0.302008 0.0968409
v -0.0744981 0.0428233 0.0169692 0.968523 0.22382 0.0294461
vn -0.96351 0.218754 0.154257
v -0.0692037 0.0383558 0.0207919 0.968523 0.22382 0.0294461
vn 0.371201 0.664401 0.648676
v -0.0691208 0.0318066 0.0251757 0.968523 0.22382 0.0294461
vn 0.885648 0.197851 0.420098
v -0.0692037 0.0268011 0.0264172 0.968523 0.22382 0.0294461
vn 0.594541 0.0310939 0.803464
v -0.0692046 0.015609 0.0252389 0.968523 0.22382 0.0294461
vn 0.340144 -0.271574 0.900305
v -0.0744981 0.0151529 0.0254844 0.968523 0.22382 0.0294461
vn -0.355865 -0.431763 0.828819
v -0.0744981 0.0116971 0.0233521 0.968523 0.22382 0.0294461
vn -0.275289 -0.510399 0.814684
v -0.0744981 0.00872654 0.0214582 0.968523 0.22382 0.0294461
vn -0.0547311 -0.595355 0.801596
v -0.0692046 0.00758628 0.0200905 0.968523 0.22382 0.0294461
vn 0.233908 -0.686042 0.688936
v -0.0744999 0.00248726 0.0150964 0.968523 0.22382 0.0294461
vn -0.999847 -0.0133109 0.0113466
v -0.0744999 -0.0031965 0.00839783 0.968523 0.22382 0.0294461
vn -0.927631 -0.296395 0.227267
v -0.0744999 -0.00548872 0.00469435 0.968523 0.22382 0.0294461
vn -0.560258 -0.732228 0.387238
v -0.0744981 0.00522389 0.0183089 0.968523 0.22382 0.0294461
vn 0.0828585 -0.739903 0.667592
v -0.0744999 -0.00824289 -0.000825804 0.968523 0.22382 0.0294461
vn -0.792272 -0.54914 0.265989
v -0.0744999 0.000189197 -0.0436193 0.968523 0.22382 0.0294461
vn -0.999806 -0.00834847 -0.0178599
v -0.0744981 0.0140595 -0.0417044 0.968523 0.22382 0.0294461
vn -0.650833 0.353341 -0.671986
v -0.0692046 0.0197608 -0.0384568 0.968523 0.22382 0.0294461
vn 0.100621 0.544922 -0.832428
v -0.0744981 0.02907 -0.0301591 0.968523 0.22382 0.0294461
vn -0.735414 0.487653 -0.470491
v -0.0744981 0.0313329 -0.0276971 0.968523 0.22382 0.0294461
vn -0.946433 0.248907 -0.205692
v -0.0744981 0.0414725 -0.0105194 0.968523 0.22382 0.0294461
vn -0.967358 0.229769 -0.106884
v -0.0744981 0.0437472 -0.00433289 0.968523 0.22382 0.0294461
vn -0.975205 0.212716 -0.0610574
v -0.0696828 0.0442851 -0.00344209 0.968523 0.22382 0.0294461
vn -0.000708841 0.982541 -0.186042
v -0.0744981 0.0257135 -0.0333365 0.968523 0.22382 0.0294461
vn -0.720884 0.443798 -0.532325
v -0.0744981 0.0453962 0.00510819 0.968523 0.22382 0.0294461
vn -0.999559 0.0294653 -0.00365413
v -0.0744981 0.0455014 0.00907821 0.968523 0.22382 0.0294461
vn -0.992618 0.120151 0.0165206
v -0.0744981 0.0378646 0.0231416 0.968523 0.22382 0.0294461
vn -0.957803 0.181341 0.222999
v -0.0744981 0.0322276 0.0265154 0.968523 0.22382 0.0294461
vn -0.970143 0.10241 0.21985
v -0.0744981 0.0278361 0.0278131 0.968523 0.22382 0.0294461
vn -0.853152 0.0901389 0.513816
v -0.0744981 0.0233336 0.0277289 0.968523 0.22382 0.0294461
vn -0.717454 -0.0392012 0.695502
v -0.0694936 0.0209361 0.0261858 0.968523 0.22382 0.0294461
vn 0.299686 -0.100458 0.948734
v -0.0744981 0.0194859 0.0273151 0.968523 0.22382 0.0294461
vn -0.555808 -0.189029 0.809534
v -0.0744981 0.0182053 -0.0393757 0.968523 0.22382 0.0294461
vn -0.806436 0.344887 -0.480326
v -0.0744981 0.0447003 0.000990867 0.968523 0.22382 0.0294461
vn -0.991415 0.128802 -0.0224968
f 1//1 2//2 3//3
f 1//1 3//3 4//4
f 1//1 4//4 5//5
f 1//1 5//5 6//6
f 1//1 6//6 2//2
f 2//2 6//6 16//16
f 2//2 16//16 45//45
f 2//2 45//45 43//43
f 2//2 43//43 42//42
f 2//2 42//42 41//41
f 2//2 41//41 46//46
f 2//2 46//46 17//17
f 2//2 17//17 7//7
f 2//2 7//7 3//3
f 3//3 7//7 8//8
f 3//3 8//8 4//4
f 4//4 8//8 9//9
f 4//4 9//9 10//10
f 4//4 10//10 11//11
f 4//4 11//11 12//12
f 4//4 12//12 5//5
f 5//5 12//12 13//13
f 5//5 13//13 14//14
f 5//5 14//14 15//15
f 5//5 15//15 6//6
f 6//6 15//15 16//16
f 7//7 17//17 18//18
f 7//7 18//18 8//8
f 8//8 18//18 9//9
f 9//9 18//18 19//19
f 9//9 19//19 10//10
f 10//10 19//19 20//20
f 10//10 20//20 21//21
f 10//10 21//21 22//22
f 10//10 22//22 23//23
f 10//10 23//23 11//11
f 11//11 24//24 25//25
f 11//11 25//25 26//26
f 11//11 26//26 27//27
f 11//11 27//27 28//28
f 11//11 28//28 12//12
f 11//11 23//23 29//29
f 11//11 29//29 24//24
f 12//12 30//30 31//31
f 12//12 31//31 32//32
f 12//12 32//32 33//33
f 12//12 33//33 34//34
f 12//12 34//34 13//13
f 12//12 28//28 30//30
f 13//13 34//34 35//35
f 13//13 35//35 36//36
f 13//13 36//36 37//37
f 13//13 37//37 38//38
f 13//13 38//38 39//39
f 13//13 39//39 40//40
f 13//13 40//40 14//14
f 14//14 41//41 42//42
f 14//14 42//42 43//43
f 14//14 43//43 15//15
f 14//14 40//40 44//44
f 14//14 44//44 41//41
f 15//15 43//43 45//45
f 15//15 45//45 16//16
f 17//17 46//46 18//18
f 18//18 46//46 19//19
f 19//19 46//46 20//20
f 20//20 46//46 21//21
f 21//21 46//46 47//47
f 21//21 47//47 48//48
f 21//21 48//48 23//23
f 21//21 23//23 22//22
f 23//23 48//48 29//29
f 24//24 29//29 49//49
f 24//24 49//49 50//50
f 24//24 50//50 25//25
f 25//25 50//50 46//46
f 25//25 46//46 26//26
f 26//26 51//51 27//27
f 26//26 46//46 51//51
f 27//27 51//51 28//28
f 28//28 51//51 52//52
f 28//28 52//52 53//53
f 28//28 53//53 30//30
f 29//29 48//48 54//54
f 29//29 54//54 49//49
f 30//30 53//53 55//55
f 30//30 55//55 56//56
f 30//30 56//56 31//31
f 31//31 56//56 41//41
f 31//31 41//41 32//32
f 32//32 41//41 57//57
f 32//32 57//57 33//33
f 33//33 57//57 34//34
f 34//34 57//57 58//58
f 34//34 58//58 59//59
f 34//34 59//59 35//35
f 35//35 59//59 60//60
f 35//35 60//60 61//61
f 35//35 61//61 36//36
f 36//36 61//61 62//62
f 36//36 62//62 37//37
f 37//37 62//62 41//41
f 37//37 41//41 38//38
f 38//38 41//41 39//39
f 39//39 44//44 40//40
f 39//39 41//41 44//44
f 41//41 62//62 60//60
f 41//41 60//60 59//59
f 41//41 59//59 58//58
f 41//41 58//58 57//57
f 41//41 56//56 55//55
f 41//41 55//55 46//46
f 46//46 50//50 49//49
f 46//46 49//49 54//54
f 46//46 54//54 63//63
f 46//46 63//63 47//47
f 46//46 55//55 64//64
f 46//46 64//64 52//52
f 46//46 52//52 51//51
f 47//47 63//63 48//48
f 48//48 63//63 54//54
f 52//52 64//64 53//53
f 53//53 64//64 55//55
f 60//60 62//62 61//61
