# Created by Open3D 
# object name: bottom_watertight_tiny_part5
# number of vertices: 64
# number of triangles: 124
v -0.188078 -0.026032 -0.0236448 0.697319 0.964679 0.717663
vn 0.00595145 -0.997191 0.0746621
v -0.190768 -0.02444 -0.0323839 0.697319 0.964679 0.717663
vn -0.728962 -0.612376 -0.305958
v -0.178275 -0.0252016 -0.03243 0.697319 0.964679 0.717663
vn 0.038884 -0.982848 -0.180271
v -0.178275 -0.02552 -0.0278143 0.697319 0.964679 0.717663
vn 0.101559 -0.991901 0.0762803
v -0.165538 -0.0226357 -0.0160212 0.697319 0.964679 0.717663
vn 0.809222 -0.573599 0.127056
v -0.190289 -0.0244337 -0.0140134 0.697319 0.964679 0.717663
vn -0.214706 -0.947992 0.234972
v -0.194248 -0.0176661 -0.0124056 0.697319 0.964679 0.717663
vn -0.987149 -0.159696 0.00586297
v -0.194092 -0.0181905 -0.0198369 0.697319 0.964679 0.717663
vn -0.964612 -0.250207 -0.0831893
v -0.195515 -0.00241391 -0.0435923 0.697319 0.964679 0.717663
vn -0.990007 -0.10144 -0.0979594
v -0.18709 -0.013633 -0.0455232 0.697319 0.964679 0.717663
vn -0.464041 -0.520108 -0.717045
v -0.180047 -0.0230727 -0.0390612 0.697319 0.964679 0.717663
vn -0.137263 -0.823003 -0.551204
v -0.166773 -0.0240529 -0.0262758 0.697319 0.964679 0.717663
vn 0.902447 -0.419079 -0.0998111
v -0.168008 -0.0231289 -0.0365688 0.697319 0.964679 0.717663
vn 0.2966 -0.851811 -0.431795
v -0.165532 0.00377311 -0.0439846 0.697319 0.964679 0.717663
vn 0.983922 0.0414569 -0.173721
v -0.165532 -0.00599127 -0.0130595 0.697319 0.964679 0.717663
vn 1 -0.00010585 9.49599e-05
v -0.165538 -0.000952999 0.0205889 0.697319 0.964679 0.717663
vn 0.769594 -0.430647 0.471453
v -0.167649 -0.0176973 -0.000104796 0.697319 0.964679 0.717663
vn 0.310404 -0.839637 0.445711
v -0.182657 -0.0202133 -0.00192799 0.697319 0.964679 0.717663
vn 0.0712943 -0.938296 0.338403
v -0.189866 -0.0161552 0.00707261 0.697319 0.964679 0.717663
vn -0.064122 -0.847627 0.526703
v -0.193266 -0.0187836 -0.00423584 0.697319 0.964679 0.717663
vn -0.744633 -0.63139 0.216493
v -0.194642 -0.0111544 0.00974201 0.697319 0.964679 0.717663
vn -0.89363 -0.366848 0.258549
v -0.196446 0.0055337 0.0191657 0.697319 0.964679 0.717663
vn -0.996744 -0.0761717 0.0264602
v -0.190141 0.00145688 -0.0443847 0.697319 0.964679 0.717663
vn -0.122969 0.470711 -0.873676
v -0.187979 -0.00715875 -0.0473233 0.697319 0.964679 0.717663
vn -0.14643 0.103997 -0.983739
v -0.198208 0.0293203 0.00329543 0.697319 0.964679 0.717663
vn -0.999645 0.0265306 0.00252007
v -0.196513 0.015579 -0.033907 0.697319 0.964679 0.717663
vn -0.378521 0.688982 -0.618082
v -0.179618 -0.010886 -0.0472926 0.697319 0.964679 0.717663
vn -0.00907054 -0.245611 -0.969326
v -0.178515 -0.01869 -0.044277 0.697319 0.964679 0.717663
vn 0.0124066 -0.62875 -0.777508
v -0.168008 -0.015431 -0.0454155 0.697319 0.964679 0.717663
vn 0.792755 -0.314563 -0.522101
v -0.168011 -0.00623476 -0.0474618 0.697319 0.964679 0.717663
vn 0.157211 0.0494635 -0.986326
v -0.171923 0.000239455 -0.0457078 0.697319 0.964679 0.717663
vn -0.0181633 0.338816 -0.940677
v -0.173362 0.00753153 -0.0411152 0.697319 0.964679 0.717663
vn -0.0346707 0.568113 -0.82222
v -0.165532 0.0132129 -0.0372996 0.697319 0.964679 0.717663
vn 0.00826909 0.662845 -0.748711
v -0.165532 0.0277533 -0.0202061 0.697319 0.964679 0.717663
vn 0.931424 0.309953 -0.190733
v -0.165538 0.017015 0.0311281 0.697319 0.964679 0.717663
vn 0.996455 -0.00382425 0.084043
v -0.165538 0.00712572 0.026397 0.697319 0.964679 0.717663
vn 0.590399 -0.424287 0.686593
v -0.191888 -0.0020081 0.0217351 0.697319 0.964679 0.717663
vn -0.102568 -0.615315 0.78158
v -0.1856 -0.00999317 0.0145577 0.697319 0.964679 0.717663
vn 0.0495984 -0.706792 0.705681
v -0.168008 -0.00901923 0.0130345 0.697319 0.964679 0.717663
vn 0.155262 -0.783463 0.60173
v -0.195122 0.00973538 0.0270893 0.697319 0.964679 0.717663
vn -0.812142 -0.269054 0.517721
v -0.195381 0.0237764 0.0242276 0.697319 0.964679 0.717663
vn -0.953774 0.14035 0.265738
v -0.183124 0.00886758 -0.0397228 0.697319 0.964679 0.717663
vn -0.0476529 0.586882 -0.808269
v -0.180015 -0.00389355 -0.0466541 0.697319 0.964679 0.717663
vn -0.0183308 0.251112 -0.967784
v -0.195141 0.033803 0.0137807 0.697319 0.964679 0.717663
vn -0.316356 0.946888 -0.05763
v -0.194223 0.0293328 -0.0125441 0.697319 0.964679 0.717663
vn -0.183664 0.916111 -0.356381
v -0.196782 0.0217973 -0.0239372 0.697319 0.964679 0.717663
vn -0.853445 0.475059 -0.21436
v -0.165532 0.0220408 -0.0280451 0.697319 0.964679 0.717663
vn 0.0792481 0.759301 -0.645896
v -0.165535 0.032417 -0.0105132 0.697319 0.964679 0.717663
vn 0.0532059 0.914935 -0.400078
v -0.165538 0.0377362 0.0104882 0.697319 0.964679 0.717663
vn 0.847262 0.530037 -0.0347528
v -0.168008 0.024794 0.0305511 0.697319 0.964679 0.717663
vn 0.0483298 0.25617 0.965423
v -0.180325 0.0218784 0.0310896 0.697319 0.964679 0.717663
vn 0.00154047 0.0481834 0.998837
v -0.172207 0.0156789 0.0309973 0.697319 0.964679 0.717663
vn 0.0214164 -0.236988 0.971276
v -0.165801 0.0306189 0.0280432 0.697319 0.964679 0.717663
vn 0.490022 0.543641 0.68142
v -0.179202 0.0139496 0.0306896 0.697319 0.964679 0.717663
vn 0.0087194 -0.291847 0.956425
v -0.188206 0.00782496 0.0282586 0.697319 0.964679 0.717663
vn -0.0274053 -0.478409 0.87771
v -0.193052 0.015117 0.0302972 0.697319 0.964679 0.717663
vn -0.408094 0.0141053 0.912831
v -0.190205 0.0313744 0.0256046 0.697319 0.964679 0.717663
vn -0.368395 0.690411 0.62259
v -0.180181 0.0360505 0.0169425 0.697319 0.964679 0.717663
vn -0.139834 0.96995 0.199107
v -0.165538 0.0354637 -0.00257419 0.697319 0.964679 0.717663
vn -0.121364 0.97156 -0.203328
v -0.168008 0.0369308 0.0184734 0.697319 0.964679 0.717663
vn 0.0912198 0.93605 0.339838
v -0.187189 0.0218535 0.030928 0.697319 0.964679 0.717663
vn -0.11899 0.220207 0.968168
v -0.175652 0.0338342 0.0239507 0.697319 0.964679 0.717663
vn -0.0566125 0.868506 0.492435
v -0.181947 0.031262 0.0263662 0.697319 0.964679 0.717663
vn -0.0636306 0.575753 0.815144
v -0.180325 0.0249314 0.0298741 0.697319 0.964679 0.717663
vn -0.0735156 0.467972 0.88068
f 1//1 2//2 3//3
f 1//1 3//3 4//4
f 1//1 4//4 5//5
f 1//1 5//5 6//6
f 1//1 6//6 2//2
f 2//2 6//6 7//7
f 2//2 7//7 8//8
f 2//2 8//8 9//9
f 2//2 9//9 10//10
f 2//2 10//10 11//11
f 2//2 11//11 3//3
f 3//3 12//12 4//4
f 3//3 11//11 13//13
f 3//3 13//13 12//12
f 4//4 12//12 5//5
f 5//5 12//12 14//14
f 5//5 14//14 15//15
f 5//5 15//15 16//16
f 5//5 16//16 17//17
f 5//5 17//17 18//18
f 5//5 18//18 6//6
f 6//6 18//18 19//19
f 6//6 19//19 20//20
f 6//6 20//20 7//7
f 7//7 9//9 8//8
f 7//7 20//20 21//21
f 7//7 21//21 22//22
f 7//7 22//22 9//9
f 9//9 23//23 24//24
f 9//9 24//24 10//10
f 9//9 22//22 25//25
f 9//9 25//25 26//26
f 9//9 26//26 23//23
f 10//10 24//24 27//27
f 10//10 27//27 28//28
f 10//10 28//28 11//11
f 11//11 28//28 13//13
f 12//12 13//13 29//29
f 12//12 29//29 14//14
f 13//13 28//28 29//29
f 14//14 29//29 30//30
f 14//14 30//30 31//31
f 14//14 31//31 23//23
f 14//14 23//23 32//32
f 14//14 32//32 33//33
f 14//14 33//33 47//47
f 14//14 47//47 34//34
f 14//14 34//34 15//15
f 15//15 34//34 35//35
f 15//15 35//35 36//36
f 15//15 36//36 16//16
f 16//16 36//36 37//37
f 16//16 37//37 38//38
f 16//16 38//38 39//39
f 16//16 39//39 17//17
f 17//17 39//39 19//19
f 17//17 19//19 18//18
f 19//19 21//21 20//20
f 19//19 39//39 38//38
f 19//19 38//38 37//37
f 19//19 37//37 21//21
f 21//21 37//37 40//40
f 21//21 40//40 22//22
f 22//22 40//40 41//41
f 22//22 41//41 25//25
f 23//23 31//31 24//24
f 23//23 26//26 42//42
f 23//23 42//42 32//32
f 24//24 30//30 27//27
f 24//24 31//31 43//43
f 24//24 43//43 30//30
f 25//25 41//41 44//44
f 25//25 44//44 45//45
f 25//25 45//45 46//46
f 25//25 46//46 26//26
f 26//26 46//46 45//45
f 26//26 45//45 34//34
f 26//26 34//34 47//47
f 26//26 47//47 33//33
f 26//26 33//33 42//42
f 27//27 30//30 29//29
f 27//27 29//29 28//28
f 30//30 43//43 31//31
f 32//32 42//42 33//33
f 34//34 45//45 48//48
f 34//34 48//48 49//49
f 34//34 49//49 35//35
f 35//35 50//50 51//51
f 35//35 51//51 52//52
f 35//35 52//52 36//36
f 35//35 49//49 53//53
f 35//35 53//53 50//50
f 36//36 52//52 54//54
f 36//36 54//54 55//55
f 36//36 55//55 37//37
f 37//37 55//55 40//40
f 40//40 55//55 56//56
f 40//40 56//56 41//41
f 41//41 56//56 57//57
f 41//41 57//57 44//44
f 44//44 58//58 49//49
f 44//44 49//49 59//59
f 44//44 59//59 45//45
f 44//44 57//57 58//58
f 45//45 59//59 48//48
f 48//48 59//59 49//49
f 49//49 58//58 60//60
f 49//49 60//60 53//53
f 50//50 53//53 61//61
f 50//50 61//61 51//51
f 51//51 61//61 52//52
f 52//52 61//61 54//54
f 53//53 62//62 63//63
f 53//53 63//63 64//64
f 53//53 64//64 61//61
f 53//53 60//60 62//62
f 54//54 61//61 56//56
f 54//54 56//56 55//55
f 56//56 61//61 57//57
f 57//57 63//63 62//62
f 57//57 62//62 58//58
f 57//57 61//61 64//64
f 57//57 64//64 63//63
f 58//58 62//62 60//60
