# Created by Open3D 
# object name: top_watertight_tiny_part1
# number of vertices: 64
# number of triangles: 124
v 0.0112203 0.0056904 -0.0157098 0.415563 0.89656 0.0285956
vn -0.111167 0.43995 0.891115
v 0.00380761 0.00569217 -0.019702 0.415563 0.89656 0.0285956
vn -0.450995 0.362034 0.815803
v 0.00907881 0.0056904 -0.0168995 0.415563 0.89656 0.0285956
vn -0.000365453 -1 0.000234871
v 0.0112203 0.0056904 -0.018419 0.415563 0.89656 0.0285956
vn 0.462884 -0.754698 -0.46494
v 0.0112203 0.00859851 -0.0194897 0.415563 0.89656 0.0285956
vn 0.961852 0.217015 0.166569
v 0.00916406 0.0237837 -0.0274092 0.415563 0.89656 0.0285956
vn 0.663152 0.569545 0.485642
v 0.0063167 0.0237837 -0.0272916 0.415563 0.89656 0.0285956
vn -0.0683718 0.536224 0.841302
v 0.00369119 0.0237837 -0.0278539 0.415563 0.89656 0.0285956
vn -0.39421 0.435371 0.809352
v 0.00377003 0.00569217 -0.0197615 0.415563 0.89656 0.0285956
vn -0.89671 -0.439482 -0.0525992
v 0.00185681 0.0220995 -0.0281865 0.415563 0.89656 0.0285956
vn -0.885413 0.183017 0.427257
v 0.00907881 0.0056904 -0.0190409 0.415563 0.89656 0.0285956
vn -0.000197857 -1 -0.000113389
v 0.0103393 0.0056904 -0.0187827 0.415563 0.89656 0.0285956
vn 0.000209698 -1 -0.000843571
v 0.00645421 0.00569217 -0.0204577 0.415563 0.89656 0.0285956
vn 0.194824 -0.756929 -0.62378
v 0.0112203 0.00746502 -0.0207862 0.415563 0.89656 0.0285956
vn 0.498386 -0.642311 -0.582278
v 0.0112203 0.00877739 -0.0197317 0.415563 0.89656 0.0285956
vn 0.989204 0.137474 0.0507573
v 0.0101266 0.0178931 -0.0258653 0.415563 0.89656 0.0285956
vn 0.987249 0.154223 0.0394209
v 0.00916406 0.0237837 -0.0290815 0.415563 0.89656 0.0285956
vn 0.8431 0.370284 -0.389964
v 0.00369119 0.0237837 -0.0293884 0.415563 0.89656 0.0285956
vn -0.248825 0.953583 -0.169602
v 0.0042504 0.00569217 -0.020916 0.415563 0.89656 0.0285956
vn -0.0810732 -0.946027 -0.313783
v 0.00278729 0.0145848 -0.0265169 0.415563 0.89656 0.0285956
vn -0.988443 -0.140367 -0.0572592
v 0.00302106 0.0127588 -0.0258045 0.415563 0.89656 0.0285956
vn -0.981623 -0.163983 -0.0976024
v 0.00321999 0.0112109 -0.0252002 0.415563 0.89656 0.0285956
vn -0.61848 -0.479092 -0.622859
v 0.00365635 0.00877739 -0.0235508 0.415563 0.89656 0.0285956
vn -0.914438 -0.326501 -0.239165
v 0.00389195 0.0074721 -0.0226654 0.415563 0.89656 0.0285956
vn -0.862319 -0.414468 -0.290898
v 0.00189073 0.0220995 -0.0291369 0.415563 0.89656 0.0285956
vn -0.714138 -0.0648827 -0.696992
v 0.00389379 0.00747565 -0.0226694 0.415563 0.89656 0.0285956
vn 0.118701 -0.667858 -0.734763
v 0.0086727 0.00703996 -0.0212648 0.415563 0.89656 0.0285956
vn 0.156706 -0.680171 -0.716108
v 0.00907881 0.00710726 -0.0211891 0.415563 0.89656 0.0285956
vn 0.241682 -0.734256 -0.634395
v 0.00886338 0.00747565 -0.0216041 0.415563 0.89656 0.0285956
vn 0.196669 -0.651647 -0.732582
v 0.00942717 0.00877739 -0.0226099 0.415563 0.89656 0.0285956
vn 0.24321 -0.656812 -0.713755
v 0.0107683 0.0118626 -0.024992 0.415563 0.89656 0.0285956
vn 0.245279 -0.656343 -0.713479
v 0.0107683 0.0120238 -0.0251353 0.415563 0.89656 0.0285956
vn 0.189893 -0.650065 -0.735769
v 0.0107683 0.0121265 -0.0252259 0.415563 0.89656 0.0285956
vn 0.565095 -0.48015 -0.670913
v 0.0112203 0.00877739 -0.0217839 0.415563 0.89656 0.0285956
vn 0.999062 0.0154365 -0.0404458
v 0.0107683 0.0127588 -0.0235576 0.415563 0.89656 0.0285956
vn 0.992183 0.124526 0.00815883
v 0.0101266 0.0178931 -0.0278242 0.415563 0.89656 0.0285956
vn 0.937172 0.0184955 -0.348377
v 0.0067879 0.0237837 -0.0294492 0.415563 0.89656 0.0285956
vn 0.103417 0.623931 -0.774606
v 0.00916406 0.0220995 -0.0290085 0.415563 0.89656 0.0285956
vn 0.3782 -0.0406826 -0.924829
v 0.00543848 0.0237837 -0.0295168 0.415563 0.89656 0.0285956
vn -0.05956 0.495638 -0.866485
v 0.00241327 0.0192976 -0.0289747 0.415563 0.89656 0.0285956
vn -0.517935 -0.25725 -0.815822
v 0.00337125 0.0127605 -0.0262871 0.415563 0.89656 0.0285956
vn -0.45166 -0.481855 -0.750879
v 0.00544306 0.0105042 -0.0251542 0.415563 0.89656 0.0285956
vn 0.105865 -0.601233 -0.79203
v 0.00455933 0.00877739 -0.0237374 0.415563 0.89656 0.0285956
vn -0.165705 -0.573476 -0.802289
v 0.00430357 0.0220995 -0.029314 0.415563 0.89656 0.0285956
vn -0.0373926 -0.0950398 -0.994771
v 0.00826567 0.00747565 -0.0217555 0.415563 0.89656 0.0285956
vn 0.155611 -0.669944 -0.725921
v 0.0107683 0.0122682 -0.0253056 0.415563 0.89656 0.0285956
vn 0.239823 -0.459224 -0.855335
v 0.0107683 0.0127588 -0.0255381 0.415563 0.89656 0.0285956
vn 0.994196 0.0889058 -0.060584
v 0.0101266 0.0165294 -0.0273213 0.415563 0.89656 0.0285956
vn 0.256472 -0.334907 -0.906675
v 0.00749928 0.0147973 -0.0272159 0.415563 0.89656 0.0285956
vn 0.135981 -0.379283 -0.915234
v 0.00916315 0.0183058 -0.0281716 0.415563 0.89656 0.0285956
vn 0.155401 -0.326294 -0.932407
v 0.00916406 0.0200946 -0.0287922 0.415563 0.89656 0.0285956
vn 0.141411 -0.214909 -0.966342
v 0.00916406 0.0215203 -0.0289814 0.415563 0.89656 0.0285956
vn 0.462415 -0.0951093 -0.881548
v 0.00578225 0.0237837 -0.0295208 0.415563 0.89656 0.0285956
vn 0.0496418 -0.0209043 -0.998548
v 0.00855627 0.0220995 -0.0291018 0.415563 0.89656 0.0285956
vn 0.0732895 -0.12766 -0.989106
v 0.00370311 0.0185909 -0.0289071 0.415563 0.89656 0.0285956
vn -0.0727416 -0.226273 -0.971344
v 0.00353351 0.0144183 -0.027447 0.415563 0.89656 0.0285956
vn -0.0369157 -0.425507 -0.904202
v 0.00652205 0.0127605 -0.0262384 0.415563 0.89656 0.0285956
vn 0.112801 -0.473521 -0.873529
v 0.00916406 0.0127605 -0.0258288 0.415563 0.89656 0.0285956
vn 0.134579 -0.480837 -0.86642
v 0.0045355 0.0185909 -0.0289152 0.415563 0.89656 0.0285956
vn -0.00960993 -0.11361 -0.993479
v 0.00916406 0.0135115 -0.0262452 0.415563 0.89656 0.0285956
vn 0.159576 -0.455071 -0.87604
v 0.0101266 0.0131307 -0.0258558 0.415563 0.89656 0.0285956
vn 0.191669 -0.422233 -0.885992
v 0.0101266 0.015086 -0.0267873 0.415563 0.89656 0.0285956
vn 0.216969 -0.388976 -0.895333
v 0.00446399 0.0181747 -0.0288665 0.415563 0.89656 0.0285956
vn 0.104627 -0.332271 -0.937363
v 0.00456117 0.0185892 -0.0289152 0.415563 0.89656 0.0285956
vn 0.0690999 -0.131592 -0.988893
f 1//1 2//2 3//3
f 1//1 3//3 11//11
f 1//1 11//11 12//12
f 1//1 12//12 4//4
f 1//1 4//4 14//14
f 1//1 14//14 34//34
f 1//1 34//34 15//15
f 1//1 15//15 5//5
f 1//1 5//5 6//6
f 1//1 6//6 7//7
f 1//1 7//7 8//8
f 1//1 8//8 2//2
f 2//2 9//9 3//3
f 2//2 8//8 10//10
f 2//2 10//10 9//9
f 3//3 9//9 11//11
f 4//4 12//12 13//13
f 4//4 13//13 14//14
f 5//5 15//15 6//6
f 6//6 16//16 36//36
f 6//6 36//36 17//17
f 6//6 17//17 37//37
f 6//6 37//37 53//53
f 6//6 53//53 39//39
f 6//6 39//39 18//18
f 6//6 18//18 8//8
f 6//6 8//8 7//7
f 6//6 15//15 16//16
f 8//8 18//18 10//10
f 9//9 19//19 11//11
f 9//9 10//10 20//20
f 9//9 20//20 21//21
f 9//9 21//21 22//22
f 9//9 22//22 23//23
f 9//9 23//23 24//24
f 9//9 24//24 19//19
f 10//10 18//18 25//25
f 10//10 25//25 20//20
f 11//11 19//19 12//12
f 12//12 19//19 13//13
f 13//13 19//19 26//26
f 13//13 26//26 27//27
f 13//13 27//27 28//28
f 13//13 28//28 14//14
f 14//14 28//28 29//29
f 14//14 29//29 30//30
f 14//14 30//30 31//31
f 14//14 31//31 32//32
f 14//14 32//32 33//33
f 14//14 33//33 34//34
f 15//15 34//34 47//47
f 15//15 47//47 35//35
f 15//15 35//35 16//16
f 16//16 35//35 47//47
f 16//16 47//47 36//36
f 17//17 36//36 38//38
f 17//17 38//38 37//37
f 18//18 39//39 25//25
f 19//19 24//24 26//26
f 20//20 25//25 40//40
f 20//20 40//40 21//21
f 21//21 40//40 22//22
f 22//22 40//40 41//41
f 22//22 41//41 42//42
f 22//22 42//42 43//43
f 22//22 43//43 26//26
f 22//22 26//26 23//23
f 23//23 26//26 24//24
f 25//25 44//44 40//40
f 25//25 39//39 44//44
f 26//26 43//43 42//42
f 26//26 42//42 45//45
f 26//26 45//45 27//27
f 27//27 45//45 29//29
f 27//27 29//29 28//28
f 29//29 45//45 42//42
f 29//29 42//42 32//32
f 29//29 32//32 30//30
f 30//30 32//32 31//31
f 32//32 42//42 33//33
f 33//33 46//46 34//34
f 33//33 42//42 46//46
f 34//34 46//46 47//47
f 36//36 48//48 49//49
f 36//36 49//49 50//50
f 36//36 50//50 51//51
f 36//36 51//51 52//52
f 36//36 52//52 38//38
f 36//36 47//47 48//48
f 37//37 38//38 54//54
f 37//37 54//54 53//53
f 38//38 52//52 54//54
f 39//39 53//53 44//44
f 40//40 44//44 55//55
f 40//40 55//55 56//56
f 40//40 56//56 41//41
f 41//41 56//56 42//42
f 42//42 56//56 57//57
f 42//42 57//57 58//58
f 42//42 58//58 46//46
f 44//44 59//59 55//55
f 44//44 53//53 59//59
f 46//46 58//58 60//60
f 46//46 60//60 61//61
f 46//46 61//61 62//62
f 46//46 62//62 47//47
f 47//47 62//62 48//48
f 48//48 62//62 49//49
f 49//49 63//63 50//50
f 49//49 62//62 60//60
f 49//49 60//60 57//57
f 49//49 57//57 56//56
f 49//49 56//56 63//63
f 50//50 63//63 51//51
f 51//51 54//54 52//52
f 51//51 63//63 64//64
f 51//51 64//64 54//54
f 53//53 54//54 64//64
f 53//53 64//64 59//59
f 55//55 59//59 63//63
f 55//55 63//63 56//56
f 57//57 60//60 58//58
f 59//59 64//64 63//63
f 60//60 62//62 61//61
