# Created by Open3D 
# object name: top_watertight_tiny_part3
# number of vertices: 58
# number of triangles: 112
v 0.00723925 0.0321267 0.0154803 0.221592 0.341032 0.707429
vn 0.255557 -0.887315 -0.38388
v 0.00723826 0.0382761 0.0112999 0.221592 0.341032 0.707429
vn 0.98907 -0.0614261 -0.134043
v 0.00723925 0.0341901 0.0145093 0.221592 0.341032 0.707429
vn 1 -5.44561e-05 -0.000316875
v 0.00723925 0.0377765 0.0145093 0.221592 0.341032 0.707429
vn 0.999998 0.000592465 0.00170514
v 0.00723133 0.0365219 0.0154803 0.221592 0.341032 0.707429
vn 0.626149 0.278831 0.728142
v -4.36176e-05 0.0334822 0.0154803 0.221592 0.341032 0.707429
vn -0.458351 -0.78474 -0.41725
v 0.000500914 0.0432278 -0.00166756 0.221592 0.341032 0.707429
vn -0.113846 -0.839368 -0.531507
v 0.00429878 0.0445247 -0.00288842 0.221592 0.341032 0.707429
vn 0.0678176 -0.639692 -0.765633
v 0.00538784 0.0450959 -0.00288842 0.221592 0.341032 0.707429
vn 0.94859 -0.160104 -0.273027
v 0.00723826 0.0412328 0.0112999 0.221592 0.341032 0.707429
vn 0.995158 0.0623858 -0.0759573
v 0.00723826 0.0400287 0.0125639 0.221592 0.341032 0.707429
vn 0.679256 0.522589 0.515278
v 0.00723826 0.0388375 0.0136948 0.221592 0.341032 0.707429
vn 0.589122 0.515996 0.621839
v 0.00664719 0.0397895 0.0134 0.221592 0.341032 0.707429
vn 0.00128652 0.624107 0.781338
v 0.00662046 0.0365073 0.0154803 0.221592 0.341032 0.707429
vn -0.0146214 0.423651 0.905708
v -0.000199057 0.0340615 0.0154803 0.221592 0.341032 0.707429
vn -0.944602 -0.202381 0.258399
v -0.00287518 0.0465735 0.000164636 0.221592 0.341032 0.707429
vn -0.970141 -0.223491 -0.0942226
v -0.00176236 0.0446712 -0.00166756 0.221592 0.341032 0.707429
vn -0.794137 -0.453586 -0.404483
v -0.000836654 0.0440805 -0.00166756 0.221592 0.341032 0.707429
vn -0.454127 -0.712093 -0.535437
v -0.00200888 0.0466499 -0.00166756 0.221592 0.341032 0.707429
vn -0.309627 0.0434727 -0.949864
v 0.00429878 0.0484383 -0.00288842 0.221592 0.341032 0.707429
vn -0.159903 0.066312 -0.984903
v 0.00538784 0.0487442 -0.00283448 0.221592 0.341032 0.707429
vn 0.960335 0.230246 -0.157299
v 0.00626503 0.0458802 0.00554075 0.221592 0.341032 0.707429
vn 0.707883 0.654901 0.264587
v 0.00626503 0.0443555 0.00828995 0.221592 0.341032 0.707429
vn 0.276521 0.836742 0.47265
v 0.00626503 0.0439292 0.00899477 0.221592 0.341032 0.707429
vn 0.077762 0.813763 0.575971
v 0.00674026 0.0417275 0.0112999 0.221592 0.341032 0.707429
vn 0.422465 0.673904 0.606116
v 0.00626503 0.0417893 0.0112999 0.221592 0.341032 0.707429
vn 0.0897283 0.72969 0.677865
v 0.00449679 0.0420041 0.0112999 0.221592 0.341032 0.707429
vn -0.0264072 0.674299 0.737986
v -0.000738638 0.0409562 0.0118105 0.221592 0.341032 0.707429
vn -0.116765 0.631282 0.766713
v 0.00282755 0.0374836 0.0147683 0.221592 0.341032 0.707429
vn -0.0640859 0.570627 0.818705
v 0.00564328 0.0380076 0.0145093 0.221592 0.341032 0.707429
vn -0.0207013 0.535355 0.844373
v 0.00564328 0.0367123 0.0153256 0.221592 0.341032 0.707429
vn -0.0358048 0.496115 0.867518
v 0.00641552 0.0364975 0.0154803 0.221592 0.341032 0.707429
vn -0.00237274 0.0328769 0.999457
v -0.000193116 0.0359329 0.0154803 0.221592 0.341032 0.707429
vn -0.0965724 0.13663 0.985904
v -0.000503005 0.0368262 0.0147575 0.221592 0.341032 0.707429
vn -0.685974 0.299319 0.66321
v -0.00107922 0.0384877 0.0134107 0.221592 0.341032 0.707429
vn -0.918574 0.160303 0.361282
v -0.00217422 0.0429854 0.00799866 0.221592 0.341032 0.707429
vn -0.990854 -0.0798562 0.108776
v -0.00214056 0.0475937 5.67537e-05 0.221592 0.341032 0.707429
vn -0.2564 0.9272 0.273056
v -0.00104754 0.0481974 -0.00166756 0.221592 0.341032 0.707429
vn -0.389834 0.821089 -0.416944
v -0.00245243 0.0450162 0.00563245 0.221592 0.341032 0.707429
vn -0.996057 -0.066583 0.0586277
v -0.00250589 0.0454376 0.00514878 0.221592 0.341032 0.707429
vn -0.703156 0.615635 0.355758
v 0.00042864 0.0484057 -0.00166756 0.221592 0.341032 0.707429
vn -0.0976169 0.992832 -0.0689663
v 0.00443342 0.0487491 -0.00148416 0.221592 0.341032 0.707429
vn 0.0407278 0.998719 0.0300175
v 0.00532745 0.0481324 0.000781361 0.221592 0.341032 0.707429
vn 0.235756 0.957049 0.168746
v 0.00538586 0.0480835 0.000957568 0.221592 0.341032 0.707429
vn 0.694166 0.697224 0.17892
v 0.00545813 0.0473122 0.00296237 0.221592 0.341032 0.707429
vn 0.232871 0.880253 0.413431
v 0.00471757 0.0473187 0.00296237 0.221592 0.341032 0.707429
vn -0.016627 0.908768 0.41697
v 0.00293448 0.0458575 0.00563065 0.221592 0.341032 0.707429
vn -0.0110944 0.865123 0.501437
v 0.00351168 0.0430179 0.0103379 0.221592 0.341032 0.707429
vn -0.0381477 0.801563 0.596693
v 0.000442501 0.0360614 0.0154803 0.221592 0.341032 0.707429
vn -0.0348582 0.238743 0.970457
v 0.00172364 0.0368262 0.0150973 0.221592 0.341032 0.707429
vn -0.104877 0.580232 0.80767
v -0.00115248 0.0436021 0.00899477 0.221592 0.341032 0.707429
vn -0.303181 0.742529 0.597271
v 0.00406413 0.0487426 -0.000984307 0.221592 0.341032 0.707429
vn -0.0933801 0.952526 0.289784
v -0.00173365 0.0461032 0.00481255 0.221592 0.341032 0.707429
vn -0.237218 0.908259 0.344665
v 0.000926639 0.0467606 0.00402501 0.221592 0.341032 0.707429
vn -0.0778421 0.918087 0.388659
v -0.00162177 0.0456134 0.00563245 0.221592 0.341032 0.707429
vn -0.15226 0.838788 0.522734
v 0.00474034 0.0484074 6.40912e-06 0.221592 0.341032 0.707429
vn -0.0343959 0.939065 0.342013
v 0.00538586 0.0474294 0.00273762 0.221592 0.341032 0.707429
vn -0.0178753 0.936142 0.351167
v 0.0002534 0.0457403 0.00563065 0.221592 0.341032 0.707429
vn -0.0473859 0.851884 0.521583
f 1//1 2//2 3//3
f 1//1 3//3 4//4
f 1//1 4//4 5//5
f 1//1 5//5 14//14
f 1//1 14//14 32//32
f 1//1 32//32 49//49
f 1//1 49//49 33//33
f 1//1 33//33 15//15
f 1//1 15//15 6//6
f 1//1 6//6 7//7
f 1//1 7//7 8//8
f 1//1 8//8 9//9
f 1//1 9//9 2//2
f 2//2 10//10 4//4
f 2//2 4//4 3//3
f 2//2 9//9 10//10
f 4//4 10//10 11//11
f 4//4 11//11 12//12
f 4//4 12//12 5//5
f 5//5 13//13 14//14
f 5//5 12//12 13//13
f 6//6 15//15 16//16
f 6//6 16//16 17//17
f 6//6 17//17 18//18
f 6//6 18//18 7//7
f 7//7 18//18 8//8
f 8//8 18//18 17//17
f 8//8 17//17 19//19
f 8//8 19//19 20//20
f 8//8 20//20 9//9
f 9//9 20//20 21//21
f 9//9 21//21 10//10
f 10//10 21//21 22//22
f 10//10 22//22 23//23
f 10//10 23//23 24//24
f 10//10 24//24 25//25
f 10//10 25//25 11//11
f 11//11 25//25 13//13
f 11//11 13//13 12//12
f 13//13 25//25 26//26
f 13//13 26//26 27//27
f 13//13 27//27 28//28
f 13//13 28//28 29//29
f 13//13 29//29 30//30
f 13//13 30//30 14//14
f 14//14 30//30 29//29
f 14//14 29//29 31//31
f 14//14 31//31 32//32
f 15//15 33//33 34//34
f 15//15 34//34 35//35
f 15//15 35//35 36//36
f 15//15 36//36 16//16
f 16//16 37//37 38//38
f 16//16 38//38 19//19
f 16//16 19//19 17//17
f 16//16 36//36 39//39
f 16//16 39//39 40//40
f 16//16 40//40 37//37
f 19//19 38//38 20//20
f 20//20 38//38 21//21
f 21//21 38//38 41//41
f 21//21 41//41 42//42
f 21//21 42//42 43//43
f 21//21 43//43 44//44
f 21//21 44//44 22//22
f 22//22 44//44 45//45
f 22//22 45//45 46//46
f 22//22 46//46 47//47
f 22//22 47//47 23//23
f 23//23 47//47 24//24
f 24//24 48//48 26//26
f 24//24 26//26 25//25
f 24//24 47//47 48//48
f 26//26 48//48 27//27
f 27//27 48//48 28//28
f 28//28 35//35 34//34
f 28//28 34//34 33//33
f 28//28 33//33 49//49
f 28//28 49//49 50//50
f 28//28 50//50 29//29
f 28//28 48//48 51//51
f 28//28 51//51 35//35
f 29//29 50//50 49//49
f 29//29 49//49 31//31
f 31//31 49//49 32//32
f 35//35 51//51 36//36
f 36//36 51//51 40//40
f 36//36 40//40 39//39
f 37//37 52//52 38//38
f 37//37 40//40 53//53
f 37//37 53//53 54//54
f 37//37 54//54 52//52
f 38//38 52//52 41//41
f 40//40 55//55 53//53
f 40//40 51//51 55//55
f 41//41 52//52 42//42
f 42//42 52//52 43//43
f 43//43 52//52 56//56
f 43//43 56//56 44//44
f 44//44 56//56 57//57
f 44//44 57//57 45//45
f 45//45 57//57 46//46
f 46//46 54//54 47//47
f 46//46 57//57 56//56
f 46//46 56//56 52//52
f 46//46 52//52 54//54
f 47//47 54//54 48//48
f 48//48 54//54 58//58
f 48//48 58//58 51//51
f 51//51 58//58 55//55
f 53//53 55//55 54//54
f 54//54 55//55 58//58
