# Created by Open3D 
# object name: top_watertight_tiny_part4
# number of vertices: 41
# number of triangles: 78
v 0.0112212 0.00333576 -0.00832931 0.447582 0.50777 0.635543
vn 0.802538 0.442384 0.400286
v 0.00848825 0.0027432 -0.00564287 0.447582 0.50777 0.635543
vn -0.0450625 0.886115 0.46127
v 0.0112212 0.00156848 -0.00832931 0.447582 0.50777 0.635543
vn 0.762919 -0.539676 0.355955
v 0.0112212 0.00413178 -0.0121758 0.447582 0.50777 0.635543
vn 1 0.000418495 2.36786e-05
v 0.0112205 0.00568965 -0.0157039 0.447582 0.50777 0.635543
vn -0.0199278 0.971836 0.234813
v 0.00700162 0.00249519 -0.00564287 0.447582 0.50777 0.635543
vn -0.184276 0.947827 0.260129
v 0.00848825 0.000190298 -0.00564287 0.447582 0.50777 0.635543
vn 0.63416 -0.219866 0.741283
v 0.00380596 0.0056904 -0.0196985 0.447582 0.50777 0.635543
vn -0.134406 0.966044 0.220669
v 0.00626726 -0.00189554 -0.00564287 0.447582 0.50777 0.635543
vn 0.344111 -0.911495 -0.225308
v 0.0112212 0.00162714 -0.00932196 0.447582 0.50777 0.635543
vn 0.67733 -0.71971 -0.152454
v 0.0112212 0.00390975 -0.0157637 0.447582 0.50777 0.635543
vn 0.734061 -0.575006 -0.361278
v 0.0112205 0.00568965 -0.0184143 0.447582 0.50777 0.635543
vn 0.795465 -0.304027 -0.524216
v 0.0089032 0.0056904 -0.0169926 0.447582 0.50777 0.635543
vn -2.95595e-05 1 0.000240541
v 0.00501646 0.00206822 -0.00564287 0.447582 0.50777 0.635543
vn -0.753369 0.584171 0.301959
v 0.00376865 0.0056904 -0.0197568 0.447582 0.50777 0.635543
vn -0.948238 -0.172629 -0.26654
v 0.0058665 -0.00173069 -0.00564287 0.447582 0.50777 0.635543
vn -0.605175 -0.487573 0.629314
v 0.00483287 -0.00025969 -0.0104342 0.447582 0.50777 0.635543
vn -0.598061 -0.782923 -0.171335
v 0.00487243 0.000470241 -0.0121758 0.447582 0.50777 0.635543
vn -0.0360067 -0.921173 -0.387484
v 0.00495825 0.00204074 -0.0159147 0.447582 0.50777 0.635543
vn 0.209691 -0.872539 -0.441255
v 0.00902335 0.0022494 -0.0135736 0.447582 0.50777 0.635543
vn 0.264752 -0.888709 -0.374302
v 0.0112212 0.00370629 -0.0154393 0.447582 0.50777 0.635543
vn 0.449651 -0.826887 -0.337745
v 0.0112212 0.00253157 -0.0121758 0.447582 0.50777 0.635543
vn 0.6295 -0.731156 -0.262945
v 0.0112212 0.0021692 -0.0111652 0.447582 0.50777 0.635543
vn 0.644454 -0.728914 -0.231003
v 0.0112205 0.00497754 -0.0174635 0.447582 0.50777 0.635543
vn 0.250462 -0.801623 -0.542834
v 0.00448958 0.0044986 -0.0197388 0.447582 0.50777 0.635543
vn 0.204073 -0.776008 -0.596796
v 0.00645234 0.0056904 -0.0204549 0.447582 0.50777 0.635543
vn 0.308737 -0.403504 -0.861316
v 0.00767105 0.0056904 -0.0198225 0.447582 0.50777 0.635543
vn 0.000144337 1 -0.000255814
v 0.0089032 0.0056904 -0.0190721 0.447582 0.50777 0.635543
vn 0.000160007 1 -3.55848e-05
v 0.00455152 0.000286087 -0.00564287 0.447582 0.50777 0.635543
vn -0.696695 0.0103895 0.717293
v 0.00376492 0.00562654 -0.0196536 0.447582 0.50777 0.635543
vn -0.956865 0.255967 0.137446
v 0.003597 0.00147343 -0.0130982 0.447582 0.50777 0.635543
vn -0.988609 0.102304 0.110389
v 0.00424927 0.0056904 -0.0209139 0.447582 0.50777 0.635543
vn -0.611987 -0.356787 -0.705815
v 0.00367312 0.00275805 -0.0164649 0.447582 0.50777 0.635543
vn -0.494645 -0.759788 -0.421959
v 0.00370969 0.00390975 -0.017746 0.447582 0.50777 0.635543
vn -0.999744 0.00886573 -0.0208046
v 0.00429554 0.000463558 -0.00788531 0.447582 0.50777 0.635543
vn -0.876532 -0.477391 0.061551
v 0.00427389 0.000480637 -0.00809011 0.447582 0.50777 0.635543
vn -0.818841 -0.573875 0.0129644
v 0.00433061 0.000403411 -0.0083323 0.447582 0.50777 0.635543
vn -0.808299 -0.588732 -0.00691819
v 0.00365073 0.00238826 -0.0154976 0.447582 0.50777 0.635543
vn -0.863172 -0.464945 -0.196873
v 0.00460077 0.00390975 -0.0188239 0.447582 0.50777 0.635543
vn 0.168663 -0.819658 -0.547461
v 0.00421344 0.00390975 -0.0186326 0.447582 0.50777 0.635543
vn -0.528017 -0.688214 -0.497554
v 0.00424031 0.000528903 -0.0083323 0.447582 0.50777 0.635543
vn -0.841516 -0.540192 0.00665277
f 1//1 2//2 7//7
f 1//1 7//7 3//3
f 1//1 3//3 10//10
f 1//1 10//10 23//23
f 1//1 23//23 22//22
f 1//1 22//22 21//21
f 1//1 21//21 11//11
f 1//1 11//11 4//4
f 1//1 4//4 5//5
f 1//1 5//5 2//2
f 2//2 6//6 14//14
f 2//2 14//14 29//29
f 2//2 29//29 16//16
f 2//2 16//16 9//9
f 2//2 9//9 7//7
f 2//2 5//5 8//8
f 2//2 8//8 6//6
f 3//3 7//7 9//9
f 3//3 9//9 10//10
f 4//4 11//11 12//12
f 4//4 12//12 5//5
f 5//5 12//12 28//28
f 5//5 28//28 13//13
f 5//5 13//13 8//8
f 6//6 8//8 14//14
f 8//8 13//13 28//28
f 8//8 28//28 27//27
f 8//8 27//27 26//26
f 8//8 26//26 32//32
f 8//8 32//32 15//15
f 8//8 15//15 14//14
f 9//9 16//16 17//17
f 9//9 17//17 18//18
f 9//9 18//18 19//19
f 9//9 19//19 20//20
f 9//9 20//20 21//21
f 9//9 21//21 22//22
f 9//9 22//22 23//23
f 9//9 23//23 10//10
f 11//11 21//21 19//19
f 11//11 19//19 24//24
f 11//11 24//24 12//12
f 12//12 24//24 25//25
f 12//12 25//25 26//26
f 12//12 26//26 27//27
f 12//12 27//27 28//28
f 14//14 15//15 30//30
f 14//14 30//30 31//31
f 14//14 31//31 29//29
f 15//15 32//32 33//33
f 15//15 33//33 34//34
f 15//15 34//34 30//30
f 16//16 29//29 35//35
f 16//16 35//35 36//36
f 16//16 36//36 37//37
f 16//16 37//37 17//17
f 17//17 37//37 31//31
f 17//17 31//31 38//38
f 17//17 38//38 33//33
f 17//17 33//33 18//18
f 18//18 33//33 19//19
f 19//19 33//33 39//39
f 19//19 39//39 24//24
f 19//19 21//21 20//20
f 24//24 39//39 25//25
f 25//25 32//32 26//26
f 25//25 39//39 40//40
f 25//25 40//40 32//32
f 29//29 31//31 35//35
f 30//30 34//34 38//38
f 30//30 38//38 31//31
f 31//31 37//37 41//41
f 31//31 41//41 35//35
f 32//32 40//40 33//33
f 33//33 38//38 34//34
f 33//33 40//40 39//39
f 35//35 41//41 36//36
f 36//36 41//41 37//37
