# Created by Open3D 
# object name: top_watertight_tiny_part2
# number of vertices: 51
# number of triangles: 98
v 0.00207427 0.0321283 -0.02419 0.352818 0.754443 0.346591
vn -0.136293 -0.989219 0.0535701
v -0.000385794 0.0347776 -0.02419 0.352818 0.754443 0.346591
vn -0.713685 -0.656551 0.244119
v 0.00523588 0.0339617 -0.02419 0.352818 0.754443 0.346591
vn 0.461758 -0.795169 0.393046
v 0.00336284 0.0440065 -0.001673 0.352818 0.754443 0.346591
vn 0.414007 -0.717868 0.559699
v 0.00166454 0.0434246 -0.001673 0.352818 0.754443 0.346591
vn 0.235396 -0.865118 0.4429
v 0.000501527 0.043228 -0.001673 0.352818 0.754443 0.346591
vn -0.303875 -0.835366 0.458065
v -0.00176258 0.0446713 -0.001673 0.352818 0.754443 0.346591
vn -0.755943 -0.597898 0.266586
v -0.00040785 0.0348264 -0.02419 0.352818 0.754443 0.346591
vn -0.945829 -0.324087 0.0193643
v 0.00665339 0.0347874 -0.02419 0.352818 0.754443 0.346591
vn 0.724131 -0.672645 0.15226
v 0.00430021 0.0447769 -0.001673 0.352818 0.754443 0.346591
vn 0.662503 -0.345437 0.664653
v 0.00665339 0.0433466 -0.00750118 0.352818 0.754443 0.346591
vn 0.948554 -0.263393 0.175698
v -0.00182621 0.0451687 -0.001673 0.352818 0.754443 0.346591
vn -0.382665 -0.0482074 0.922628
v -0.00187286 0.0444762 -0.00381999 0.352818 0.754443 0.346591
vn -0.965689 -0.249618 0.0716636
v -0.00131977 0.0375034 -0.02419 0.352818 0.754443 0.346591
vn -0.956998 -0.283898 -0.059638
v 0.00665339 0.0400894 -0.02419 0.352818 0.754443 0.346591
vn 0.226301 0.00117587 -0.974057
v 0.00665424 0.0368679 -0.0230592 0.352818 0.754443 0.346591
vn 1 -0.000209092 6.97106e-05
v 0.00564985 0.0447363 -0.00381779 0.352818 0.754443 0.346591
vn 0.941207 -0.133991 0.310122
v 0.00538858 0.0450955 -0.00289198 0.352818 0.754443 0.346591
vn 0.843822 -0.0681341 0.53228
v 0.00430021 0.048647 -0.001673 0.352818 0.754443 0.346591
vn 0.167236 0.178395 0.969643
v 0.00665339 0.0484698 -0.00750118 0.352818 0.754443 0.346591
vn 0.998011 0.00468077 0.0628606
v 0.00665424 0.0397432 -0.0186968 0.352818 0.754443 0.346591
vn 1 -4.33519e-05 7.25739e-05
v -0.00201198 0.046651 -0.001673 0.352818 0.754443 0.346591
vn -0.895928 0.269175 0.353352
v -0.00199078 0.0442633 -0.00616537 0.352818 0.754443 0.346591
vn -0.998891 -0.0457032 -0.0112773
v -0.00136728 0.0382137 -0.0230592 0.352818 0.754443 0.346591
vn -0.996021 0.0511197 -0.0729962
v -0.000915981 0.0399545 -0.0238483 0.352818 0.754443 0.346591
vn -0.443122 0.824182 -0.352658
v -0.000977906 0.0393287 -0.02419 0.352818 0.754443 0.346591
vn -0.068212 0.017486 -0.997518
v 0.00647101 0.0401592 -0.02419 0.352818 0.754443 0.346591
vn 0.00890399 0.134992 -0.990807
v 0.00665339 0.0403202 -0.024018 0.352818 0.754443 0.346591
vn 0.23636 0.669493 -0.704211
v 0.00665424 0.041284 -0.0230592 0.352818 0.754443 0.346591
vn 1 2.63423e-05 -0.000722152
v 0.00564985 0.0485787 -0.00381779 0.352818 0.754443 0.346591
vn 0.964608 0.000867004 0.263686
v 0.00538858 0.0487331 -0.00289198 0.352818 0.754443 0.346591
vn 0.35512 0.911169 0.208954
v 0.000428573 0.0484064 -0.001673 0.352818 0.754443 0.346591
vn -0.0219165 0.303445 0.952597
v 0.00665424 0.0441707 -0.0186968 0.352818 0.754443 0.346591
vn 1 7.41013e-05 2.0671e-05
v 0.00665339 0.047961 -0.0103998 0.352818 0.754443 0.346591
vn 0.985275 0.16839 -0.0296245
v 0.00660588 0.0484974 -0.00750118 0.352818 0.754443 0.346591
vn -0.0712882 0.993865 -0.0845599
v -0.00104916 0.0481984 -0.001673 0.352818 0.754443 0.346591
vn -0.717046 0.478863 0.506493
v -0.00167351 0.0433401 -0.0127254 0.352818 0.754443 0.346591
vn -0.8962 0.409826 -0.169907
v -0.00178464 0.0436587 -0.0104351 0.352818 0.754443 0.346591
vn -0.996935 0.0547209 -0.0559162
v -0.00138509 0.0385127 -0.0225918 0.352818 0.754443 0.346591
vn -0.988459 0.121988 -0.0898172
v 0.0065991 0.0455392 -0.0172596 0.352818 0.754443 0.346591
vn -0.211904 0.871997 -0.441269
v 0.00306763 0.0413702 -0.0231936 0.352818 0.754443 0.346591
vn -0.135845 0.812021 -0.567599
v 0.00423234 0.040299 -0.02419 0.352818 0.754443 0.346591
vn -0.00735089 0.179901 -0.983657
v -0.000800612 0.0395286 -0.02419 0.352818 0.754443 0.346591
vn -0.00758397 0.0407219 -0.999142
v -0.00089138 0.0482861 -0.00191988 0.352818 0.754443 0.346591
vn -0.366037 0.889678 -0.272929
v 0.00623179 0.0481626 -0.0105872 0.352818 0.754443 0.346591
vn -0.360997 0.870062 -0.335668
v 0.00665424 0.0414872 -0.0228608 0.352818 0.754443 0.346591
vn 0.696589 0.557136 -0.452066
v 0.00665339 0.0454986 -0.0173037 0.352818 0.754443 0.346591
vn 0.98285 0.150906 -0.105991
v 0.00665339 0.0456156 -0.0169907 0.352818 0.754443 0.346591
vn 0.997531 0.06584 -0.0244246
v 0.00665339 0.0478717 -0.0109068 0.352818 0.754443 0.346591
vn 0.90576 0.399525 -0.141348
v 0.00625384 0.0481837 -0.0103998 0.352818 0.754443 0.346591
vn -0.0639329 0.992933 -0.0999837
v 0.00453095 0.0414173 -0.0230592 0.352818 0.754443 0.346591
vn 0.0307143 0.792198 -0.609491
f 1//1 2//2 8//8
f 1//1 8//8 14//14
f 1//1 14//14 26//26
f 1//1 26//26 43//43
f 1//1 43//43 42//42
f 1//1 42//42 27//27
f 1//1 27//27 15//15
f 1//1 15//15 9//9
f 1//1 9//9 3//3
f 1//1 3//3 4//4
f 1//1 4//4 5//5
f 1//1 5//5 6//6
f 1//1 6//6 7//7
f 1//1 7//7 2//2
f 2//2 7//7 8//8
f 3//3 9//9 4//4
f 4//4 10//10 19//19
f 4//4 19//19 32//32
f 4//4 32//32 36//36
f 4//4 36//36 22//22
f 4//4 22//22 12//12
f 4//4 12//12 7//7
f 4//4 7//7 6//6
f 4//4 6//6 5//5
f 4//4 9//9 11//11
f 4//4 11//11 10//10
f 7//7 12//12 13//13
f 7//7 13//13 14//14
f 7//7 14//14 8//8
f 9//9 15//15 29//29
f 9//9 29//29 16//16
f 9//9 16//16 11//11
f 10//10 11//11 17//17
f 10//10 17//17 18//18
f 10//10 18//18 31//31
f 10//10 31//31 19//19
f 11//11 20//20 30//30
f 11//11 30//30 17//17
f 11//11 16//16 21//21
f 11//11 21//21 33//33
f 11//11 33//33 20//20
f 12//12 22//22 13//13
f 13//13 22//22 23//23
f 13//13 23//23 14//14
f 14//14 23//23 24//24
f 14//14 24//24 25//25
f 14//14 25//25 26//26
f 15//15 27//27 28//28
f 15//15 28//28 29//29
f 16//16 29//29 46//46
f 16//16 46//46 33//33
f 16//16 33//33 21//21
f 17//17 30//30 31//31
f 17//17 31//31 18//18
f 19//19 31//31 32//32
f 20//20 33//33 34//34
f 20//20 34//34 35//35
f 20//20 35//35 31//31
f 20//20 31//31 30//30
f 22//22 36//36 37//37
f 22//22 37//37 23//23
f 23//23 37//37 38//38
f 23//23 38//38 39//39
f 23//23 39//39 24//24
f 24//24 39//39 25//25
f 25//25 40//40 41//41
f 25//25 41//41 42//42
f 25//25 42//42 43//43
f 25//25 43//43 26//26
f 25//25 39//39 37//37
f 25//25 37//37 44//44
f 25//25 44//44 45//45
f 25//25 45//45 40//40
f 27//27 42//42 46//46
f 27//27 46//46 28//28
f 28//28 46//46 29//29
f 31//31 35//35 44//44
f 31//31 44//44 32//32
f 32//32 44//44 36//36
f 33//33 47//47 48//48
f 33//33 48//48 49//49
f 33//33 49//49 34//34
f 33//33 46//46 47//47
f 34//34 50//50 35//35
f 34//34 49//49 50//50
f 35//35 50//50 44//44
f 36//36 44//44 37//37
f 37//37 39//39 38//38
f 40//40 48//48 47//47
f 40//40 47//47 46//46
f 40//40 46//46 51//51
f 40//40 51//51 41//41
f 40//40 45//45 49//49
f 40//40 49//49 48//48
f 41//41 51//51 42//42
f 42//42 51//51 46//46
f 44//44 50//50 45//45
f 45//45 50//50 49//49
