# Created by Open3D 
# object name: bottom_watertight_tiny_part0
# number of vertices: 62
# number of triangles: 120
v 0.00743734 -0.022938 0.058291 0.133206 0.191471 0.928074
vn 0.375484 -0.926825 0.00259059
v 0.00505548 -0.0023981 0.0713476 0.133206 0.191471 0.928074
vn 0.940869 0.33832 0.0174515
v 0.00603624 -0.0213915 0.0732947 0.133206 0.191471 0.928074
vn 0.0863132 -0.0724045 0.993634
v 0.00124137 -0.0232884 0.0711186 0.133206 0.191471 0.928074
vn 0.174735 -0.977629 0.117086
v -0.120997 -0.0444889 0.0700191 0.133206 0.191471 0.928074
vn 0.161832 -0.976009 0.145662
v -0.14726 -0.0493586 0.0593905 0.133206 0.191471 0.928074
vn 0.164536 -0.986358 -0.00508253
v 0.00477525 -0.0226177 -0.0722523 0.133206 0.191471 0.928074
vn 0.169925 -0.985436 -0.00634712
v 0.00521115 -0.0217869 -0.139368 0.133206 0.191471 0.928074
vn 0.16394 -0.986358 -0.0149215
v 0.00594284 -0.0216267 -0.120837 0.133206 0.191471 0.928074
vn 0.72326 -0.690469 -0.012167
v 0.00636316 -0.0204506 -0.146721 0.133206 0.191471 0.928074
vn 0.999959 -0.00118764 -0.0089244
v 0.00729723 -0.0220822 0.0321549 0.133206 0.191471 0.928074
vn 0.999051 0.0432913 -0.00470936
v 0.00563148 -0.0032189 -0.143537 0.133206 0.191471 0.928074
vn 0.996167 0.0874606 -0.00113072
v 0.00234668 8.43017e-05 -0.0601348 0.133206 0.191471 0.928074
vn 0.329287 0.944167 0.0108792
v -0.000408813 0.000204419 0.0108749 0.133206 0.191471 0.928074
vn 0.279979 0.959948 0.0105683
v 0.000603093 -0.000891645 0.0714164 0.133206 0.191471 0.928074
vn -0.0992015 0.650827 0.752717
v 0.00240895 -0.00292862 0.0716912 0.133206 0.191471 0.928074
vn 0.0921977 0.11506 0.989071
v 0.00524229 -0.000576339 -0.156616 0.133206 0.191471 0.928074
vn 0.967189 0.249914 -0.0456918
v 0.00440163 0.000379588 -0.149928 0.133206 0.191471 0.928074
vn 0.463396 0.886106 0.00899524
v 0.00191079 -0.00302872 0.0717141 0.133206 0.191471 0.928074
vn -0.0312956 0.0829706 0.99606
v -0.148318 -0.0474067 0.0706605 0.133206 0.191471 0.928074
vn -0.106854 0.0615915 0.992365
v -0.149688 -0.0494137 0.0494721 0.133206 0.191471 0.928074
vn -0.945196 -0.324162 0.0390446
v -0.148863 -0.0490984 0.0220532 0.133206 0.191471 0.928074
vn 0.159227 -0.987145 -0.0138695
v 0.0039813 -0.0225326 -0.0971744 0.133206 0.191471 0.928074
vn 0.163847 -0.986423 -0.0111465
v -0.149299 -0.0469213 -0.137375 0.133206 0.191471 0.928074
vn 0.143165 -0.989532 -0.0181644
v 0.00265804 -0.0215967 -0.160717 0.133206 0.191471 0.928074
vn 0.135045 -0.812202 -0.567531
v 0.00584943 -0.0201904 -0.156525 0.133206 0.191471 0.928074
vn 0.964702 -0.205813 -0.16429
v -0.00131174 -0.000180955 0.0545344 0.133206 0.191471 0.928074
vn 0.0229257 0.999671 0.0114725
v 0.00373221 0.000599801 -0.151325 0.133206 0.191471 0.928074
vn 0.293443 0.955961 0.00544446
v 0.000354007 0.00167084 -0.158495 0.133206 0.191471 0.928074
vn 0.0757446 0.938977 -0.335537
v -9.74574e-05 0.00171588 -0.154394 0.133206 0.191471 0.928074
vn -0.157247 0.987559 -0.000788581
v -0.0025883 -0.000296067 0.0588408 0.133206 0.191471 0.928074
vn -0.166246 0.985853 0.021353
v -0.136705 -0.025986 0.0665831 0.133206 0.191471 0.928074
vn -0.202608 0.970753 0.128793
v 0.0049932 -0.0112817 -0.159319 0.133206 0.191471 0.928074
vn 0.688156 0.0564966 -0.72336
v 0.00184851 -0.00137211 -0.158861 0.133206 0.191471 0.928074
vn -0.0128788 0.095344 -0.995361
v 0.00497764 -0.000456222 -0.156731 0.133206 0.191471 0.928074
vn 0.46645 0.328032 -0.821474
v -0.150669 -0.0294593 0.0650942 0.133206 0.191471 0.928074
vn -0.777561 0.623562 0.0810521
v -0.150124 -0.0485378 0.0301162 0.133206 0.191471 0.928074
vn -0.997826 -0.063328 0.0182449
v -0.151603 -0.0460955 -0.0437339 0.133206 0.191471 0.928074
vn -0.999092 -0.0424057 -0.00416029
v -0.150731 -0.0484878 -0.0357625 0.133206 0.191471 0.928074
vn -0.594151 -0.804264 -0.0119659
v -0.149237 -0.0444288 -0.156112 0.133206 0.191471 0.928074
vn -0.989104 -0.132704 -0.0637457
v -0.14438 -0.0452597 -0.157556 0.133206 0.191471 0.928074
vn -0.0243321 -0.144196 -0.98925
v -0.130104 -0.0430926 -0.157853 0.133206 0.191471 0.928074
vn 0.157963 -0.986695 -0.0384896
v -0.134728 -0.0437932 -0.157762 0.133206 0.191471 0.928074
vn -0.00758296 -0.0859699 -0.996269
v -0.0446836 -0.0272672 -0.159869 0.133206 0.191471 0.928074
vn -0.024768 0.0251375 -0.999377
v -0.129372 -0.0205807 -0.157304 0.133206 0.191471 0.928074
vn -0.11894 0.639132 -0.759844
v -0.118086 -0.0184286 -0.138429 0.133206 0.191471 0.928074
vn -0.170951 0.985228 -0.0100996
v -0.112699 -0.0174027 -0.129495 0.133206 0.191471 0.928074
vn -0.178363 0.983965 0.000760617
v -0.0846305 -0.012568 -0.128235 0.133206 0.191471 0.928074
vn -0.168772 0.985634 -0.00642906
v -0.0815947 -0.0119974 -0.117355 0.133206 0.191471 0.928074
vn -0.168378 0.985712 -0.00458878
v -0.0715068 -0.0101056 -0.0808422 0.133206 0.191471 0.928074
vn -0.172222 0.985002 0.0105039
v -0.0324317 -0.00380947 -0.0772917 0.133206 0.191471 0.928074
vn -0.155794 0.987761 0.00750002
v -0.0470187 -0.00770325 0.0240689 0.133206 0.191471 0.928074
vn -0.181006 0.983273 0.0202547
v -0.0786213 -0.0134839 0.0195793 0.133206 0.191471 0.928074
vn -0.18572 0.982294 0.0246165
v -0.0691561 -0.0125379 0.047296 0.133206 0.191471 0.928074
vn -0.186315 0.982002 0.0309621
v -0.0862962 -0.0144948 -0.00149456 0.133206 0.191471 0.928074
vn -0.19345 0.980904 0.0201095
v -0.0940178 -0.0144198 -0.0828809 0.133206 0.191471 0.928074
vn -0.196707 0.980286 0.0186027
v -0.149673 -0.0242643 -0.157006 0.133206 0.191471 0.928074
vn -0.236081 0.961888 -0.137975
v -0.150902 -0.0289689 0.0367132 0.133206 0.191471 0.928074
vn -0.866366 0.49933 0.00888209
v -0.151152 -0.0299698 0.0216867 0.133206 0.191471 0.928074
vn -0.999961 -0.000391906 0.00879122
v -0.151385 -0.0294693 -0.0163608 0.133206 0.191471 0.928074
vn -0.998403 0.0563873 -0.00331023
v -0.150467 -0.026016 -0.117561 0.133206 0.191471 0.928074
vn -0.997772 0.0659218 -0.0102412
v -0.149844 -0.0334632 -0.156937 0.133206 0.191471 0.928074
vn -0.998262 -0.0235821 -0.0540036
f 1//1 2//2 3//3
f 1//1 3//3 4//4
f 1//1 4//4 5//5
f 1//1 5//5 6//6
f 1//1 6//6 7//7
f 1//1 7//7 8//8
f 1//1 8//8 9//9
f 1//1 9//9 10//10
f 1//1 10//10 11//11
f 1//1 11//11 12//12
f 1//1 12//12 2//2
f 2//2 13//13 14//14
f 2//2 14//14 15//15
f 2//2 15//15 16//16
f 2//2 16//16 3//3
f 2//2 12//12 17//17
f 2//2 17//17 18//18
f 2//2 18//18 13//13
f 3//3 16//16 19//19
f 3//3 19//19 20//20
f 3//3 20//20 5//5
f 3//3 5//5 4//4
f 5//5 20//20 6//6
f 6//6 20//20 21//21
f 6//6 21//21 22//22
f 6//6 22//22 8//8
f 6//6 8//8 23//23
f 6//6 23//23 7//7
f 7//7 23//23 8//8
f 8//8 24//24 25//25
f 8//8 25//25 26//26
f 8//8 26//26 10//10
f 8//8 10//10 9//9
f 8//8 22//22 24//24
f 10//10 12//12 11//11
f 10//10 26//26 17//17
f 10//10 17//17 12//12
f 13//13 18//18 14//14
f 14//14 27//27 15//15
f 14//14 18//18 28//28
f 14//14 28//28 29//29
f 14//14 29//29 30//30
f 14//14 30//30 27//27
f 15//15 20//20 19//19
f 15//15 19//19 16//16
f 15//15 27//27 31//31
f 15//15 31//31 32//32
f 15//15 32//32 20//20
f 17//17 26//26 33//33
f 17//17 33//33 34//34
f 17//17 34//34 35//35
f 17//17 35//35 29//29
f 17//17 29//29 28//28
f 17//17 28//28 18//18
f 20//20 32//32 36//36
f 20//20 36//36 21//21
f 21//21 37//37 38//38
f 21//21 38//38 39//39
f 21//21 39//39 22//22
f 21//21 36//36 37//37
f 22//22 39//39 24//24
f 24//24 40//40 41//41
f 24//24 41//41 42//42
f 24//24 42//42 25//25
f 24//24 39//39 38//38
f 24//24 38//38 40//40
f 25//25 42//42 43//43
f 25//25 43//43 44//44
f 25//25 44//44 45//45
f 25//25 45//45 34//34
f 25//25 34//34 33//33
f 25//25 33//33 26//26
f 27//27 30//30 31//31
f 29//29 34//34 45//45
f 29//29 45//45 30//30
f 29//29 35//35 34//34
f 30//30 45//45 46//46
f 30//30 46//46 47//47
f 30//30 47//47 48//48
f 30//30 48//48 49//49
f 30//30 49//49 50//50
f 30//30 50//50 51//51
f 30//30 51//51 31//31
f 31//31 51//51 50//50
f 31//31 50//50 52//52
f 31//31 52//52 53//53
f 31//31 53//53 54//54
f 31//31 54//54 32//32
f 32//32 54//54 53//53
f 32//32 53//53 55//55
f 32//32 55//55 56//56
f 32//32 56//56 57//57
f 32//32 57//57 36//36
f 36//36 57//57 58//58
f 36//36 58//58 59//59
f 36//36 59//59 38//38
f 36//36 38//38 37//37
f 38//38 59//59 60//60
f 38//38 60//60 61//61
f 38//38 61//61 62//62
f 38//38 62//62 40//40
f 40//40 62//62 41//41
f 41//41 62//62 57//57
f 41//41 57//57 44//44
f 41//41 44//44 43//43
f 41//41 43//43 42//42
f 44//44 57//57 45//45
f 45//45 57//57 46//46
f 46//46 57//57 47//47
f 47//47 56//56 50//50
f 47//47 50//50 49//49
f 47//47 49//49 48//48
f 47//47 57//57 56//56
f 50//50 56//56 55//55
f 50//50 55//55 53//53
f 50//50 53//53 52//52
f 57//57 62//62 61//61
f 57//57 61//61 58//58
f 58//58 60//60 59//59
f 58//58 61//61 60//60
