# Created by Open3D 
# object name: bottom_watertight_tiny_part5
# number of vertices: 32
# number of triangles: 60
v 0.019882 0.0283489 0.0191369 0.98954 0.191767 0.999954
vn -0.29727 0.0233037 0.954509
v 0.0378817 0.0260775 0.0191369 0.98954 0.191767 0.999954
vn 0.97354 -0.0819865 0.213302
v 0.0354006 0.0446413 0.0191259 0.98954 0.191767 0.999954
vn 0.6167 0.680238 0.396179
v 0.0261136 0.0448516 0.0191259 0.98954 0.191767 0.999954
vn -0.274258 0.951833 0.137099
v 0.0204391 0.0394325 0.0163653 0.98954 0.191767 0.999954
vn -0.921513 0.379137 0.0840719
v 0.0197939 0.0363409 -0.00573589 0.98954 0.191767 0.999954
vn -0.997865 0.06531 -0.000615091
v 0.0194417 0.0185342 0.0191259 0.98954 0.191767 0.999954
vn -0.999935 0.0101146 0.00531995
v 0.0194417 -0.00724335 0.0191369 0.98954 0.191767 0.999954
vn -0.987041 -0.0188881 0.159354
v 0.036823 0.0187025 0.0191369 0.98954 0.191767 0.999954
vn 0.000612807 -0.000139358 1
v 0.0358696 0.0102198 0.0191259 0.98954 0.191767 0.999954
vn 0.988809 -0.149092 0.00529433
v 0.0379411 0.0241146 -0.0372672 0.98954 0.191767 0.999954
vn 0.940927 -0.166803 -0.294674
v 0.038994 0.0399372 -0.0372672 0.98954 0.191767 0.999954
vn 0.98956 0.142578 -0.0210459
v 0.0382952 0.0356538 0.0191259 0.98954 0.191767 0.999954
vn 0.989839 0.132327 0.0520356
v 0.034631 0.0457419 -0.0372672 0.98954 0.191767 0.999954
vn 0.114331 0.965272 -0.234902
v 0.0220607 0.0428326 -0.0372672 0.98954 0.191767 0.999954
vn -0.555082 0.737155 -0.38534
v 0.0219937 0.0428466 -0.0294051 0.98954 0.191767 0.999954
vn -0.690054 0.723754 -0.00233023
v 0.0218616 0.0426994 -0.0196768 0.98954 0.191767 0.999954
vn -0.697858 0.715621 0.0296777
v 0.0201596 0.0369718 -0.0168831 0.98954 0.191767 0.999954
vn -0.968424 0.248625 -0.0184306
v 0.0200428 0.0355557 -0.0294051 0.98954 0.191767 0.999954
vn -0.969193 0.245559 -0.0191171
v 0.0201194 0.0352262 -0.0372672 0.98954 0.191767 0.999954
vn -0.547955 0.00731151 -0.836476
v 0.0194398 0.0172443 -0.0329938 0.98954 0.191767 0.999954
vn -0.999807 0.0168746 -0.0100186
v 0.0194398 0.0175948 -0.00574141 0.98954 0.191767 0.999954
vn -1 0.000172172 2.75512e-05
v 0.0194359 -0.00643014 -0.0240054 0.98954 0.191767 0.999954
vn -1 3.16275e-05 0.000102574
v 0.0194359 -0.0234376 -0.0252366 0.98954 0.191767 0.999954
vn -0.998856 -0.0413147 -0.0240811
v 0.0194398 -0.0236549 -0.0152544 0.98954 0.191767 0.999954
vn -0.996425 -0.0795491 0.0284452
v 0.020778 -0.0245663 0.0186179 0.98954 0.191767 0.999954
vn -0.900565 -0.372106 0.224767
v 0.0270153 -0.0212153 0.0191369 0.98954 0.191767 0.999954
vn 0.795224 -0.442603 0.414393
v 0.0345257 0.0038192 0.0191259 0.98954 0.191767 0.999954
vn 0.968214 -0.250113 -0.00229117
v 0.0288704 -0.0138402 -0.0372672 0.98954 0.191767 0.999954
vn 0.900786 -0.311188 -0.302896
v 0.021069 -0.0241176 -0.0352851 0.98954 0.191767 0.999954
vn 0.277848 -0.719827 -0.63612
v 0.0194359 -0.00643014 -0.033303 0.98954 0.191767 0.999954
vn -0.996355 -0.0122129 -0.0844236
v 0.0201271 -0.0258772 -0.00896576 0.98954 0.191767 0.999954
vn 0.302505 -0.953124 -0.0066684
f 1//1 2//2 3//3
f 1//1 3//3 4//4
f 1//1 4//4 5//5
f 1//1 5//5 6//6
f 1//1 6//6 7//7
f 1//1 7//7 8//8
f 1//1 8//8 27//27
f 1//1 27//27 9//9
f 1//1 9//9 2//2
f 2//2 9//9 10//10
f 2//2 10//10 11//11
f 2//2 11//11 12//12
f 2//2 12//12 13//13
f 2//2 13//13 3//3
f 3//3 12//12 14//14
f 3//3 14//14 4//4
f 3//3 13//13 12//12
f 4//4 14//14 15//15
f 4//4 15//15 16//16
f 4//4 16//16 17//17
f 4//4 17//17 5//5
f 5//5 17//17 16//16
f 5//5 16//16 15//15
f 5//5 15//15 6//6
f 6//6 18//18 19//19
f 6//6 19//19 20//20
f 6//6 20//20 21//21
f 6//6 21//21 7//7
f 6//6 15//15 18//18
f 7//7 21//21 22//22
f 7//7 22//22 23//23
f 7//7 23//23 8//8
f 8//8 23//23 24//24
f 8//8 24//24 25//25
f 8//8 25//25 26//26
f 8//8 26//26 27//27
f 9//9 27//27 28//28
f 9//9 28//28 10//10
f 10//10 28//28 11//11
f 11//11 28//28 29//29
f 11//11 29//29 20//20
f 11//11 20//20 15//15
f 11//11 15//15 14//14
f 11//11 14//14 12//12
f 15//15 20//20 19//19
f 15//15 19//19 18//18
f 20//20 29//29 30//30
f 20//20 30//30 31//31
f 20//20 31//31 21//21
f 21//21 31//31 22//22
f 22//22 31//31 23//23
f 23//23 31//31 24//24
f 24//24 31//31 30//30
f 24//24 30//30 32//32
f 24//24 32//32 25//25
f 25//25 32//32 26//26
f 26//26 32//32 27//27
f 27//27 29//29 28//28
f 27//27 32//32 30//30
f 27//27 30//30 29//29
