# Created by Open3D 
# object name: bottom_watertight_tiny_part6
# number of vertices: 31
# number of triangles: 58
v -0.04125 -0.011705 0.00287274 0.287854 0.45922 0.126817
vn 0.319462 -0.946665 0.0420739
v -0.0368764 -0.00530918 0.021125 0.287854 0.45922 0.126817
vn 0.908498 -0.302898 0.287896
v -0.0380274 -0.00626964 0.021125 0.287854 0.45922 0.126817
vn 0.610771 -0.781477 0.127485
v -0.0445833 -0.0113325 0.021125 0.287854 0.45922 0.126817
vn 0.0527117 -0.975052 0.215625
v -0.0467018 -0.0112125 -0.036302 0.287854 0.45922 0.126817
vn -0.301237 -0.938916 -0.166413
v -0.0393773 -0.0111361 -0.018179 0.287854 0.45922 0.126817
vn 0.18985 -0.979201 -0.071572
v -0.0388766 -0.0111074 -0.016858 0.287854 0.45922 0.126817
vn 0.705254 -0.706423 0.0598539
v -0.0366215 -0.00502404 0.00321002 0.287854 0.45922 0.126817
vn 0.879602 0.475342 0.0187105
v -0.0425818 0.00223265 0.021125 0.287854 0.45922 0.126817
vn 0.277151 0.956351 0.0926341
v -0.0386503 -0.0108932 -0.018179 0.287854 0.45922 0.126817
vn 0.82759 -0.560507 0.0304373
v -0.0359309 -0.00781402 -0.036302 0.287854 0.45922 0.126817
vn 0.817542 -0.530179 -0.224802
v -0.0458747 -0.010735 0.0191351 0.287854 0.45922 0.126817
vn -0.518255 -0.852229 0.0715389
v -0.0483561 -0.00547426 0.021125 0.287854 0.45922 0.126817
vn -0.550164 -0.0880884 0.830397
v -0.0474444 -0.00918105 -0.0333058 0.287854 0.45922 0.126817
vn -0.996709 -0.039146 -0.0709803
v -0.0470712 -0.00768033 -0.036302 0.287854 0.45922 0.126817
vn -0.972012 -0.0090812 -0.234756
v -0.0470425 -0.010177 0.0170159 0.287854 0.45922 0.126817
vn -0.819492 -0.572731 0.0203017
v -0.049217 -0.00674169 -0.00312517 0.287854 0.45922 0.126817
vn -0.976911 -0.213614 -0.00365987
v -0.0365318 -0.00493263 -0.00464291 0.287854 0.45922 0.126817
vn 0.835031 0.550142 -0.00812276
v -0.0367919 -0.00469524 -0.00579527 0.287854 0.45922 0.126817
vn 0.736667 0.675674 -0.0280403
v -0.039601 -0.00214811 -0.018179 0.287854 0.45922 0.126817
vn 0.736447 0.675911 -0.0280987
v -0.0405374 -0.00130088 -0.0223106 0.287854 0.45922 0.126817
vn 0.541755 0.837403 -0.0725117
v -0.0436547 -0.00109487 -0.036302 0.287854 0.45922 0.126817
vn 0.054819 0.961698 -0.268572
v -0.0469736 -0.000363605 -0.00579527 0.287854 0.45922 0.126817
vn -0.265226 0.96283 -0.0511248
v -0.0480804 -0.000212171 0.0032831 0.287854 0.45922 0.126817
vn -0.764749 0.641508 0.0602192
v -0.0485667 -0.00424776 0.0191351 0.287854 0.45922 0.126817
vn -0.940368 0.330767 0.0793773
v -0.0370455 -0.00606227 -0.0333058 0.287854 0.45922 0.126817
vn 0.724694 0.684401 -0.0800859
v -0.0477903 -0.00768987 0.0191351 0.287854 0.45922 0.126817
vn -0.939301 -0.333339 0.0812357
v -0.0467837 -0.00244279 -0.036302 0.287854 0.45922 0.126817
vn -0.953099 0.108876 -0.282398
v -0.0486266 -0.00143867 -0.0166556 0.287854 0.45922 0.126817
vn -0.954555 0.294412 -0.0463271
v -0.0470633 -0.00228863 -0.0333058 0.287854 0.45922 0.126817
vn -0.394241 0.915182 -0.0837545
v -0.0483287 -0.000770166 -0.00579527 0.287854 0.45922 0.126817
vn -0.287219 0.956508 -0.0509699
f 1//1 2//2 3//3
f 1//1 3//3 4//4
f 1//1 4//4 5//5
f 1//1 5//5 6//6
f 1//1 6//6 7//7
f 1//1 7//7 2//2
f 2//2 8//8 9//9
f 2//2 9//9 13//13
f 2//2 13//13 4//4
f 2//2 4//4 3//3
f 2//2 7//7 10//10
f 2//2 10//10 11//11
f 2//2 11//11 8//8
f 4//4 12//12 5//5
f 4//4 13//13 12//12
f 5//5 14//14 15//15
f 5//5 15//15 28//28
f 5//5 28//28 22//22
f 5//5 22//22 11//11
f 5//5 11//11 6//6
f 5//5 12//12 16//16
f 5//5 16//16 17//17
f 5//5 17//17 14//14
f 6//6 10//10 7//7
f 6//6 11//11 10//10
f 8//8 18//18 9//9
f 8//8 11//11 18//18
f 9//9 18//18 19//19
f 9//9 19//19 20//20
f 9//9 20//20 21//21
f 9//9 21//21 22//22
f 9//9 22//22 23//23
f 9//9 23//23 24//24
f 9//9 24//24 25//25
f 9//9 25//25 13//13
f 11//11 22//22 26//26
f 11//11 26//26 18//18
f 12//12 13//13 27//27
f 12//12 27//27 16//16
f 13//13 25//25 17//17
f 13//13 17//17 27//27
f 14//14 28//28 15//15
f 14//14 17//17 29//29
f 14//14 29//29 28//28
f 16//16 27//27 17//17
f 17//17 25//25 29//29
f 18//18 26//26 19//19
f 19//19 26//26 20//20
f 20//20 26//26 21//21
f 21//21 26//26 22//22
f 22//22 28//28 30//30
f 22//22 30//30 29//29
f 22//22 29//29 23//23
f 23//23 31//31 24//24
f 23//23 29//29 31//31
f 24//24 31//31 29//29
f 24//24 29//29 25//25
f 28//28 29//29 30//30
