# Created by Open3D 
# object name: bottom_watertight_tiny_part4
# number of vertices: 32
# number of triangles: 60
v -0.101516 0.0634839 0.0315649 0.725676 0.0336656 0.359818
vn 0.00925528 0.0688866 0.997582
v -0.101649 0.0634839 0.0209221 0.725676 0.0336656 0.359818
vn 0.107235 0.991797 -0.0695626
v -0.113628 0.0634839 0.0315649 0.725676 0.0336656 0.359818
vn -0.846159 0.231057 0.480237
v -0.104507 0.0445536 0.0315649 0.725676 0.0336656 0.359818
vn 9.90791e-05 -1.58518e-05 1
v -0.0919494 -0.0300988 0.0315624 0.725676 0.0336656 0.359818
vn 0.000188488 -3.37921e-05 1
v 0.0112213 -0.0360004 0.0315405 0.725676 0.0336656 0.359818
vn 0.0164939 -0.0307416 0.999391
v 0.0351469 0.0165063 0.0311149 0.725676 0.0336656 0.359818
vn 0.0119753 0.00733656 0.999901
v 0.0256461 0.0491122 0.0307672 0.725676 0.0336656 0.359818
vn 0.0785119 0.560763 0.824245
v -0.113661 0.0634839 0.0209221 0.725676 0.0336656 0.359818
vn -0.0492876 0.0352487 -0.998162
v 0.0339407 0.0480338 0.0201001 0.725676 0.0336656 0.359818
vn 0.0557642 0.287564 -0.956137
v -0.12341 0.00542852 0.0209221 0.725676 0.0336656 0.359818
vn -0.117341 0.0196497 -0.992897
v -0.123112 0.00675198 0.0315649 0.725676 0.0336656 0.359818
vn -0.766735 0.128082 0.629057
v -0.110075 0.00998708 0.0315649 0.725676 0.0336656 0.359818
vn 9.65078e-05 -1.61146e-05 1
v -0.116288 -0.026001 0.0315649 0.725676 0.0336656 0.359818
vn 8.54715e-05 -1.72429e-05 1
v -0.119345 -0.0359612 0.0315649 0.725676 0.0336656 0.359818
vn -0.0304609 -0.714989 0.698472
v -0.00293903 -0.0361474 0.0315405 0.725676 0.0336656 0.359818
vn 0.00974646 -0.982239 0.187382
v -0.00858996 -0.036667 0.0221041 0.725676 0.0336656 0.359818
vn 0.0112999 -0.982073 -0.188162
v 0.0100482 -0.0326182 0.0211276 0.725676 0.0336656 0.359818
vn 0.069271 -0.460859 -0.884766
v 0.0217797 -0.0281871 0.0200648 0.725676 0.0336656 0.359818
vn 0.0525588 -0.106553 -0.992917
v 0.0272984 -0.0203052 0.0312499 0.725676 0.0336656 0.359818
vn 0.616651 -0.380196 0.689342
v 0.0330815 -0.000218199 0.0307428 0.725676 0.0336656 0.359818
vn 0.953078 -0.237206 0.188085
v 0.0390629 0.0268782 0.0299354 0.725676 0.0336656 0.359818
vn 0.980303 -0.129141 0.149428
v 0.0386168 0.0435537 0.0304741 0.725676 0.0336656 0.359818
vn 0.578576 0.321495 0.749594
v 0.0358574 0.0102224 0.0191431 0.725676 0.0336656 0.359818
vn 0.00460009 -0.000878223 -0.999989
v 0.0390133 0.0382403 0.0209294 0.725676 0.0336656 0.359818
vn 0.891593 0.0986848 -0.441953
v -0.129738 -0.0324418 0.0209221 0.725676 0.0336656 0.359818
vn -0.139848 -0.00825105 -0.990139
v -0.129408 -0.0309909 0.0315649 0.725676 0.0336656 0.359818
vn -0.278559 -0.0245688 0.960105
v -0.122055 -0.0356474 0.0209221 0.725676 0.0336656 0.359818
vn -0.00909173 -0.225321 -0.974242
v -0.0174299 -0.0362847 0.0315405 0.725676 0.0336656 0.359818
vn -0.00158596 -0.998434 0.0559239
v 0.0287524 -0.0186583 0.0203713 0.725676 0.0336656 0.359818
vn 0.926379 -0.334948 -0.172138
v 0.0343042 0.00264437 0.0208407 0.725676 0.0336656 0.359818
vn 0.973567 -0.226544 0.0290757
v 0.0382533 0.0228098 0.0209209 0.725676 0.0336656 0.359818
vn 0.985584 -0.102431 -0.134654
f 1//1 2//2 9//9
f 1//1 9//9 3//3
f 1//1 3//3 12//12
f 1//1 12//12 27//27
f 1//1 27//27 15//15
f 1//1 15//15 14//14
f 1//1 14//14 13//13
f 1//1 13//13 4//4
f 1//1 4//4 5//5
f 1//1 5//5 6//6
f 1//1 6//6 7//7
f 1//1 7//7 8//8
f 1//1 8//8 2//2
f 2//2 8//8 10//10
f 2//2 10//10 9//9
f 3//3 9//9 11//11
f 3//3 11//11 12//12
f 4//4 13//13 5//5
f 5//5 13//13 14//14
f 5//5 14//14 15//15
f 5//5 15//15 6//6
f 6//6 16//16 17//17
f 6//6 17//17 18//18
f 6//6 18//18 19//19
f 6//6 19//19 20//20
f 6//6 20//20 7//7
f 6//6 15//15 16//16
f 7//7 20//20 21//21
f 7//7 21//21 22//22
f 7//7 22//22 23//23
f 7//7 23//23 8//8
f 8//8 23//23 10//10
f 9//9 10//10 24//24
f 9//9 24//24 11//11
f 10//10 23//23 25//25
f 10//10 25//25 24//24
f 11//11 26//26 12//12
f 11//11 24//24 26//26
f 12//12 26//26 27//27
f 15//15 28//28 17//17
f 15//15 17//17 29//29
f 15//15 29//29 16//16
f 15//15 27//27 26//26
f 15//15 26//26 28//28
f 16//16 29//29 17//17
f 17//17 28//28 18//18
f 18//18 28//28 19//19
f 19//19 30//30 20//20
f 19//19 28//28 24//24
f 19//19 24//24 30//30
f 20//20 30//30 21//21
f 21//21 30//30 31//31
f 21//21 31//31 22//22
f 22//22 25//25 23//23
f 22//22 31//31 24//24
f 22//22 24//24 32//32
f 22//22 32//32 25//25
f 24//24 25//25 32//32
f 24//24 31//31 30//30
f 24//24 28//28 26//26
