# Created by Open3D 
# object name: bottom_watertight_tiny_part1
# number of vertices: 32
# number of triangles: 60
v -0.117264 -0.0307919 0.043425 0.0661658 0.755457 0.107853
vn 0.920307 -0.188041 0.34304
v -0.129083 -0.0294504 0.0429342 0.0661658 0.755457 0.107853
vn -0.988085 0.140158 0.0635971
v -0.119302 -0.0359526 0.0328985 0.0661658 0.755457 0.107853
vn 0.285811 -0.95602 0.0658594
v -0.103742 -0.0287239 -0.0416882 0.0661658 0.755457 0.107853
vn 0.985788 -0.167622 -0.0111848
v -0.101378 0.064095 0.0416522 0.0661658 0.755457 0.107853
vn 0.935683 -0.146785 0.320861
v -0.120255 0.0235171 0.0423734 0.0661658 0.755457 0.107853
vn -0.0248454 0.0210557 0.99947
v -0.107398 0.102083 0.040871 0.0661658 0.755457 0.107853
vn -0.98335 0.167891 0.0695436
v -0.1306 -0.033866 -0.0543881 0.0661658 0.755457 0.107853
vn -0.98926 0.140729 -0.0394935
v -0.12957 -0.0317048 0.0262281 0.0661658 0.755457 0.107853
vn -0.852644 -0.51416 0.0929365
v -0.120788 -0.036083 0.00762896 0.0661658 0.755457 0.107853
vn -0.0877628 -0.996131 -0.00458185
v -0.11906 -0.0353192 -0.0527255 0.0661658 0.755457 0.107853
vn 0.326203 -0.896408 -0.300075
v -0.130074 -0.0342199 0.00741863 0.0661658 0.755457 0.107853
vn -0.426438 -0.900712 0.0828766
v -0.130269 -0.0345367 -0.00814573 0.0661658 0.755457 0.107853
vn -0.503664 -0.863728 0.0172005
v -0.114256 -0.00319959 -0.0578936 0.0661658 0.755457 0.107853
vn 0.576926 -0.114129 -0.808784
v -0.0916773 0.126192 -0.053647 0.0661658 0.755457 0.107853
vn 0.936474 -0.0630419 -0.345025
v -0.0876064 0.152927 -0.0150566 0.0661658 0.755457 0.107853
vn 0.998457 -0.0112938 -0.0543771
v -0.0873225 0.149424 0.00909125 0.0661658 0.755457 0.107853
vn 0.999306 -0.00367047 0.0370747
v -0.0886146 0.141227 0.0209098 0.0661658 0.755457 0.107853
vn 0.992065 -0.0888658 0.0889345
v -0.0930499 0.115907 0.0394888 0.0661658 0.755457 0.107853
vn 0.969795 -0.104197 0.220545
v -0.101696 0.0856696 0.0410713 0.0661658 0.755457 0.107853
vn 0.0662047 0.0310007 0.997324
v -0.102882 0.127459 0.0367946 0.0661658 0.755457 0.107853
vn -0.695092 0.429633 0.576422
v -0.0986035 0.15425 0.00421362 0.0661658 0.755457 0.107853
vn -0.969081 0.246582 0.00885896
v -0.124317 0.00367519 -0.0573428 0.0661658 0.755457 0.107853
vn -0.983791 0.165771 -0.0683697
v -0.130451 -0.0346857 -0.0289683 0.0661658 0.755457 0.107853
vn -0.129019 -0.991528 -0.0150359
v -0.110884 0.0329443 -0.0585547 0.0661658 0.755457 0.107853
vn 0.0191015 -0.0163159 -0.999684
v -0.100023 0.113411 -0.0585346 0.0661658 0.755457 0.107853
vn 0.194804 0.0381324 -0.980101
v -0.102382 0.130346 -0.0522948 0.0661658 0.755457 0.107853
vn -0.96311 0.239866 -0.121996
v -0.0934862 0.139475 -0.0434911 0.0661658 0.755457 0.107853
vn 0.506912 0.633077 -0.585024
v -0.0937954 0.146667 -0.0333252 0.0661658 0.755457 0.107853
vn -0.48292 0.820492 -0.305912
v -0.0954179 0.135991 0.0300441 0.0661658 0.755457 0.107853
vn 0.135387 0.704879 0.696288
v -0.113206 0.0613563 -0.0587049 0.0661658 0.755457 0.107853
vn -0.535015 0.106827 -0.838061
v -0.10542 0.0854833 -0.0588952 0.0661658 0.755457 0.107853
vn 0.0255427 -0.00319894 -0.999669
f 1//1 2//2 3//3
f 1//1 3//3 4//4
f 1//1 4//4 5//5
f 1//1 5//5 6//6
f 1//1 6//6 2//2
f 2//2 6//6 7//7
f 2//2 7//7 8//8
f 2//2 8//8 9//9
f 2//2 9//9 3//3
f 3//3 10//10 11//11
f 3//3 11//11 4//4
f 3//3 9//9 12//12
f 3//3 12//12 13//13
f 3//3 13//13 10//10
f 4//4 11//11 14//14
f 4//4 14//14 15//15
f 4//4 15//15 16//16
f 4//4 16//16 17//17
f 4//4 17//17 18//18
f 4//4 18//18 19//19
f 4//4 19//19 5//5
f 5//5 19//19 20//20
f 5//5 20//20 7//7
f 5//5 7//7 6//6
f 7//7 20//20 19//19
f 7//7 19//19 21//21
f 7//7 21//21 22//22
f 7//7 22//22 23//23
f 7//7 23//23 8//8
f 8//8 23//23 14//14
f 8//8 14//14 11//11
f 8//8 11//11 24//24
f 8//8 24//24 13//13
f 8//8 13//13 9//9
f 9//9 13//13 12//12
f 10//10 13//13 24//24
f 10//10 24//24 11//11
f 14//14 25//25 26//26
f 14//14 26//26 15//15
f 14//14 23//23 25//25
f 15//15 26//26 27//27
f 15//15 27//27 28//28
f 15//15 28//28 16//16
f 16//16 28//28 29//29
f 16//16 29//29 22//22
f 16//16 22//22 17//17
f 17//17 22//22 30//30
f 17//17 30//30 18//18
f 18//18 30//30 19//19
f 19//19 30//30 21//21
f 21//21 30//30 22//22
f 22//22 29//29 27//27
f 22//22 27//27 23//23
f 23//23 31//31 25//25
f 23//23 27//27 31//31
f 25//25 32//32 26//26
f 25//25 31//31 32//32
f 26//26 32//32 31//31
f 26//26 31//31 27//27
f 27//27 29//29 28//28
