# Created by Open3D 
# object name: top_watertight_tiny_part3
# number of vertices: 32
# number of triangles: 60
v 0.0424164 0.0406917 0.0249338 0.11691 0.819055 0.418916
vn 0.754821 -0.397057 0.522103
v 0.0395809 0.0363952 0.0209785 0.11691 0.819055 0.418916
vn 0.0847612 -0.983031 0.162685
v 0.0407119 0.0363952 -0.0368068 0.11691 0.819055 0.418916
vn 0.866993 -0.497973 -0.0185838
v 0.052092 0.0616634 0.0232599 0.11691 0.819055 0.418916
vn 0.985264 -0.168917 0.0268634
v 0.051446 0.0881473 0.0224456 0.11691 0.819055 0.418916
vn 0.856766 0.100245 0.505868
v 0.0392227 0.0706364 0.0224133 0.11691 0.819055 0.418916
vn -0.330589 0.151659 0.93151
v 0.0378845 0.0644748 0.0222129 0.11691 0.819055 0.418916
vn -0.56498 0.0954702 0.819563
v 0.0343708 0.048304 0.0216701 0.11691 0.819055 0.418916
vn -0.788286 -0.00937666 0.615237
v 0.0338214 0.0363952 0.0119627 0.11691 0.819055 0.418916
vn -0.521692 -0.847531 0.0976145
v 0.0327146 0.0431716 0.0157694 0.11691 0.819055 0.418916
vn -0.993358 0.0201566 0.113284
v 0.0423942 0.0416933 -0.0410788 0.11691 0.819055 0.418916
vn -0.245276 0.0232105 -0.969175
v 0.050798 0.0616634 -0.036852 0.11691 0.819055 0.418916
vn 0.977094 -0.194215 -0.0869944
v 0.0341736 0.0363952 -0.0322633 0.11691 0.819055 0.418916
vn -0.315078 -0.932003 -0.179156
v 0.050798 0.0871181 -0.0367615 0.11691 0.819055 0.418916
vn 0.949614 0.0723962 -0.304946
v 0.050798 0.100498 -0.0275001 0.11691 0.819055 0.418916
vn 0.993455 0.105919 -0.0427587
v 0.050798 0.0987782 0.0162412 0.11691 0.819055 0.418916
vn 0.94464 0.289228 0.154929
v 0.0443161 0.0973483 0.0179021 0.11691 0.819055 0.418916
vn -0.501826 0.514334 0.695436
v 0.0358479 0.0824347 0.0155432 0.11691 0.819055 0.418916
vn -0.850998 0.163152 0.499183
v 0.0320928 0.0393447 0.0030115 0.11691 0.819055 0.418916
vn -0.998984 0.0362906 0.0267156
v 0.031956 0.0376247 -0.0196088 0.11691 0.819055 0.418916
vn -0.87023 -0.492541 -0.0101489
v 0.0358479 0.0895012 0.0124991 0.11691 0.819055 0.418916
vn -0.939592 0.189996 0.284726
v 0.0358479 0.0961878 0.00636577 0.11691 0.819055 0.418916
vn -0.96695 0.200882 0.157018
v 0.0358479 0.0997107 -0.000562514 0.11691 0.819055 0.418916
vn -0.986611 0.153693 0.0545709
v 0.0327549 0.0465287 -0.0332392 0.11691 0.819055 0.418916
vn -0.848432 0.0938256 -0.520923
v 0.039762 0.0798719 -0.0346481 0.11691 0.819055 0.418916
vn -0.73463 0.159954 -0.659343
v 0.0430442 0.0873115 -0.0348097 0.11691 0.819055 0.418916
vn -0.444342 0.288733 -0.848053
v 0.0315354 0.0412513 -0.0276875 0.11691 0.819055 0.418916
vn -0.998263 0.0568209 -0.0155673
v 0.0446018 0.102605 -0.0255935 0.11691 0.819055 0.418916
vn -0.502381 0.677862 -0.536764
v 0.0483912 0.106964 -0.0144773 0.11691 0.819055 0.418916
vn -0.132305 0.985861 -0.10283
v 0.0487212 0.106356 0.00506672 0.11691 0.819055 0.418916
vn 0.16042 0.965507 0.205087
v 0.0358479 0.100464 -0.00859597 0.11691 0.819055 0.418916
vn -0.905106 0.420824 -0.0607516
v 0.0358479 0.0931485 -0.0213021 0.11691 0.819055 0.418916
vn -0.933842 0.215494 -0.285485
f 1//1 2//2 3//3
f 1//1 3//3 4//4
f 1//1 4//4 5//5
f 1//1 5//5 6//6
f 1//1 6//6 7//7
f 1//1 7//7 8//8
f 1//1 8//8 2//2
f 2//2 9//9 13//13
f 2//2 13//13 3//3
f 2//2 8//8 10//10
f 2//2 10//10 9//9
f 3//3 11//11 12//12
f 3//3 12//12 4//4
f 3//3 13//13 11//11
f 4//4 12//12 14//14
f 4//4 14//14 15//15
f 4//4 15//15 5//5
f 5//5 15//15 16//16
f 5//5 16//16 17//17
f 5//5 17//17 6//6
f 6//6 17//17 18//18
f 6//6 18//18 7//7
f 7//7 18//18 8//8
f 8//8 18//18 10//10
f 9//9 19//19 20//20
f 9//9 20//20 13//13
f 9//9 10//10 19//19
f 10//10 18//18 21//21
f 10//10 21//21 22//22
f 10//10 22//22 23//23
f 10//10 23//23 19//19
f 11//11 24//24 25//25
f 11//11 25//25 26//26
f 11//11 26//26 14//14
f 11//11 14//14 12//12
f 11//11 13//13 24//24
f 13//13 20//20 27//27
f 13//13 27//27 24//24
f 14//14 26//26 28//28
f 14//14 28//28 15//15
f 15//15 28//28 29//29
f 15//15 29//29 30//30
f 15//15 30//30 16//16
f 16//16 30//30 17//17
f 17//17 30//30 23//23
f 17//17 23//23 22//22
f 17//17 22//22 21//21
f 17//17 21//21 18//18
f 19//19 27//27 20//20
f 19//19 23//23 27//27
f 23//23 30//30 31//31
f 23//23 31//31 27//27
f 24//24 27//27 32//32
f 24//24 32//32 25//25
f 25//25 32//32 26//26
f 26//26 32//32 28//28
f 27//27 31//31 32//32
f 28//28 32//32 31//31
f 28//28 31//31 29//29
f 29//29 31//31 30//30
