# Created by Open3D 
# object name: top_watertight_tiny_part6
# number of vertices: 31
# number of triangles: 58
v -0.0654689 0.115002 0.00513056 0.206499 0.639416 0.240095
vn 0.06074 0.811912 -0.580612
v -0.0498025 0.0989554 -0.0107055 0.206499 0.639416 0.240095
vn -0.00232509 0.564786 -0.825234
v -0.0708353 0.102837 -0.00383573 0.206499 0.639416 0.240095
vn -0.238963 0.618729 -0.748379
v -0.0704026 0.103752 -0.00268748 0.206499 0.639416 0.240095
vn -0.94371 0.30437 0.129503
v -0.0665076 0.11209 0.00595414 0.206499 0.639416 0.240095
vn -0.106905 -0.0800853 0.991039
v -0.0433831 0.110027 0.00557402 0.206499 0.639416 0.240095
vn 0.179588 0.483286 0.856845
v 0.00179852 0.0969737 -0.00271915 0.206499 0.639416 0.240095
vn 0.545054 0.579287 -0.606088
v -0.00552257 0.0985813 -0.00294682 0.206499 0.639416 0.240095
vn 0.16881 0.785438 -0.595475
v -0.0151878 0.100452 -0.00294682 0.206499 0.639416 0.240095
vn 0.120586 0.748468 -0.652116
v -0.0694432 0.088206 -0.0116696 0.206499 0.639416 0.240095
vn -0.331177 0.140768 -0.933009
v -0.0712537 0.100089 -0.00546309 0.206499 0.639416 0.240095
vn -0.292177 0.427856 -0.85532
v -0.0308398 0.0950698 -0.0113429 0.206499 0.639416 0.240095
vn 0.192359 0.165237 -0.967313
v -0.0472347 0.082272 -0.014271 0.206499 0.639416 0.240095
vn 0.0851384 -0.0635238 -0.994342
v -0.0715206 0.0993184 -0.00408518 0.206499 0.639416 0.240095
vn -0.979563 0.189314 -0.067947
v -0.0712465 0.100863 -0.00341009 0.206499 0.639416 0.240095
vn -0.98031 0.195774 -0.0257998
v -0.0718884 0.097796 -0.00165999 0.206499 0.639416 0.240095
vn -0.992585 -0.116017 0.0362587
v -0.0714412 0.097796 0.00204809 0.206499 0.639416 0.240095
vn -0.262102 -0.484455 0.834629
v -0.0222493 0.0894247 0.00489299 0.206499 0.639416 0.240095
vn -0.0781215 -0.287156 0.954693
v 0.00179852 0.086028 0.00453466 0.206499 0.639416 0.240095
vn 0.0642676 -0.0336778 0.997364
v 0.00179852 0.0889876 0.00439409 0.206499 0.639416 0.240095
vn 0.193362 0.0466515 0.980018
v 0.00179852 0.0902285 0.0043347 0.206499 0.639416 0.240095
vn 0.25311 0.289641 0.923062
v 0.00179852 0.093177 0.00307954 0.206499 0.639416 0.240095
vn 0.318215 0.685172 0.655194
v 0.00179852 0.0771603 -0.00294682 0.206499 0.639416 0.240095
vn 0.225998 -0.59724 -0.769564
v -0.0619563 0.0818238 -0.0133148 0.206499 0.639416 0.240095
vn -0.208597 -0.911795 0.353719
v -0.0709579 0.0950772 -0.00604711 0.206499 0.639416 0.240095
vn -0.979144 -0.0538703 -0.195897
v -0.0717081 0.0985517 -0.00319429 0.206499 0.639416 0.240095
vn -0.987021 0.000727695 -0.160591
v -0.0555079 0.0873985 -0.00408914 0.206499 0.639416 0.240095
vn -0.211557 -0.739878 0.638611
v -0.022444 0.0829572 0.00108791 0.206499 0.639416 0.240095
vn -0.158371 -0.74032 0.653333
v 0.00179852 0.0800939 0.00193128 0.206499 0.639416 0.240095
vn 0.232798 -0.634803 0.73677
v 0.00179852 0.0821238 0.00311913 0.206499 0.639416 0.240095
vn 0.391217 -0.421085 0.818313
v 0.00179852 0.0830795 0.00346757 0.206499 0.639416 0.240095
vn 0.375053 -0.315974 0.87149
f 1//1 2//2 3//3
f 1//1 3//3 4//4
f 1//1 4//4 5//5
f 1//1 5//5 6//6
f 1//1 6//6 7//7
f 1//1 7//7 8//8
f 1//1 8//8 9//9
f 1//1 9//9 2//2
f 2//2 10//10 11//11
f 2//2 11//11 3//3
f 2//2 9//9 12//12
f 2//2 12//12 13//13
f 2//2 13//13 10//10
f 3//3 11//11 14//14
f 3//3 14//14 15//15
f 3//3 15//15 16//16
f 3//3 16//16 17//17
f 3//3 17//17 4//4
f 4//4 17//17 5//5
f 5//5 17//17 18//18
f 5//5 18//18 19//19
f 5//5 19//19 6//6
f 6//6 19//19 20//20
f 6//6 20//20 21//21
f 6//6 21//21 22//22
f 6//6 22//22 7//7
f 7//7 22//22 21//21
f 7//7 21//21 20//20
f 7//7 20//20 19//19
f 7//7 19//19 31//31
f 7//7 31//31 30//30
f 7//7 30//30 29//29
f 7//7 29//29 23//23
f 7//7 23//23 12//12
f 7//7 12//12 8//8
f 8//8 12//12 9//9
f 10//10 13//13 24//24
f 10//10 24//24 17//17
f 10//10 17//17 16//16
f 10//10 16//16 25//25
f 10//10 25//25 11//11
f 11//11 25//25 26//26
f 11//11 26//26 14//14
f 12//12 23//23 13//13
f 13//13 23//23 24//24
f 14//14 26//26 15//15
f 15//15 26//26 16//16
f 16//16 26//26 25//25
f 17//17 24//24 27//27
f 17//17 27//27 28//28
f 17//17 28//28 18//18
f 18//18 28//28 29//29
f 18//18 29//29 30//30
f 18//18 30//30 31//31
f 18//18 31//31 19//19
f 23//23 29//29 28//28
f 23//23 28//28 24//24
f 24//24 28//28 27//27
