# Created by Open3D 
# object name: top_watertight_tiny_part5
# number of vertices: 32
# number of triangles: 60
v 0.0465213 0.0616541 -0.0538095 0.732274 0.364233 0.109081
vn -0.63997 -0.752058 -0.157632
v 0.0529417 0.093165 -0.0533284 0.732274 0.364233 0.109081
vn -0.756624 0.287345 -0.587327
v 0.0556095 0.076533 -0.056637 0.732274 0.364233 0.109081
vn -0.0884815 0.0288824 -0.995659
v 0.0562391 0.0619155 -0.0544673 0.732274 0.364233 0.109081
vn 0.135598 -0.976407 -0.168056
v 0.0690673 0.0616541 0.040668 0.732274 0.364233 0.109081
vn 0.505815 -0.862169 0.0285782
v 0.0461785 0.0616541 -0.036854 0.732274 0.364233 0.109081
vn -0.995976 0.0894861 0.00494281
v 0.0508067 0.106654 -0.014155 0.732274 0.364233 0.109081
vn -0.97342 0.224845 -0.0435677
v 0.0508067 0.100496 -0.0274877 0.732274 0.364233 0.109081
vn -0.969086 0.212193 -0.125882
v 0.0719845 0.0856108 -0.0553018 0.732274 0.364233 0.109081
vn 0.534215 0.223232 -0.815341
v 0.0555628 0.107088 -0.046829 0.732274 0.364233 0.109081
vn -0.486783 0.575478 -0.657166
v 0.0684035 0.0650073 -0.0556356 0.732274 0.364233 0.109081
vn 0.7828 -0.589293 -0.199896
v 0.0711898 0.072689 0.0428378 0.732274 0.364233 0.109081
vn 0.892212 -0.144584 0.427846
v 0.0512244 0.06189 0.0408742 0.732274 0.364233 0.109081
vn -0.366496 -0.526225 0.767312
v 0.0469514 0.0616541 0.0236929 0.732274 0.364233 0.109081
vn -0.931404 -0.357549 0.0681503
v 0.0777629 0.0820919 -0.0243362 0.732274 0.364233 0.109081
vn 0.95978 -0.279002 -0.0313139
v 0.0777629 0.0839534 -0.00719416 0.732274 0.364233 0.109081
vn 0.982745 -0.170238 0.0723333
v 0.0508067 0.106125 0.0045873 0.732274 0.364233 0.109081
vn -0.985648 0.165747 0.0320417
v 0.0578785 0.119959 -0.031464 0.732274 0.364233 0.109081
vn -0.296694 0.869408 -0.395097
v 0.0594275 0.12678 -0.00976645 0.732274 0.364233 0.109081
vn -0.503896 0.862721 0.0424472
v 0.0726951 0.109568 -0.0407615 0.732274 0.364233 0.109081
vn 0.424296 0.609941 -0.669287
v 0.0777629 0.103958 -0.0342523 0.732274 0.364233 0.109081
vn 0.991817 0.0713402 -0.105875
v 0.0777629 0.0926232 -0.0347628 0.732274 0.364233 0.109081
vn 0.993301 -0.0623183 -0.0973101
v 0.0532409 0.077043 0.0436625 0.732274 0.364233 0.109081
vn -0.714153 0.173005 0.678274
v 0.0780153 0.108057 0.0283073 0.732274 0.364233 0.109081
vn 0.988252 0.052191 0.143646
v 0.0744467 0.0952624 0.037919 0.732274 0.364233 0.109081
vn 0.172938 0.35923 0.917086
v 0.0508067 0.0988387 0.0161135 0.732274 0.364233 0.109081
vn -0.961221 0.201654 0.188124
v 0.0585018 0.120316 0.016035 0.732274 0.364233 0.109081
vn -0.664179 0.693171 0.279965
v 0.0758492 0.123325 -0.00871594 0.732274 0.364233 0.109081
vn 0.397161 0.904006 -0.158227
v 0.0768653 0.116242 -0.0262016 0.732274 0.364233 0.109081
vn 0.775938 0.569084 -0.272145
v 0.0776288 0.119002 0.0126478 0.732274 0.364233 0.109081
vn 0.729437 0.64688 0.222411
v 0.0553477 0.0970155 0.0379681 0.732274 0.364233 0.109081
vn -0.665997 0.395563 0.632438
v 0.0588883 0.113125 0.0279735 0.732274 0.364233 0.109081
vn 0.04308 0.705757 0.707143
f 1//1 2//2 3//3
f 1//1 3//3 4//4
f 1//1 4//4 5//5
f 1//1 5//5 14//14
f 1//1 14//14 6//6
f 1//1 6//6 7//7
f 1//1 7//7 8//8
f 1//1 8//8 2//2
f 2//2 9//9 3//3
f 2//2 8//8 10//10
f 2//2 10//10 9//9
f 3//3 11//11 4//4
f 3//3 9//9 11//11
f 4//4 11//11 5//5
f 5//5 12//12 13//13
f 5//5 13//13 14//14
f 5//5 11//11 15//15
f 5//5 15//15 16//16
f 5//5 16//16 12//12
f 6//6 14//14 17//17
f 6//6 17//17 7//7
f 7//7 18//18 10//10
f 7//7 10//10 8//8
f 7//7 17//17 19//19
f 7//7 19//19 18//18
f 9//9 10//10 20//20
f 9//9 20//20 21//21
f 9//9 21//21 22//22
f 9//9 22//22 11//11
f 10//10 18//18 20//20
f 11//11 22//22 15//15
f 12//12 23//23 13//13
f 12//12 16//16 24//24
f 12//12 24//24 25//25
f 12//12 25//25 23//23
f 13//13 23//23 14//14
f 14//14 23//23 26//26
f 14//14 26//26 17//17
f 15//15 22//22 24//24
f 15//15 24//24 16//16
f 17//17 26//26 27//27
f 17//17 27//27 19//19
f 18//18 19//19 28//28
f 18//18 28//28 29//29
f 18//18 29//29 20//20
f 19//19 27//27 30//30
f 19//19 30//30 28//28
f 20//20 29//29 21//21
f 21//21 29//29 30//30
f 21//21 30//30 24//24
f 21//21 24//24 22//22
f 23//23 31//31 26//26
f 23//23 25//25 31//31
f 24//24 32//32 25//25
f 24//24 30//30 32//32
f 25//25 32//32 31//31
f 26//26 31//31 27//27
f 27//27 31//31 32//32
f 27//27 32//32 30//30
f 28//28 30//30 29//29
