# Created by Open3D 
# object name: top_watertight_tiny_part0
# number of vertices: 32
# number of triangles: 60
v -0.0688999 0.108074 -0.0173161 0.972112 0.575185 0.534475
vn -0.304116 -0.192599 -0.932962
v -0.0673908 0.0888229 -0.000523217 0.972112 0.575185 0.534475
vn -0.694784 -0.557154 -0.454813
v -0.0717108 0.0976246 -0.00263994 0.972112 0.575185 0.534475
vn -0.868703 -0.353945 -0.346522
v -0.0710402 0.101606 -0.00443195 0.972112 0.575185 0.534475
vn -0.985646 0.15735 -0.0611815
v -0.0702708 0.10475 -0.0075136 0.972112 0.575185 0.534475
vn -0.00390071 0.860038 0.510215
v -0.022376 0.100946 -0.00294626 0.972112 0.575185 0.534475
vn 0.0372956 0.805387 0.591575
v -0.0140122 0.100349 -0.00317294 0.972112 0.575185 0.534475
vn 0.133791 0.954529 0.26641
v -0.0539574 0.107098 -0.018572 0.972112 0.575185 0.534475
vn 0.136069 0.610662 -0.780114
v 0.0269884 0.0752757 -0.0156098 0.972112 0.575185 0.534475
vn -0.0838137 -0.608638 -0.789009
v -0.024753 0.0874589 -0.0138239 0.972112 0.575185 0.534475
vn -0.16144 -0.515746 -0.841394
v -0.0308187 0.0853597 -0.0106994 0.972112 0.575185 0.534475
vn -0.209424 -0.660396 -0.721123
v -0.0628539 0.0869545 -0.00219883 0.972112 0.575185 0.534475
vn -0.268671 -0.667238 -0.694701
v -0.0668582 0.0845357 0.00672141 0.972112 0.575185 0.534475
vn -0.409775 -0.909776 -0.0662689
v -0.072924 0.0928401 0.00833269 0.972112 0.575185 0.534475
vn -0.0676497 0.693983 0.716807
v 0.00178842 0.0916893 0.00369797 0.972112 0.575185 0.534475
vn 0.0710735 0.597855 0.798447
v 0.0102805 0.0917426 0.00253393 0.972112 0.575185 0.534475
vn 0.152954 0.649816 0.744543
v 0.0135846 0.094197 -0.00175771 0.972112 0.575185 0.534475
vn 0.182301 0.883772 0.430946
v 0.00359335 0.0970954 -0.00440744 0.972112 0.575185 0.534475
vn 0.201167 0.978246 0.0506691
v -0.00400118 0.0983705 -0.00817526 0.972112 0.575185 0.534475
vn 0.188917 0.979029 -0.0762333
v 0.0225008 0.0928508 -0.00898397 0.972112 0.575185 0.534475
vn 0.221035 0.927153 -0.302542
v 0.0278367 0.0889543 -0.0129968 0.972112 0.575185 0.534475
vn 0.489697 0.599307 -0.633268
v 0.0278367 0.0838075 -0.015524 0.972112 0.575185 0.534475
vn 0.124456 0.267467 -0.955496
v 0.0278367 0.0796198 -0.0156098 0.972112 0.575185 0.534475
vn 0.523113 -0.0460944 -0.851016
v 0.0264263 0.0748317 0.00255843 0.972112 0.575185 0.534475
vn 0.150292 -0.712688 0.685192
v 0.0254301 0.0717877 -0.00743089 0.972112 0.575185 0.534475
vn -0.0993054 -0.990522 -0.0948946
v -0.0493021 0.0828591 -0.0019844 0.972112 0.575185 0.534475
vn -0.181948 -0.892337 -0.413072
v -0.0493119 0.0807741 0.00684394 0.972112 0.575185 0.534475
vn -0.103808 -0.970909 0.215776
v -0.0637317 0.0867201 0.0127224 0.972112 0.575185 0.534475
vn 0.0398021 -0.0256343 0.998879
v 0.0155967 0.0860879 0.00422791 0.972112 0.575185 0.534475
vn 0.105514 0.340461 0.93432
v 0.0278367 0.0824649 0.00411764 0.972112 0.575185 0.534475
vn 0.42902 0.0180116 0.903115
v 0.0278367 0.0907729 -0.000998024 0.972112 0.575185 0.534475
vn 0.529827 0.651542 0.542933
v 0.0256175 0.0924245 -0.00566032 0.972112 0.575185 0.534475
vn 0.315407 0.947674 0.0493228
f 1//1 2//2 3//3
f 1//1 3//3 4//4
f 1//1 4//4 5//5
f 1//1 5//5 6//6
f 1//1 6//6 7//7
f 1//1 7//7 8//8
f 1//1 8//8 9//9
f 1//1 9//9 10//10
f 1//1 10//10 11//11
f 1//1 11//11 12//12
f 1//1 12//12 2//2
f 2//2 13//13 14//14
f 2//2 14//14 3//3
f 2//2 12//12 13//13
f 3//3 14//14 4//4
f 4//4 14//14 5//5
f 5//5 14//14 6//6
f 6//6 14//14 15//15
f 6//6 15//15 7//7
f 7//7 15//15 16//16
f 7//7 16//16 17//17
f 7//7 17//17 18//18
f 7//7 18//18 19//19
f 7//7 19//19 8//8
f 8//8 19//19 20//20
f 8//8 20//20 21//21
f 8//8 21//21 22//22
f 8//8 22//22 23//23
f 8//8 23//23 9//9
f 9//9 23//23 24//24
f 9//9 24//24 25//25
f 9//9 25//25 26//26
f 9//9 26//26 11//11
f 9//9 11//11 10//10
f 11//11 26//26 12//12
f 12//12 26//26 13//13
f 13//13 26//26 27//27
f 13//13 27//27 28//28
f 13//13 28//28 14//14
f 14//14 28//28 15//15
f 15//15 29//29 16//16
f 15//15 28//28 29//29
f 16//16 29//29 30//30
f 16//16 30//30 31//31
f 16//16 31//31 17//17
f 17//17 31//31 32//32
f 17//17 32//32 18//18
f 18//18 32//32 20//20
f 18//18 20//20 19//19
f 20//20 32//32 21//21
f 21//21 32//32 31//31
f 21//21 31//31 30//30
f 21//21 30//30 23//23
f 21//21 23//23 22//22
f 23//23 30//30 24//24
f 24//24 30//30 28//28
f 24//24 28//28 27//27
f 24//24 27//27 25//25
f 25//25 27//27 26//26
f 28//28 30//30 29//29
