# Created by Open3D 
# object name: top_watertight_tiny_part2
# number of vertices: 32
# number of triangles: 60
v 0.0358421 0.0763606 0.0157445 0.622481 0.319125 0.463665
vn 0.504047 -0.234908 0.831117
v 0.0287373 0.0775816 0.0140417 0.622481 0.319125 0.463665
vn -0.296505 -0.00436443 0.955021
v 0.0273523 0.0726282 0.0130917 0.622481 0.319125 0.463665
vn -0.805581 -0.309962 0.504939
v 0.0346152 0.0651146 0.00917074 0.622481 0.319125 0.463665
vn -0.109742 -0.747929 0.654644
v 0.0357335 0.0616631 0.001969 0.622481 0.319125 0.463665
vn 0.420579 -0.795441 0.436333
v 0.0362057 0.0596931 -0.00224578 0.622481 0.319125 0.463665
vn 0.997785 -0.0623283 0.0232366
v 0.0358421 0.0824252 0.0155432 0.622481 0.319125 0.463665
vn 0.963774 0.0639271 0.258945
v 0.0299303 0.0886363 0.0139652 0.622481 0.319125 0.463665
vn -0.82048 0.284768 0.495701
v 0.0254394 0.0746104 0.00172746 0.622481 0.319125 0.463665
vn -0.991341 0.0523958 0.120406
v 0.0273112 0.0621759 -0.00189153 0.622481 0.319125 0.463665
vn -0.739773 -0.663996 0.108839
v 0.0362057 0.0594611 -0.00885979 0.622481 0.319125 0.463665
vn 0.974857 -0.221515 -0.024175
v 0.0358421 0.100452 -0.00861021 0.622481 0.319125 0.463665
vn 0.997954 0.0613967 -0.0178349
v 0.0358421 0.0977454 0.00450511 0.622481 0.319125 0.463665
vn 0.997422 0.0630423 0.0342757
v 0.0358421 0.0946073 0.00826097 0.622481 0.319125 0.463665
vn 0.952703 0.202075 0.226986
v 0.0358421 0.0895033 0.0124999 0.622481 0.319125 0.463665
vn 0.977021 0.109364 0.182949
v 0.0315482 0.0977047 0.00622 0.622481 0.319125 0.463665
vn -0.681695 0.663562 0.308185
v 0.0278414 0.090765 -0.00100188 0.622481 0.319125 0.463665
vn -0.967569 0.246163 0.0566944
v 0.0254394 0.0752657 -0.00669806 0.622481 0.319125 0.463665
vn -0.992307 0.123668 0.00573617
v 0.0254394 0.0717897 -0.00743071 0.622481 0.319125 0.463665
vn -0.992375 -0.120595 0.0254637
v 0.0256987 0.0681673 -0.0187708 0.622481 0.319125 0.463665
vn -0.698331 -0.55895 -0.447112
v 0.0361835 0.0608205 -0.0134691 0.622481 0.319125 0.463665
vn 0.903724 -0.358007 -0.234764
v 0.0321268 0.101042 -0.00896043 0.622481 0.319125 0.463665
vn -0.714741 0.687039 -0.130856
v 0.0358189 0.0997154 -0.000563089 0.622481 0.319125 0.463665
vn 0.102458 0.972361 0.209801
v 0.0358421 0.0931542 -0.0213028 0.622481 0.319125 0.463665
vn 0.951919 0.207891 -0.225016
v 0.0278414 0.0889334 -0.0129941 0.622481 0.319125 0.463665
vn -0.964519 0.253956 -0.0721825
v 0.0254415 0.0752657 -0.012036 0.622481 0.319125 0.463665
vn -0.990818 0.127927 -0.0437609
v 0.0263289 0.0778625 -0.0156107 0.622481 0.319125 0.463665
vn -0.97427 0.146658 -0.171139
v 0.0273934 0.0749238 -0.0227883 0.622481 0.319125 0.463665
vn -0.870322 -0.0382576 -0.490995
v 0.0358421 0.0745086 -0.0253807 0.622481 0.319125 0.463665
vn 0.0783076 -0.51595 -0.853032
v 0.0358421 0.0800075 -0.0250064 0.622481 0.319125 0.463665
vn 0.782759 0.126254 -0.609383
v 0.0297596 0.0922466 -0.0219671 0.622481 0.319125 0.463665
vn -0.740337 0.38747 -0.549334
v 0.028713 0.0782532 -0.0246843 0.622481 0.319125 0.463665
vn -0.298278 0.0807503 -0.951057
f 1//1 2//2 3//3
f 1//1 3//3 4//4
f 1//1 4//4 5//5
f 1//1 5//5 6//6
f 1//1 6//6 7//7
f 1//1 7//7 8//8
f 1//1 8//8 2//2
f 2//2 8//8 3//3
f 3//3 8//8 9//9
f 3//3 9//9 10//10
f 3//3 10//10 4//4
f 4//4 10//10 5//5
f 5//5 10//10 6//6
f 6//6 10//10 11//11
f 6//6 11//11 12//12
f 6//6 12//12 13//13
f 6//6 13//13 14//14
f 6//6 14//14 15//15
f 6//6 15//15 7//7
f 7//7 15//15 8//8
f 8//8 15//15 14//14
f 8//8 14//14 16//16
f 8//8 16//16 17//17
f 8//8 17//17 9//9
f 9//9 18//18 19//19
f 9//9 19//19 10//10
f 9//9 17//17 18//18
f 10//10 19//19 20//20
f 10//10 20//20 21//21
f 10//10 21//21 11//11
f 11//11 21//21 12//12
f 12//12 22//22 23//23
f 12//12 23//23 13//13
f 12//12 21//21 24//24
f 12//12 24//24 22//22
f 13//13 23//23 16//16
f 13//13 16//16 14//14
f 16//16 23//23 22//22
f 16//16 22//22 17//17
f 17//17 22//22 25//25
f 17//17 25//25 26//26
f 17//17 26//26 18//18
f 18//18 26//26 19//19
f 19//19 26//26 20//20
f 20//20 26//26 27//27
f 20//20 27//27 28//28
f 20//20 28//28 29//29
f 20//20 29//29 21//21
f 21//21 29//29 30//30
f 21//21 30//30 24//24
f 22//22 24//24 31//31
f 22//22 31//31 25//25
f 24//24 30//30 31//31
f 25//25 27//27 26//26
f 25//25 31//31 27//27
f 27//27 31//31 28//28
f 28//28 31//31 32//32
f 28//28 32//32 29//29
f 29//29 32//32 30//30
f 30//30 32//32 31//31
